<?xml version="1.0" standalone="no"?>
<!DOCTYPE svg PUBLIC "-//W3C//DTD SVG 1.1//EN" "http://www.w3.org/Graphics/SVG/1.1/DTD/svg11.dtd" >
<svg xmlns="http://www.w3.org/2000/svg">
<metadata>
This is a custom SVG webfont generated by Font Squirrel.
Copyright   : Copyright c BoBFrAnTiC 2001 All rights reserved
</metadata>
<defs>
<font id="webfontrFeZ8MJG" horiz-adv-x="972" >
<font-face units-per-em="2048" ascent="1638" descent="-410" />
<missing-glyph horiz-adv-x="815" />
<glyph unicode=" "  horiz-adv-x="815" />
<glyph unicode="&#x09;" horiz-adv-x="815" />
<glyph unicode="&#xa0;" horiz-adv-x="815" />
<glyph unicode="!" horiz-adv-x="700" d="M162 78q0 25 5 60.5t28 49.5q2 0 11 2.5t21.5 5.5t22.5 6t14 3q43 0 77 -22.5t34 -71.5q0 -78 -64 -111h-47q-41 0 -71.5 14.5t-30.5 63.5zM76 1087q6 78 -10.5 151t-20.5 148v11v20v21v12q-2 4 -9 16.5t-7 14.5q0 4 3 13t5 11v4q0 27 -8.5 52.5t-8.5 54.5q0 20 7.5 33.5 t29.5 13.5q35 0 52.5 -25.5t24.5 -60.5t8 -71t5 -56v-16l8 -60l11 -90l12 -90q6 -43 8 -59q12 -106 27 -210l29 -208q10 -78 24.5 -150.5t14.5 -152.5v-27l-17 -16h-63l-3 3q-3 3 -3 5q-20 39 -30.5 84t-17 92t-9.5 95t-7 91l-8 72l-13 111q-7 57 -16.5 105t-17.5 58z" />
<glyph unicode="&#x22;" horiz-adv-x="368" d="M51 1149q0 -23 21.5 -42.5t44.5 -19.5q35 0 48 23t13 57q0 4 1 12.5t-9 10.5q-2 31 -6 56.5t-9 51t-11.5 52t-12.5 61.5q-6 41 -16.5 64.5t-59.5 23.5h-18q-6 -10 -11.5 -25.5t-5.5 -23.5q4 -59 22.5 -115.5t18.5 -120.5q0 -20 -5 -33.5t-5 -31.5zM225 1219 q0 -29 20.5 -56.5t51.5 -27.5q20 0 33.5 16t13.5 35q0 49 -10 115.5t-21 109.5q2 6 5.5 24.5t3.5 22.5q0 29 -27 52.5t-53 27.5q-23 4 -32 -16.5t-9 -36.5q0 -61 16 -123t16 -121v-4q0 -2 -3 -8t-5 -6v-4z" />
<glyph unicode="#" horiz-adv-x="1271" d="M57 645q0 -35 19.5 -64.5t60.5 -29.5h254l5 -19q5 -18 10 -28q4 -16 9 -42t15 -50.5t26.5 -42t41.5 -17.5q29 0 44 16.5t15 43.5q0 18 -4 24t-9 10l-13 11q-7 6 -13 22q-2 2 -7 29t-9 43v4v4l8 8q53 4 127 11.5t135 11.5h10h13q2 -6 5 -30.5t3 -33.5q0 -10 -4 -17 t-8.5 -13.5t-8.5 -13.5t-4 -19q0 -29 19.5 -46.5t48.5 -17.5q23 0 49.5 13.5t26.5 42.5v143q0 8 39 8q27 0 62.5 2t68 8.5t55 19.5t22.5 36q0 29 -21.5 61.5t-55.5 32.5q-16 0 -34 -10.5t-34 -14.5q-29 -6 -55.5 -8t-55.5 -8l-16 16q0 4 -3 33l-7 70q-4 41 -4 63 q0 2 -1 20.5t-1 26.5q0 6 1 24.5t1 25.5q4 10 16 13t25 3q14 0 26.5 -2t18.5 -2v-53q0 -2 6 -4.5t10 -4.5h23q25 0 62.5 10.5t73.5 29t61.5 42t25.5 49.5q0 23 -13.5 36.5t-32 20.5t-40 9t-37.5 2q-53 0 -103.5 -8t-103.5 -8h-18l-9 16v215q0 16 -25.5 32.5t-37.5 22.5 q-25 -10 -32 -31.5t-7 -43.5v-29q0 -10 -1 -39t-3 -59.5t-3 -59t-1 -39.5q-25 -6 -59.5 -13t-71.5 -13t-73 -10.5t-62 -4.5h-4q0 2 -3.5 11.5t-5.5 13.5v4q0 47 16.5 89t16.5 77q0 31 -27.5 53.5t-56.5 22.5q-20 0 -31.5 -24.5t-15.5 -60.5t-5 -78t-4 -75t-8 -52.5 t-20 -10.5q-8 -2 -29 -10l-46 -14l-45 -14q-22 -7 -29 -9q-27 -10 -46.5 -16.5t-19.5 -33.5q0 -10 3 -24.5t10.5 -27.5t17.5 -23.5t22 -10.5q20 0 44 7.5t48 18.5l46 21q23 10 41 17q-2 -59 3 -114.5t5 -112.5q0 -25 -17 -35q-39 -4 -64.5 -6t-60.5 -2t-66.5 8t-66.5 8 q-10 0 -22 1t-21 -9v-25zM477 717v215q0 4 4 15t13 16l45 7q33 5 69.5 9t69.5 9l45 7h25h16q0 -2 3 -16l5 -25q6 -49 10 -104t4 -105v-28q-12 -10 -53 -16.5t-89 -10.5t-88 -5t-48 -1q-4 0 -13 1l-10 1z" />
<glyph unicode="$" horiz-adv-x="948" d="M322 190q14 -4 15 -33.5t3 -64.5t11 -63.5t38 -28.5h4q4 0 23.5 3t23.5 5q8 25 24.5 42.5t16.5 47.5v13q0 8 -2 8q0 2 -3 11t-3 13q0 8 6 9q-12 4 -22.5 12t-10.5 22q0 10 3.5 13.5t15.5 7.5l28 7l43 11q24 6 43 12.5t27 8.5q2 -20 9.5 -53t18.5 -64t29.5 -52.5 t45.5 -21.5q29 0 43 21.5t14 50.5q0 18 -8 37.5t-19.5 39t-19.5 39t-8 40.5q0 6 8 13t18.5 12t21.5 9.5t15 8.5q72 43 111 123.5t39 164.5q0 74 -25 139.5t-102 94.5q-2 0 -12.5 4t-22.5 8t-23.5 7t-13.5 5q-2 0 -8 6.5t-6 8.5q-2 6 -4 20.5t-5.5 31.5t-5.5 31.5t-2 20.5 q-6 41 -19 84t-13 88q0 16 15 23.5l32.5 16.5t33 25.5t15.5 47.5q0 29 -21.5 41t-46 19t-46 14.5t-21.5 27.5v119q0 33 -30 49.5t-54 16.5q-14 0 -28.5 -7.5t-14.5 -23.5v-10q0 -6 3 -26.5t5 -45.5t5 -45.5t3 -26.5v-12q0 -18 -13.5 -27.5t-31.5 -13.5t-37.5 -5t-30.5 -1 q0 49 -5 91t-1 95q-8 27 -23.5 45.5t-43.5 18.5q-20 0 -44 -15.5t-24 -37.5q0 -59 20.5 -118t20.5 -120v-16q0 -4 -8 -11q-4 -2 -22.5 -12t-38.5 -22l-36 -23q-17 -10 -22 -12l-44 -30q-26 -17 -50.5 -37.5t-41 -45.5t-16.5 -49q0 -57 23 -91t57.5 -52.5t74.5 -24.5t75 -8 t57.5 -3t22.5 -10v-522h-97v72q0 12 -21.5 14t-27.5 2q-20 0 -44.5 -4t-46 -13t-36 -25.5t-14.5 -41.5q0 -43 33 -65.5t78 -34.5t92 -16.5t76 -6.5zM440 481v105q0 14 1 48l2 71.5t3.5 71.5t2.5 46l135 -22q14 -4 22 -17q0 -6 1 -29.5t1 -29.5q0 -92 -10 -180t-6 -180 q-4 -6 -24.5 -14.5t-46 -15.5l-47 -12.5t-25.5 -5.5q-8 41 -9 80v84zM719 760v2h2q53 0 72.5 -38t19.5 -79q0 -18 -6 -54t-19.5 -71t-33 -60.5t-45.5 -25.5q0 78 1 163t9 163zM440 950q4 53 -6 105.5t-10 105.5v27q12 4 32.5 14t37.5 10q25 0 43 -41t30.5 -93t19.5 -102 t7 -67q-2 0 -9 1t-10 1q-14 2 -35.5 8.5t-41 10.5t-34.5 8l-15 4zM139 991q10 16 30.5 38t44.5 42.5t48.5 33.5t42.5 13q10 0 16.5 -21.5t8.5 -49t2 -54.5v-37h-23q-14 0 -30.5 1t-30.5 1h-21q-16 2 -47 9.5t-41 23.5z" />
<glyph unicode="%" horiz-adv-x="1058" d="M20 98q0 -35 29 -66.5t66 -31.5q35 0 46 15.5t11 45.5q0 12 -4 20.5t-9 14.5t-9.5 13.5t-4.5 19.5q0 20 10.5 44t25 45.5t30.5 41t31 33.5l25 25l43 42l43 42q19 19 24 26q10 12 43 48l77 85l94 105l94 104l77 85q33 36 43 48t29.5 26.5t40 32t35 35t14.5 33.5 q0 29 -22.5 46.5t-49.5 17.5q-14 0 -40 -15.5t-51.5 -37t-45 -43t-21.5 -31.5l-110 -136l-113 -135l-379 -387q-12 -29 -25.5 -53.5t-23.5 -48t-16.5 -50t-6.5 -59.5zM504 324q0 -49 15.5 -94.5t44 -80t69.5 -56t92 -21.5q41 0 94 19.5t101.5 52t81 76.5t32.5 91 q0 61 -28.5 98t-72.5 57.5t-95.5 31t-96.5 16.5q-18 4 -27 22.5t-28 18.5q-16 0 -42 -9t-53.5 -23.5t-50 -32t-28.5 -31.5q-12 -25 -10 -64.5t2 -70.5zM614 317q0 33 14.5 50.5t36 23.5t48.5 6h53h35q27 0 35 -2q12 -2 26.5 -6t28.5 -10t23.5 -15.5t9.5 -23.5 q0 -31 -26 -58.5t-61.5 -47t-74.5 -32t-66 -12.5q-25 0 -41 12.5t-25 31t-12.5 41t-3.5 42.5zM115 1053q0 -23 3 -64t14 -82t33.5 -70.5t63.5 -29.5q45 0 100.5 19.5t104.5 53t83 79t34 94.5q0 39 -19.5 74.5t-50 63.5t-67.5 45t-74 17t-77 -16t-72.5 -44t-54 -63.5 t-21.5 -76.5zM385 1149h4q8 0 17.5 -6t18.5 -14.5t15 -16.5t9 -10v-8q0 -29 -24 -58.5t-56.5 -52t-70.5 -37t-65 -14.5v18q2 8 4.5 21.5t5.5 28t5 25.5t2 13q8 31 29.5 40t45 14.5t42 15.5t18.5 41z" />
<glyph unicode="&#x26;" horiz-adv-x="598" d="M270 535q0 -16 -1 -58.5t-2 -90.5t-1 -91v-57q0 -6 2 -30t5 -50.5l5.5 -49t2.5 -28.5q4 -39 14 -59.5t55 -20.5q23 0 44.5 22.5t21.5 45.5q0 35 -19.5 63.5t-19.5 65.5v389q0 6 30.5 26.5t68.5 51t68.5 68.5t30.5 77q0 45 -26.5 80t-57 60.5t-57 40t-26.5 18.5q0 8 17 21 l39 29q22 15 41 31.5t21 32.5q6 41 -18.5 65.5t-58 43t-67.5 33t-46 32.5q-12 20 -15.5 48t-2.5 59l3 61q1 31 -8 54q-6 16 -18 20t-23 18h-55q-6 0 -10 -8t-7 -19t-4 -21.5t-1 -14.5v-14q0 -2 2 -11.5t5 -20.5t6 -20.5t3 -11.5q0 -6 -1 -17.5t-2 -25.5t-2 -25.5t-1 -17.5 q-27 0 -51.5 11.5t-53.5 11.5q-27 0 -29.5 -17.5t-2.5 -38.5v-32q0 -6 8 -7q2 0 11 3.5t13 3.5q0 2 4 2q2 0 2 -2l127 -39q4 -41 21.5 -73t64.5 -32q4 0 11 1l6 1l49 47l5 -2q5 -2 9 -6q8 0 9 -8q-27 -31 -67 -50l-75 -36q-2 0 -17.5 -4t-32.5 -9t-31.5 -10.5t-14.5 -7.5 v-63q0 -16 21.5 -23.5t54.5 -12.5t71.5 -10t71.5 -16.5t54.5 -31t21.5 -54.5q0 -27 -28.5 -56.5t-66.5 -54t-77 -43t-60 -24.5q-29 -6 -65.5 -7t-69 -7t-55.5 -24.5t-23 -59.5q0 -16 11.5 -25.5t28 -15.5t33 -8t26.5 -2q43 0 76.5 18.5t74.5 18.5z" />
<glyph unicode="'" horiz-adv-x="241" d="M20 1485q0 -25 4.5 -82t12.5 -120.5t20.5 -120t26.5 -77.5q23 -31 63 -30q25 0 47.5 19.5t22.5 47.5v4q-10 14 -26.5 34t-20.5 36q-10 37 -15 93.5t-8 96.5q-2 23 -1 56t-5 62.5t-23.5 50t-54.5 20.5q-16 0 -27 -12.5t-16 -26.5v-51z" />
<glyph unicode="(" horiz-adv-x="653" d="M20 807q0 -123 32 -215t87.5 -171t132 -148.5t168.5 -145.5q12 -10 25 -31l25 -41q13 -20 27.5 -36.5t33.5 -18.5q4 0 17.5 2t26.5 6t23.5 10.5t10.5 12.5v104q0 10 -7.5 15.5t-18.5 7.5t-21.5 3t-16.5 5q-29 16 -56.5 41.5t-53.5 44.5q-72 51 -131.5 108.5t-102.5 123 t-66.5 141t-23.5 166.5q0 66 13.5 135t37 138t53 133.5t62.5 121.5q14 25 41 62l53 78q27 40 46.5 78t19.5 60q0 8 -8.5 18.5t-20.5 18.5t-25.5 13.5t-21.5 5.5q-27 0 -39 -17.5t-19.5 -41t-15.5 -46t-26 -30.5q-47 -74 -94.5 -160t-84 -178.5t-59.5 -186.5t-23 -186z" />
<glyph unicode=")" horiz-adv-x="868" d="M20 72q0 -29 26 -50.5t54 -21.5q31 0 54.5 26.5t31.5 53.5l334 315q29 18 48.5 42t45.5 46q109 98 170.5 218t61.5 270q0 106 -27.5 208.5t-73 200t-102.5 187.5l-117 176q-29 20 -39 46t-20 48.5t-30.5 37.5t-67.5 17q-14 -14 -15.5 -28.5t-1.5 -32.5q0 -45 31 -85 l57 -75q8 -12 25 -34l33 -44l28 -41l17 -24q84 -127 141 -269.5t57 -295.5q0 -90 -38.5 -183.5t-104.5 -154.5l-498 -467l-37 -17q-14 -6 -24 -14t-14.5 -20t-4.5 -35zM424 356q6 0 6 -8t-6 -8t-6 8t6 8z" />
<glyph unicode="*" horiz-adv-x="780" d="M66 629q0 -55 55 -56q33 0 59.5 24t47 55.5t36 66.5t27.5 59l6 8q14 -4 16 -34.5t7.5 -65.5t17.5 -62.5t47 -27.5q16 0 28.5 3t18.5 22v32q0 63 -14.5 125t-14.5 127h13l110 -110q2 -14 7.5 -30.5t14.5 -31t21.5 -25t30.5 -10.5q29 0 49.5 20.5t20.5 49.5v18 q-10 10 -27.5 25.5t-34 32t-28 34t-11.5 33.5q37 0 68 -3t63 -19h5q29 0 48 29.5t19 54.5q0 29 -19.5 44t-43.5 15q-29 0 -57.5 -4t-59.5 -4q-43 0 -73 1t-79 7q-8 0 -8 8q0 27 23.5 51.5t52.5 48t52.5 48t23.5 49.5q0 23 -19.5 32t-42.5 9q-20 0 -40.5 -12.5t-40 -29.5 t-36 -36.5l-28.5 -32.5h-8v15q0 4 -4.5 20.5t-4.5 20.5v174q-12 18 -27.5 24t-35.5 6q-18 0 -29.5 -11t-16.5 -27.5t-7 -34t-2 -29.5q0 -4 1 -15.5t3 -24.5t3 -25.5t1 -14.5v-35v-36q-4 2 -12.5 8t-10.5 8q-6 4 -20 16l-32 27l-32 27q-14 12 -20 18q-10 -4 -25.5 6t-31.5 10 q-20 0 -24.5 -4t-4.5 -24v-21q53 -55 110.5 -105t110.5 -108h-22q-35 0 -67 4t-67 4q-59 0 -59 -65q0 -16 5 -25.5t28 -19.5q35 -4 80 -3t80 -14q-4 -10 -16 -32l-23 -47l-25 -48q-12 -23 -16 -30q-6 -12 -22 -28l-31 -32q-15 -16 -26 -33.5t-11 -33.5z" />
<glyph unicode="+" horiz-adv-x="964" d="M418 475l8 -34q6 -26 14 -38h21q45 0 60.5 20.5t15.5 61.5q0 45 -8.5 90.5l-17.5 91.5t-16.5 91t-7.5 90q0 4 1 12t1 10q31 8 71 15.5t82 10.5t81 5t70 2q23 0 41 -8t38 -8h5q2 0 8 4t8 4h4h4q2 0 8 -4t9 -4q8 2 12 8t5 14.5t4 14.5t9 10q-2 35 -7 54.5t-32 41.5h-41 q-92 0 -182 -16.5t-182 -16.5h-39q-2 2 -5 8.5t-3 8.5q0 4 -4 21.5l-8.5 38t-7.5 37.5t-5 22q0 2 -2 10t-5 17t-5 17.5t-2 10.5q-6 29 -10.5 74t-15.5 87t-33.5 71.5t-67.5 29.5q-14 0 -27.5 -5t-13.5 -22q0 -45 13 -81l28 -74q0 -4 3 -22.5t6 -40t7 -39t6 -17.5 q6 -37 15.5 -62.5t9.5 -60.5v-35q-45 -6 -72.5 -8t-68.5 -2q-25 0 -51.5 9t-49.5 9q-16 0 -41.5 -11t-25.5 -34q0 -55 26.5 -73.5t79.5 -18.5q2 0 7 1l5 1q10 0 38 1l58 2l57 2q28 1 38 1l31 -6q2 -2 8 -34.5t8 -53.5l7 -59l10.5 -91t9.5 -91.5t6 -59.5z" />
<glyph unicode="," horiz-adv-x="376" d="M20 -223q12 -4 15 -16l4 -21q2 -10 9 -18.5t32 -8.5q39 0 86 24.5t89 63.5t69.5 84t27.5 88v144q0 20 -13 37.5t-33.5 31t-42 20.5t-38.5 7q-49 0 -84 -40t-35 -87q0 -12 2.5 -27.5t7.5 -29t15 -22.5t27 -9q20 0 37.5 7t37.5 7q0 -18 -10 -44.5t-26.5 -52.5t-37 -43 t-40.5 -17h-4q-16 6 -24.5 15t-27.5 9q-37 0 -40 -21.5t-3 -50.5v-30z" />
<glyph unicode="-" horiz-adv-x="821" d="M25 1143q0 -29 6 -51.5t35 -28.5q117 -25 234.5 -31t234.5 -16q41 -4 86 -14.5t86 -10.5q23 0 40 1t39 7q4 6 10.5 31t6.5 33q0 35 -25.5 60.5t-60.5 25.5q-23 0 -46.5 -7t-45.5 -7q-31 0 -62 2t-61 6q-14 0 -49 2t-74 5t-74 5t-49 2q-37 12 -80 22.5t-82 10.5 q-16 0 -33.5 -3t-33.5 -13q0 -4 -1 -15.5t-1 -15.5z" />
<glyph unicode="." horiz-adv-x="313" d="M20 16q14 -10 23 -23l15 -26q7 -12 19.5 -21t37.5 -9t56.5 10t59 29.5t44 45t14.5 56.5q-2 23 -10.5 49.5t-23.5 49t-35.5 37.5t-47.5 15h-16q-4 -2 -24.5 -15t-25.5 -17q-23 -14 -23.5 -32t-14.5 -38l-10 -9l-15 -16l-15 -15q-7 -7 -8 -9l-1 -12q-1 -12 -1 -19 q0 -4 1 -15.5t1 -15.5z" />
<glyph unicode="/" horiz-adv-x="1024" d="M786 1481q-33 -104 -73 -209l-82 -210q-41 -105 -78 -213t-64 -216l-74 -112l-71 -111q-10 -4 -26.5 -7.5t-20.5 9.5q8 39 29 73l42 71q22 36 39 72t19 79q41 156 101.5 307t160.5 282q29 47 47 98.5t51 86.5z" />
<glyph unicode="0" horiz-adv-x="987" d="M20 483q0 -80 27 -166t78 -156.5t122.5 -116.5t162.5 -46q109 0 192.5 38t145 102.5t102.5 149.5t66.5 178t36 191.5t10.5 186.5q0 72 -6.5 143.5t-16.5 142.5q-2 2 -5 7.5t-3 9.5q0 2 -3 15.5t-5 27.5t-5.5 26.5t-3.5 16.5q-12 55 -40.5 101t-69.5 80t-92 53.5 t-107 19.5q-61 0 -119.5 -26.5t-109.5 -67.5t-93 -91.5t-73 -99.5q-12 -20 -17.5 -51t-15.5 -53l-66 -154q-32 -76 -53 -162v-8q0 -4 -7 -23.5t-7 -23.5q-16 -59 -20.5 -122t-4.5 -122zM330 117q-78 35 -123 97t-68 140v19q0 14 -1 30.5t-1 28.5v21q0 109 18.5 219 t56.5 212.5t96.5 196t140.5 168.5q20 20 48 32l53 23q26 11 48.5 26.5t32.5 45.5h18q55 0 93 -29.5t62.5 -76.5t37 -105.5t18.5 -116t7 -108.5t1 -82q0 -68 -9 -148.5t-30.5 -163.5t-56.5 -162t-86 -140.5t-120.5 -98t-157.5 -36.5q-14 0 -39 6t-39 2z" />
<glyph unicode="1" horiz-adv-x="272" d="M23 465q0 -6 2 -27.5t5 -47t6 -47t3 -28.5q2 -31 10 -79t22.5 -97t33 -90t42.5 -55h21q16 0 27.5 1t31.5 7q4 37 14.5 76t10.5 76q0 20 -11.5 27t-25.5 12.5t-27.5 11.5t-15.5 24l-25 142v24q0 25 -1 54.5t-1 60.5v49q0 242 12.5 482.5t22.5 482.5q0 2 1 13t3 23.5 t2 22.5v12q-2 25 -25.5 44.5t-45.5 19.5q-35 0 -62 -17v-26q0 -20 1 -33.5t7 -34.5v-20q0 -12 1 -28.5t1 -31.5v-18q0 -209 -14 -414t-18 -413q0 -6 -1 -30t-3 -49.5t-3 -49t-1 -29.5z" />
<glyph unicode="2" horiz-adv-x="907" d="M483 412q31 0 64 -21.5t62.5 -52.5t51 -64.5t31.5 -58.5t22.5 -76t28 -103t35 -91t45.5 -39q23 0 41.5 18.5t18.5 40.5v4q-4 12 -14 45l-20 70l-22 70q-10 33 -16 45q-16 43 -43 92t-61.5 93t-76.5 79t-87 51v4q0 23 15 44.5t24 39.5q2 6 15 34l29 60l27 61q12 28 17 36 q37 86 60.5 178t41.5 184v8q0 8 4 38t8 66t8.5 65.5t4.5 37.5v103q0 33 -1 86t-13.5 104t-40 89t-83.5 38q-61 0 -124.5 -44t-123 -106.5t-109.5 -130t-83 -116.5q-18 -23 -29.5 -35t-11.5 -41q0 -14 9.5 -44t23.5 -38h27q33 0 46 10t18 26.5t9 38t19 44.5q10 18 33.5 49 t53.5 65l63 72q34 37 66 65.5t60.5 47t46.5 18.5q12 0 19.5 -29.5t10.5 -66.5t5 -72t4 -47q-2 -113 -19.5 -226.5t-43.5 -223.5q-35 -119 -85 -244t-128 -223q0 -2 -3 -4.5t-5 -4.5q-43 -8 -85 -23t-81 -40h-9l-7 -6q-7 -6 -16 -15.5l-17.5 -18.5l-14.5 -15 q-35 -41 -57.5 -87t-40 -94.5t-30.5 -98.5t-30 -99q2 -8 9.5 -22.5t16.5 -28t21.5 -22.5t24.5 -7q8 2 20.5 9t23.5 16l21 18q9 8 13 12l67 81l57 72l54 72l60 84q6 8 16 25l20 32q10 15 20.5 26.5t18.5 11.5zM297 365v-5q0 -6 -13.5 -26.5t-30.5 -43t-34.5 -42t-23.5 -25.5 v2q0 14 10 35t25.5 41.5t33 38t33.5 25.5z" />
<glyph unicode="3" horiz-adv-x="931" d="M18 362q0 -35 22.5 -80.5t56.5 -92t73 -84t72 -56.5q35 -16 75.5 -24.5t79.5 -8.5q63 0 112.5 19.5t90.5 51.5t77 70l71 74q4 4 17 14.5t5 20.5q76 96 106.5 214t30.5 231v20q0 14 -1 30.5t-1 31.5v18q-27 125 -89 226.5t-195 166.5q-10 4 -34 10.5t-50.5 12.5t-46 11 t-19.5 9q0 10 15 19l24 12q4 4 19.5 14.5t19.5 14.5q41 31 81 66.5t71.5 76.5t51 86t19.5 94q0 33 -18.5 55.5t-48 37t-64.5 21.5t-68 7q-72 0 -139 -35l-121 -65l-32 -21l-48 -31l-47 -30q-23 -14 -30 -21q-4 0 -22.5 -12t-38.5 -28l-36 -28q-16 -13 -16 -16 q0 -27 15.5 -52.5t52.5 -25.5t53 20.5t39 41.5l78 59q47 35 101 67t110.5 54.5t103.5 22.5h33q18 -8 21 -15.5t3 -19.5q0 -49 -41 -103.5t-98 -103.5t-117.5 -88t-99.5 -57v-17q0 -49 41 -70.5t97.5 -31.5l115.5 -19.5t94 -35.5q49 -37 79 -83t45 -96.5t20.5 -103.5 t5.5 -107q0 -66 -27 -166t-79 -194t-131 -161.5t-181 -67.5q-43 0 -86 23.5t-79 59t-58.5 76.5t-22.5 76q0 14 11.5 20.5t25.5 10.5t25.5 11t11.5 24q0 16 -10.5 26.5t-34.5 10.5q-25 0 -49.5 -4.5t-45 -14.5t-34 -26.5t-13.5 -41.5z" />
<glyph unicode="4" horiz-adv-x="788" d="M569 92q2 -16 7.5 -33.5t14.5 -34t22.5 -26.5t31.5 -10q20 0 31.5 11t17.5 27.5t7 35t1 34.5t-13 44t-17 40q-16 109 -31.5 227.5t-15.5 231.5q0 37 15 47t36.5 14.5t46.5 16.5t43 55v68q0 27 -4 66.5t-11.5 81.5t-19.5 80t-29 60q-2 8 -5 32t-7 48.5t-7 47t-3 32.5 q0 2 -1 19.5t-1 27.5q0 35 5 67t5 66v33q-23 10 -34 21.5t-33 11.5q-12 0 -22.5 -1t-23.5 -9q-2 -4 -8 -22.5t-6 -24.5q-2 -4 -1 -19.5t1 -19.5q-2 -12 -7 -58.5t-10 -99.5t-10.5 -100t-5.5 -60q0 -14 -2 -52t-3 -81l-2 -82q-1 -39 -1 -53l-6 -12h-63q-16 0 -58.5 -2 t-89.5 -4.5l-88 -4.5t-57 -2h-11q-14 0 -18 15.5t-4 25.5q0 18 10 54l22 71q11 37 19 69t4 44q4 12 13 46l17 72q9 38 16 71.5l10 47.5q2 2 4 29t4 41v4q0 35 -21.5 52.5t-50.5 17.5t-40 -23.5t-15 -55.5t-4 -67q0 -33 -4 -53q-10 -53 -25.5 -106.5t-29 -106.5t-22.5 -107.5 t-9 -107.5q0 -45 11 -71.5t32.5 -41t51 -18.5t68.5 -4q59 0 117.5 4t118.5 4h59q31 2 35 -21.5t4 -41.5l20 -287q9 -139 29 -291zM647 1128q2 -8 6 -30l9 -47q4 -25 7 -48.5t3 -31.5v-60v-59q-8 -18 -14.5 -29.5t-28.5 -11.5v33q0 27 1 54.5t1 51.5v37q0 12 2 33.5t3 41 t2 35t1 17.5z" />
<glyph unicode="5" horiz-adv-x="907" d="M76 96q72 -43 143.5 -72.5t157.5 -29.5q100 0 187 45t150.5 118.5t100.5 167t37 187.5q0 88 -16.5 171t-63.5 157h-8q-47 45 -90 81.5t-89 63.5t-99.5 40t-120.5 13q-45 0 -87 -12t-88 -12q-10 0 -11 7t-1 13q0 47 22.5 80t73.5 43l230 141h8q6 4 22 13l32 17 q17 9 33.5 16.5t23.5 11.5q37 16 70.5 17t74.5 1q0 -18 -3 -36.5t-1 -33t11 -22.5t32 -8q20 0 35.5 15.5t25 38t13.5 46t4 41.5q0 23 -12.5 40.5t-32 28.5t-42 16t-42.5 5q-47 0 -97.5 -14t-91.5 -33q-12 -6 -44 -20l-67 -31l-68 -31q-32 -14 -44 -20h-4q0 18 7 32.5t7 34.5 q0 27 -15 43.5t-42 16.5q-12 0 -33.5 -1t-30.5 -16l-77 -159q-41 -84 -72 -158q0 -2 -4 -14l-9 -29q-5 -16 -11.5 -33.5t-8.5 -25.5v-5q0 -29 7.5 -58.5t22.5 -52t38.5 -34.5t58.5 -8q4 0 19.5 3t31.5 7l32 8q15 4 20 4q8 2 25.5 4.5t35.5 5.5t32.5 5t18.5 2q31 2 68 -9.5 t65 -23.5q117 -47 162 -136t45 -210v-57q0 -29 -4 -59t-14 -58.5t-29 -48.5q-10 25 -32.5 48t-51.5 23q-23 0 -63.5 -11t-67.5 -13l-109 -13q-74 -8 -150.5 -28.5t-134 -55t-57.5 -90.5q0 -23 18 -49.5t38 -40.5zM156 168q25 33 69.5 52.5t95 29.5t101.5 12t88 2h22 q14 0 28.5 -1t25.5 -1h12q10 0 24.5 -3t14.5 -5v-6q0 -2 -19 -21l-28 -28q-47 -43 -108.5 -69t-127.5 -26q-49 0 -106 11.5t-92 52.5z" />
<glyph unicode="6" horiz-adv-x="780" d="M20 477q2 -70 22.5 -154.5t60.5 -159.5t101.5 -125t147.5 -50q25 0 41.5 4t30.5 9l29 10q14 5 34 7q6 2 25 4l38 2l38 2q18 1 26 1q14 4 26.5 21.5t12.5 31.5q0 16 -21.5 25.5t-33.5 9.5l-1 3q-1 3 -1 5q0 4 11 19.5t27 33.5l30 37q14 18 20 29q41 74 56.5 138t15.5 150 v74q-16 43 -32.5 69.5t-53.5 57.5q-12 -4 -25.5 2t-26.5 6q-55 0 -110 -49t-98 -119.5t-70 -146.5t-27 -129q0 -57 20 -98l44 -91v-4v-4q-14 -4 -22.5 -6t-20.5 -2q-14 0 -21.5 2l-23.5 6q-59 47 -96 120t-46 149q-4 23 -0.5 34t-7.5 29q0 8 -1 36t-1 36q0 88 30 189.5 t77 202.5t104.5 192.5t114.5 158.5q25 29 54.5 51.5t55.5 51.5q0 4 1 10t1 10q0 29 -18 52.5t-49 23.5q-37 0 -77 -40t-79 -95.5t-71.5 -111.5t-55.5 -87l-149 -299q-18 -39 -30.5 -99.5t-16.5 -107.5q0 -12 -2 -31.5t-3 -40t-2.5 -37t-1.5 -18.5zM430 250q0 74 25 141 q6 16 27.5 54t47 77t53 69t50.5 30q8 0 13 -9.5t7 -15.5v-47q0 -113 -45 -214.5t-137 -172.5h-4q-12 0 -19.5 10t-11.5 24.5t-5 29t-1 24.5zM535 502q-6 0 -7 -8q0 -8 7 -9q6 0 6 9q0 8 -6 8z" />
<glyph unicode="7" horiz-adv-x="876" d="M485 80q2 -14 8.5 -30.5t15.5 -31t22.5 -24.5t29.5 -10q23 0 36 14t19.5 33.5t9.5 42t3 39.5v135q2 53 11 110.5t5 110.5l78 451q16 86 46 175l58 167l21 65q10 33 10 68q0 23 -22.5 46t-49.5 17l-268 -63l-16 -6l-262 -56q-23 2 -43.5 -3t-42.5 -5q-18 0 -37 4t-37 4 q-53 0 -53 -49q0 -35 21.5 -60.5t55.5 -25.5q49 0 103.5 7t103.5 16q12 4 23.5 12t23.5 4q14 4 54 13l82 20l80.5 18t54.5 12q4 2 23.5 5.5t23.5 3.5t12 -1t12 -1v-31l-9 -34l-21 -80l-27 -96q-14 -50 -22 -83q0 -2 -4.5 -11t-4.5 -11q-4 -16 -11 -54.5t-16 -81.5l-18 -82 q-8 -39 -10 -53q4 -20 -4 -52t-12 -42l-39 -373v-24q0 -6 -2 -22.5t-5 -36l-5.5 -37t-4.5 -23.5z" />
<glyph unicode="8" horiz-adv-x="1161" d="M23 338q0 -68 33.5 -121t90 -94t126 -68.5t142 -46t141.5 -27t120 -8.5q29 0 62.5 -1t60.5 10q57 18 117.5 53t109.5 82t81 105.5t32 125.5q0 68 -9.5 138.5t-31 137t-58 125t-92.5 103.5q-18 14 -43.5 26.5t-49.5 26t-40 31.5t-16 47q0 6 8 15.5t19.5 18.5t23.5 16t20 9 q57 47 92 99.5t35 126.5q0 72 -36.5 131t-94 101t-127 65.5t-135.5 23.5q-23 0 -49.5 -6t-53 -15t-50 -22.5t-41.5 -27.5q-41 -37 -82 -98.5t-74 -132t-53.5 -141.5t-20.5 -124q0 -98 52.5 -146.5t146.5 -39.5q-45 -47 -106.5 -102.5t-117 -118t-94 -132t-38.5 -145.5z M141 301q0 74 33 137.5t82 118.5t105 103l106 90l40 36l45 39t49 31t52 12q98 0 169 -36.5t117 -98t67.5 -142.5t21.5 -169q0 -78 -31.5 -142.5t-85 -111.5t-123 -73.5t-145.5 -26.5q-27 0 -75 6t-103 19t-112.5 32.5t-104.5 46.5t-77 58.5t-30 70.5zM299 993q0 55 22.5 129 t61.5 140.5t93 113.5t120 47h29q2 -2 15 -5t15 -3q20 0 31.5 4t20 12.5t15.5 17.5t21 21q27 -8 54.5 -25.5t49 -41t35 -52t13.5 -59.5q0 -47 -28.5 -89t-76 -80t-105.5 -68.5t-118.5 -53t-116 -35t-94.5 -12.5h-41l-16 17v22z" />
<glyph unicode="9" horiz-adv-x="741" d="M162 80q0 -35 21.5 -61.5t56.5 -26.5q33 0 57.5 31.5t40.5 73.5t29.5 84t25.5 65l73 126l73 125q35 62 66.5 126.5t56.5 136.5q23 68 36 136.5t13 139.5q0 127 -37 243t-139 202q-25 20 -66 41.5t-76 21.5q-88 0 -158.5 -38t-119.5 -99t-76 -140t-27 -159 q0 -78 17.5 -165t57.5 -161.5t105.5 -124t159.5 -49.5q47 0 82 21.5t70 50.5q-4 -27 -21.5 -60.5t-27.5 -50.5l-63 -106l-68 -117l-71 -118l-67 -109q-10 -8 -17 -17.5t-7 -21.5zM459 831q-16 0 -26 -17l-21 -40q-12 -23 -31 -43t-51 -26q-53 -10 -93 33.5t-68 107t-41 129 t-13 100.5q0 41 2 76t14 76q12 37 38 74.5t59.5 69.5t74.5 51.5t82 19.5q63 0 106.5 -40t69 -96.5t35.5 -121t10 -113.5q0 -92 -20.5 -175t-50.5 -169q-6 -16 -23 -31q2 10 2 33t-5 45.5t-17.5 39.5t-32.5 17z" />
<glyph unicode=":" horiz-adv-x="280" d="M20 526q0 -10 7.5 -22t9.5 -21q2 -16 7 -36.5t13.5 -39t21.5 -30.5t36 -12q20 0 44.5 12t46 30.5t36 41t14.5 45.5q0 63 -44 97t-101 34q-35 0 -63 -32t-28 -67zM18 989q10 0 16 -10l10 -22q5 -11 15.5 -20t32.5 -7q31 4 58.5 21.5t49 44t35 57t13.5 59.5 q0 35 -19.5 49.5t-52.5 14.5q-39 0 -78 -17q-12 -6 -25.5 -28.5t-25.5 -50t-20.5 -53.5t-8.5 -38z" />
<glyph unicode=";" horiz-adv-x="462" d="M45 205l70 -47q2 0 8 -1t10 -1q25 0 44.5 8t39.5 24q63 49 95 104.5t32 131.5v49q0 2 -2 13.5t-5 22.5l-6 21q-3 10 -3 15q-4 23 -6.5 48t-10.5 49t-23.5 40t-45.5 20q-2 0 -12.5 -4t-12.5 -4q-57 -14 -79.5 -45t-22.5 -90t28.5 -82.5t83.5 -23.5q0 -6 4.5 -25.5 t1.5 -26.5q-4 -16 -15 -37.5t-26.5 -41t-35 -33t-39.5 -13.5q-16 0 -29.5 4.5t-28.5 4.5q-14 0 -27.5 -5.5t-13.5 -21.5t10.5 -27.5t16.5 -25.5zM154 934q0 -12 12 -37t20 -37q4 0 15.5 -1t15.5 -1q20 0 57 17.5t74 41t64.5 49t27.5 44.5q0 4 -1 9t-1 7q-2 4 -15 15.5 t-15 15.5q-2 2 -6.5 11l-10.5 20.5t-10 20.5t-6 11q-8 16 -31 17h-37h-26q-4 -2 -19.5 -19.5t-19.5 -21.5q-4 -2 -28 -11.5t-28 -11.5q-2 -2 -8 -4t-8 -4l-10 -64q-6 -38 -6 -67z" />
<glyph unicode="&#x3c;" horiz-adv-x="780" d="M20 879q16 -25 51 -39.5t60 -32.5q49 -37 101.5 -72t102.5 -73.5t95 -81.5t80 -97q14 -23 32.5 -62.5t41 -78.5t51.5 -65.5t65 -22.5q39 4 47.5 16.5t8.5 46.5q0 23 -7.5 37.5t-18.5 24.5l-23 21q-12 11 -23 28q-66 102 -133.5 184t-165.5 156l-51 34l-66 44 q-33 23 -57.5 44t-24.5 36q0 14 9 24q2 4 11 13.5t19.5 18.5t19.5 18l13 14q16 14 44 27l55 28q28 14 53.5 29.5t38.5 34.5q8 4 27 16l43 27l43 26q19 12 28 17q12 6 36 23l48 37q25 19 42 39.5t17 35.5q0 80 -84 80q-16 0 -27.5 -9.5t-22.5 -22.5t-20.5 -26.5t-19.5 -21.5 l-166 -111q-33 -23 -95 -59.5t-123.5 -81.5t-108 -94.5t-46.5 -94.5v-34z" />
<glyph unicode="=" horiz-adv-x="534" d="M379 936q16 -8 31 -8h34q23 0 50.5 9t27.5 38q0 43 -33.5 73.5t-74.5 30.5q-47 0 -95.5 -12t-97.5 -12q-27 0 -50.5 4t-49.5 4h-43q-6 -4 -12.5 -7t-10.5 -9q-2 -4 -3 -16.5t-1 -16.5q0 -31 19.5 -54.5t54.5 -23.5h254zM344 1276q12 0 25 -6l24 -13q12 -6 24.5 -11 t24.5 -3q4 0 16 6l23 14q12 7 21.5 16t9.5 15q0 51 -28.5 83t-77.5 32q-12 0 -34 -6t-34 -8q-41 -10 -81 -13.5t-81 -3.5q-25 0 -46 4t-44 4q-20 0 -37.5 -4t-17.5 -26q0 -35 13 -52.5t34.5 -25.5t47.5 -9t52 -1q41 0 83 4t83 4z" />
<glyph unicode="&#x3e;" horiz-adv-x="741" d="M20 360q0 -18 10.5 -34.5t25 -28.5t31.5 -20.5t32 -8.5q33 0 49 18.5t23.5 43t12.5 51.5t15 45q27 47 69 86t90 70.5t99 60.5l98 53q18 10 39 17.5t40.5 15.5t36 20.5t26.5 32.5v4q0 18 -10.5 35t-25.5 31t-31.5 26.5t-27 22.5t-31 27.5t-24.5 19.5l-25 18q-19 13 -43 27 l-43 27q-19 12 -24 16q-53 37 -90 73l-84 85q-8 8 -27.5 29.5t-39 46t-34 48t-10.5 36.5q-18 23 -39.5 39t-52.5 16q-14 0 -22 -9t-11.5 -21.5t-3.5 -26.5v-21q0 -35 42 -92t98.5 -115.5t112 -107.5t81.5 -68q2 -2 11.5 -7t20.5 -12t20.5 -12.5t11.5 -7.5l23 -15l35 -24 l31.5 -23t14.5 -16q0 -4 -23.5 -22t-60.5 -44l-81 -55l-83 -58l-69 -50q-31 -23 -39 -33q-27 -29 -38 -59.5t-34 -58.5q-10 -12 -22.5 -20.5t-22.5 -16.5t-18.5 -21t-8.5 -33z" />
<glyph unicode="?" horiz-adv-x="661" d="M29 139q0 -14 1 -35.5t7 -41t17.5 -34t31.5 -14.5q27 0 53.5 13.5t48 35t33.5 48t12 53.5q0 25 -3 42t-11 46q-18 14 -40.5 26.5t-45.5 12.5q-18 0 -37.5 -18.5t-34 -43t-23.5 -50.5t-9 -40zM43 635q0 -31 21.5 -57.5t54.5 -26.5q29 0 54.5 20.5t29.5 51.5 q-10 25 -21.5 59.5t-20.5 71.5t-15.5 71.5t-6.5 61.5q0 55 29 84.5t70 48t89 32t89 38.5l20 20l31 31l31 30l20 21l39 42q20 22 38.5 46.5t31 52t12.5 56.5q0 43 -25 73q-14 14 -46.5 41t-70.5 53.5t-74 45t-56 18.5q-47 0 -95.5 -15.5t-93.5 -31.5q-18 -6 -45 -13.5 t-52.5 -17.5t-43 -28.5t-17.5 -49.5q0 -14 9.5 -26.5t23 -21.5t27.5 -14t26 -5q18 0 27.5 4t16 10t12.5 13.5t16 13.5q35 23 86 35t92 12q18 0 45 -8.5t51.5 -21.5t42 -29.5t17.5 -30.5q0 -23 -18.5 -50.5t-43 -54t-50 -49t-40.5 -33.5q-53 -37 -113.5 -56t-110.5 -44 t-83 -69t-33 -132q0 -53 16.5 -100t16.5 -100q0 -18 -5 -36t-5 -36z" />
<glyph unicode="@" horiz-adv-x="915" d="M20 827q0 -53 17.5 -109t48.5 -106.5t75 -90.5t97 -58q61 -23 124.5 -27t129.5 -4h86q31 10 54.5 16.5t43 13.5t38 18.5t38.5 31.5q4 2 17.5 11t15.5 12v12q0 29 -16.5 44t-43.5 15q-49 0 -91 -22.5t-87 -32.5h-92q-66 0 -129 14.5t-112.5 47t-80 86t-30.5 132.5 q0 72 44 157t111.5 159t147.5 123t152 49h45q49 -23 82.5 -58.5t53 -79.5t29 -94.5t9.5 -99.5v-63q-14 -43 -46 -74t-79 -31q-33 0 -49.5 16.5t-30.5 36t-33.5 36t-58.5 16.5q-18 0 -34 -8l-30 -14l-28 -14q-14 -7 -33 -7q0 4 -4 20.5t-2 22.5q4 20 15 46.5t26.5 51.5t36 42 t45.5 17q37 0 50 -18.5t18 -41t10 -40.5t28 -18q27 0 45.5 13t18.5 42q0 39 -16.5 68.5t-43.5 50t-60.5 31t-68.5 10.5q-43 0 -72.5 -19.5t-51 -50.5t-37.5 -68l-29 -69l-9 -8q-2 -4 -3 -19.5t-1 -23.5q0 -41 5.5 -74t21.5 -74q31 -25 59 -24q20 0 38 7t34 16l32.5 17.5 t35.5 8.5q16 0 21 -15.5t18 -25.5q33 -23 71.5 -42.5t79.5 -19.5q45 0 82 23.5t64.5 59.5t43 80t15.5 85v4q-2 31 -11.5 81t-5.5 85q-23 59 -48 116.5t-63 101.5t-89 72t-123 28q-49 0 -96 -26t-86 -54q-61 -45 -124 -101.5t-112 -122t-81 -141.5t-32 -158z" />
<glyph unicode="A" horiz-adv-x="980" d="M-61 -127v21q0 18 2 20q4 41 20 63.5t25 53.5l84 350l4 33q2 16 -4.5 26.5t-13.5 20.5t-14 22.5t-7 32.5q2 12 12 18.5t23.5 13.5t26 18.5t18.5 35.5l149 580q16 37 34.5 100.5t43.5 124.5t57 104q29 38 69 38q6 0 11 -1q43 -4 72 -34.5t47 -74.5t30.5 -93.5t24.5 -88.5 q-4 -10 -3 -28.5t5 -36.5t9.5 -35.5t9.5 -26.5l26 -360v-2q2 0 4.5 1t4.5 1q55 12 102 33l100 45q2 6 25 12q4 12 25 14q29 -4 50 12.5t50 16.5q10 16 25.5 18.5t23.5 22.5q4 4 4 -8q-4 4 -4 -2t-2 -8l70 -99q-4 -10 -13 -10q-6 0 -14 -4q-10 4 -15.5 -4t-15.5 -4 q2 -4 -1 -3t-5 3q-25 -16 -55.5 -29.5t-62.5 -23.5l-58 -19q-27 -8 -41 -14q-18 -8 -48 -23l-58 -27l-51 -23q-22 -9 -23 -9l-10 -10l-5 -49q-12 -101 -11 -202v-43q3 -122 7 -247q0 -2 1 -12.5t1 -12.5q2 -2 2 -14l-2 -14q-4 -25 -14 -40.5t-33 -12.5q-14 2 -25.5 17 t-19.5 36.5t-13 45t-5 40.5q6 117 15 231q4 45 4 90q0 70 -9 142q-2 2 -6 2h-6q-18 2 -47 -8.5t-60 -25.5l-60 -30q-30 -14 -52 -20q-12 -4 -40 -12.5t-60 -16.5l-59 -15l-40 -10q-4 -2 -11 -28.5t-15.5 -66.5t-16.5 -85l-15 -84l-13 -66q-5 -28 -5 -32l-13 -39l-19 -54 l-17 -53l-12 -38q-6 -25 -19 -44q-11 -18 -32 -18h-5l-4 2q-4 2 -17 10.5t-17 22.5zM193 586q0 -4 3 -6t5 -5h4h6q13 0 35 7q27 8 55 19l55 23q27 11 43 15q6 2 29 11l48 19l49 18q24 9 30 11q8 6 25.5 13.5t17.5 9.5t2 10t2 12q1 13 1 26q0 36 -8 78q-5 27 -5 51q0 27 6 50 q0 12 -2 40t-5 58.5t-7 57t-7 37.5q-2 18 -7 55t-14 79t-21.5 81t-28.5 60q-14 18 -29 18h-6q-18 -4 -41 -48q-23 -41 -46.5 -107.5t-47 -144t-45.5 -161.5l-42 -160l-34 -136q-14 -60 -20 -91zM1108 930l61 -92q12 14 13 30q0 29 -21 48q-16 15 -38 15q-7 0 -15 -1z" />
<glyph unicode="B" horiz-adv-x="1021" d="M106 49q0 41 19.5 81t44.5 73l15 20l10 13v546q0 8 -4 31l-6 47q-3 25 -5 47.5t-2 32.5q0 12 -6 41t-15.5 60.5t-21.5 59t-26 38.5q-12 -10 -20.5 -29.5t-25.5 -19.5q-27 0 -35 24.5t-8 44.5q0 51 56.5 97.5t134.5 80t156.5 53t126.5 19.5q104 0 156 -42t52 -146 q0 -59 -22.5 -107.5t-54 -93.5t-67.5 -87t-62 -87q39 -27 96 -47.5t94 -40.5q94 -51 157.5 -144.5t63.5 -203.5q0 -98 -60.5 -186.5t-151.5 -154t-195.5 -104.5t-190.5 -39q-23 0 -57.5 7.5t-66 22.5t-55.5 37.5t-24 55.5zM305 180q2 -41 9.5 -81t23.5 -79h22q37 0 71 11.5 t66 27.5l62 34q31 17 64 32l118 119q35 35 49.5 95t14.5 110q0 55 -24.5 101t-63.5 83t-87 63.5t-95 44.5q-16 6 -50 8.5t-68 8.5t-60.5 20.5t-26.5 42.5q0 23 7 34t19.5 17.5t25.5 11.5t26 17q33 29 67.5 66t63 78.5t48 87t19.5 92.5q0 96 -98 96q-18 0 -67.5 -9 t-102.5 -25.5t-100.5 -37t-59.5 -41.5q12 -16 37 -43.5t35 -50.5q20 -45 24.5 -105.5t8.5 -107.5q15 -137 14 -271v-34v-51q0 -127 8 -254q23 -10 29 -21.5t6 -29.5q0 -23 -14.5 -31.5t-20.5 -28.5z" />
<glyph unicode="C" horiz-adv-x="1073" d="M20 459q0 72 15.5 153.5t40 164.5t54.5 163l56 147q6 12 17 37l21 51l21 46q9 20 13 24q6 12 24 40l36 60q19 32 39 60.5t28 38.5q29 33 58.5 48t72.5 15h43q31 -12 51.5 -49t31.5 -83t15.5 -91t4.5 -74q0 -16 1 -56v-16q0 -32 -4 -65q-4 -41 -17 -72.5t-44 -31.5 q-39 0 -55.5 28.5t-16.5 63.5q0 14 7.5 29.5l16.5 33t17 38t8 46.5q0 10 -3 45t-11 72t-19.5 66.5t-29.5 29.5q-2 0 -5 -1l-3 -1q-74 -66 -127 -157t-94 -183q-2 -4 -8.5 -23.5t-8.5 -23.5q-2 -2 -4 -8t-4 -8l-119 -387v-8q0 -4 -8 -32t-8 -32v-72q0 -104 42 -185 t112.5 -137.5t162.5 -85t191 -28.5q57 0 115.5 8.5t97.5 55.5h80q10 0 24.5 -22.5t14.5 -33.5q0 -33 -25 -52t-58.5 -29.5t-69.5 -14.5t-60 -6q-8 0 -24.5 -1t-34 -3t-31 -3t-15.5 -1q-104 0 -216 36.5t-202 103.5t-148.5 161t-58.5 211z" />
<glyph unicode="D" horiz-adv-x="1110" d="M289 -45q0 2 1 4t1 4q20 47 33.5 73.5t13.5 74.5q0 66 -15.5 128t-23.5 126q-9 54 -9 108v10q1 59 1 119q0 16 -1 65.5t-3 116t-4 141t-4.5 140t-3.5 115t-1 65.5q0 14 1 38t-1 46.5t-10 42t-28 25.5l-160 39q-20 4 -38 27.5t-18 43.5t14.5 26.5t31.5 6.5 q35 0 75.5 -16.5t69.5 -24.5q4 -2 22.5 -5t24.5 -3q29 -2 40 -6t19.5 -8t17.5 -10.5t34 -14.5q133 -47 249.5 -110.5t202.5 -150.5t135.5 -205t49.5 -273q0 -61 -13.5 -115.5t-36.5 -114.5q-10 -6 -19 -20t-17.5 -30.5t-14.5 -33t-12 -26.5q-100 -154 -234.5 -270.5 t-289.5 -211.5h-19q-61 1 -61 64zM393 444q2 -2 6 -29l11 -67q6 -39 14 -85t18.5 -85t22.5 -64.5t27 -25.5h4q8 4 32.5 22.5t30.5 24.5q63 57 128 126t116 144.5t83 159.5t32 176q0 100 -32 186.5t-87.5 157t-131 127t-163.5 97.5l-70 31q-39 17 -74 18v-25q0 -6 1 -26.5 t3.5 -43t3.5 -42t1 -23.5q2 -93 2 -187.5t-2 -189.5q-1 -24 -1 -47q0 -167 25 -330z" />
<glyph unicode="E" horiz-adv-x="1150" d="M18 457q0 178 18.5 350t31.5 350v55q0 6 1 18.5t3 27t3 26.5t1 16q-2 2 -4 8.5t-4 8.5v4q0 6 3 30.5t9 51.5t16 45t27 10l63 -31q2 16 11.5 34t29.5 22q129 23 262.5 32t268.5 9q12 0 29 1h9q13 0 25 -2q16 -3 28.5 -12.5t12.5 -27.5q0 -31 -24.5 -45.5t-58.5 -19.5 t-66.5 -7t-48.5 -8q-10 0 -33 1t-47 1q-25 0 -48.5 -1t-31.5 -1q-4 0 -23.5 -3t-23.5 -5l-4 1q-4 1 -4 -1q-4 0 -9.5 -3t-7.5 -3v-5q0 -14 5 -26t5 -27q-31 0 -57.5 20.5t-58.5 20.5q-16 0 -33 -4t-35 -4q-23 0 -40 8t-23 31q-2 -12 -3.5 -25.5t-1.5 -27.5v-56q0 -27 -3 -51 t-15 -45q-12 -104 -18.5 -209.5t-22.5 -210.5l4 -2q2 0 3 1l20.5 4t19.5 3q2 0 3 1l1 1q2 0 3 -1l1 -1q2 0 8.5 -3t8.5 -3q6 -4 17 -6t16 -2q18 0 60 10.5t85 22.5l77 22q34 10 38 9l40 13l59 20l60 22q29 10 39 14q4 2 16.5 9.5t16.5 7.5l10 1q10 1 15 1q29 0 53 -12.5 t24 -43.5q0 -12 -21.5 -28.5t-55 -33t-72.5 -31.5t-75 -27.5t-61.5 -19.5t-31.5 -5q-10 -2 -33 -9l-47 -15l-47 -14q-23 -7 -31 -9l-48 -12q-15 -4 -40 -5q-78 0 -135 50l-8 -9q2 -25 2 -50q0 -38 -4 -76q-6 -62 -6 -126q0 -68 3 -148.5t24.5 -149t69.5 -115.5t138 -47 q82 0 156 28l149 58h9q8 4 34.5 19t34.5 20q12 6 38 21l54 33q29 17 53.5 29.5t36.5 12.5q35 0 58.5 -14.5t23.5 -51.5q0 -25 -13 -42t-33.5 -28.5t-45 -14.5t-45.5 -1l-118 -58q-60 -30 -122.5 -53.5t-128 -39t-131.5 -15.5q-6 0 -30.5 1t-32.5 1q-35 14 -68.5 19.5 t-64.5 28.5q-53 37 -83 101t-43 139t-16.5 149t-3.5 129z" />
<glyph unicode="F" horiz-adv-x="1056" d="M123 524l-39 420v39q-12 80 -13 165t-12 167q-4 35 -21.5 62.5t-17.5 60.5q0 8 3.5 24.5t8.5 32.5t12 30.5t15 18.5q8 0 33 -6t31 -8t10 -12q8 -14 14.5 -33t8.5 -19q6 0 25.5 -1t25.5 -1q98 0 191.5 26l185.5 54q14 6 54 20l84 28l83 29q39 13 55 19h27q8 0 21.5 -3 t25.5 -9t21 -14q8 -7 8 -16.5t-7 -25.5q-6 -15 -10 -20q-6 -8 -40 -28.5t-74.5 -42t-77.5 -39t-45 -17.5q-16 0 -25.5 12.5t-26.5 12.5h-12l-149 -47h-9l-221 -47h-16q-8 0 -21.5 -2t-26 -3t-22.5 -2l-10 -1l-6 -9q-2 -2 -2 -16v-18v-29q0 -23 2 -25q0 -14 3 -68.5t8 -116.5 t8 -116.5t3 -68.5q4 -53 6.5 -111.5t18.5 -112.5h12q12 0 19.5 2.5t23.5 6.5q57 20 121 45.5t129.5 47t132 37t127.5 15.5q8 0 30.5 -1t29.5 -1q10 0 21 -6t11 -19q0 -14 -16 -23t-37 -17l-40 -14q-19 -7 -25 -17l-72 -15l-309 -110q-27 -16 -66 -25.5t-61 -15.5 q-2 -2 -8.5 -7t-6.5 -10l-2 -2q0 -53 17.5 -105t23.5 -106q10 -92 28.5 -180t18.5 -180q0 -25 -17 -37t-40 -12q-16 0 -23.5 4t-21.5 27q-6 12 -10 41.5t-6 66.5l-5 72q-2 35 -4 55q-12 88 -29.5 164t-33.5 162v24z" />
<glyph unicode="G" horiz-adv-x="1114" d="M758 -31q-57 0 -112.5 -3t-113.5 -3q-104 0 -197 16.5t-163 59.5t-111 116.5t-41 190.5q0 70 10.5 177.5t35 228t63.5 243.5t96.5 221.5t134 160t175.5 61.5q68 0 117.5 -40t49.5 -112q0 -55 -53 -55q-29 0 -41 17.5t-20 38t-16.5 37.5t-28.5 17q-29 0 -54.5 -15 t-48.5 -32q-76 -53 -124 -137t-74 -172q-51 -174 -85 -331.5t-34 -336.5q0 -39 1 -67.5t23 -65.5q25 -41 76 -66.5t111.5 -38.5t119 -17.5t97.5 -4.5q18 0 55 -1h15l59 3q37 4 66.5 16.5t33.5 39.5l72 395q6 27 -3 42t-26.5 21.5t-39 7.5t-40.5 1q-49 0 -99 -8.5l-99 -17.5 t-97.5 -16.5t-93.5 -7.5q-31 0 -48 25t-17 51q0 14 4 23.5t20 13.5l389 47h37q117 0 170.5 -37t53.5 -149q0 -27 -6.5 -50.5t-2.5 -47.5q-35 -141 -61.5 -294t-26.5 -294q0 -25 5.5 -48.5t5.5 -50.5q0 -23 -17.5 -36t-38.5 -13h-8q-23 12 -39 37t-16 51v209z" />
<glyph unicode="H" horiz-adv-x="1159" d="M76 557q0 -6 2 -19.5t3 -28.5t3 -29.5t2 -20.5l6 -68q4 -45 11.5 -100t18.5 -111.5t27.5 -103.5t39 -77t51.5 -30q35 0 58.5 15.5t23.5 42.5t-7.5 41t-17.5 24l-22 22q-11 11 -19 29q-14 37 -23.5 88.5t-14.5 106.5t-7 109.5t-2 95.5v24l356 58q25 -4 56.5 -1t63.5 7 t62.5 10t55.5 8q0 -2 3 -5l3 -3q20 -20 20 -53v-53q0 -8 1 -39t3.5 -66t3.5 -65.5t1 -38.5q0 -12 -1 -42t-3.5 -63t-3.5 -62.5t-1 -41.5q-6 -4 -16 -22.5t-10 -26.5q-2 -12 8 -26.5t26.5 -28t34 -22.5t27.5 -9q57 0 72 63q0 2 -2 12.5t-3 23.5t-3 23.5t-2 12.5v51v82v84v49 q-2 66 -11.5 128t-9.5 128q0 10 14 10h11q4 0 8 4q209 35 328.5 67t165.5 55q31 16 32 28q0 6 -7 11q-22 15 -96 16q-5 0 -10 1q-73 0 -187 -15q-122 -15 -275 -50l-105 678l-9 44q-5 24 -16.5 43t-30 32.5t-46.5 13.5q-49 0 -49 -33q0 -8 5 -37.5t12 -63.5t15.5 -62.5 t16.5 -34.5l86 -547v-49q-84 0 -146.5 -3.5t-128.5 -13.5q-66 -6 -144.5 -19.5t-158.5 -13.5q-6 0 -15 -2t-11 11q-16 186 -20.5 367t-26.5 368q-2 10 -13.5 19.5t-25 16.5t-28.5 11t-24 4q-23 0 -32 -14.5t-9 -32.5v-27q0 -4 5.5 -28.5t5.5 -30.5q14 -147 26.5 -294.5 t12.5 -297.5v-18q0 -10 -1 -24.5t-1 -27.5v-18q-23 -8 -30 -19.5t-7 -29.5q0 -25 12.5 -43.5t32.5 -32.5z" />
<glyph unicode="I" horiz-adv-x="579" d="M186 102l-71 631v17l-86 702q-8 8 -9 14v17v30q0 18 19 19q23 0 58.5 -8t49.5 -33q0 -12 2.5 -42l5.5 -63.5t5 -64.5t2 -43q4 -49 17 -102q9 -36 9 -71q0 -16 -2 -32l72 -711q12 -74 19.5 -150.5t27.5 -148.5q6 -20 11 -34l11 -29q5 -14 7 -29.5t2 -36.5 q0 -10 -19.5 -30.5t-31.5 -20.5q-37 0 -55.5 25.5t-25.5 61.5t-9.5 72.5t-8.5 59.5z" />
<glyph unicode="J" horiz-adv-x="1226" d="M20 104q0 23 25 42.5t58.5 35t65.5 23.5t48 8q12 0 29.5 -2t34 -6t29 -14.5t12.5 -24.5q0 -23 -20.5 -32t-48.5 -15l-57 -13q-30 -6 -49 -20q4 -10 15.5 -13t26 -4t26.5 0t18 1q94 0 187.5 32.5t166 92t118 143.5t45.5 186q0 74 -16.5 144.5t-41 141.5t-52.5 138.5 t-50 134.5q-4 14 -16 50l-23 73l-24 74q-11 35 -15 49q-8 2 -8 10v17q0 8 -2 14t-13 6q-12 0 -31.5 -6t-39.5 -15l-41 -19l-33 -15q-6 -4 -19 -12l-28 -18l-26 -16q-11 -7 -13 -9q-20 -16 -27.5 -24.5t-31.5 -8.5q-16 0 -34 19.5t-18 37.5q0 29 18.5 50.5t44.5 39t54.5 29.5 t48.5 23q6 2 32 12l55 22l56 23q26 10 31 14q10 4 22.5 12.5t25.5 4.5q106 27 211.5 45t216.5 18q14 0 33.5 -3t37 -11t28.5 -21.5t11 -31.5q0 -23 -18.5 -43.5t-44 -37t-53 -26.5t-46.5 -10q-25 0 -35 9t-13 21.5t-4 22.5t-7 12q-8 -2 -36 -4t-36 -4q-14 -2 -38 -6l-48 -8 q-25 -4 -47 -11.5t-33 -15.5v-31q0 -61 20.5 -120.5t43.5 -116.5l59 -158q31 -80 56.5 -163t42 -165.5t16.5 -166.5q0 -98 -35 -179.5t-92 -156.5q-2 0 -8 -3t-8 -5l-56 -56h-8q-98 -59 -188 -93t-203 -34h-84q-25 6 -51.5 17.5t-48 28t-36 38.5t-14.5 53z" />
<glyph unicode="K" horiz-adv-x="1200" d="M203 -59l-80 417q4 29 -3 63t-11 64q-18 129 -21.5 253t-19.5 253l-32 269q-15 133 -16 268q0 12 2.5 31.5t22.5 19.5q29 0 49.5 -13.5t36.5 -35.5q16 -95 16 -190q0 -16 -1 -31q-1 -22 0 -45q0 -88 10 -177q8 -72 12 -142.5t10 -143.5q2 -2 4 -11.5t4 -11.5l4 -2 q8 0 36 33t59 74l57 78q27 37 35 47l43 51l75 88l74 88q35 41 45 51l33 32l51 50l51 50l33 34q6 18 22.5 28.5t35.5 10.5q31 0 50 -27.5t19 -56.5q0 -12 -3 -16l-13 -19q-18 -23 -37.5 -29t-42.5 -26q-125 -117 -232.5 -241t-211.5 -259q-4 -6 -17.5 -23.5t-13.5 -27.5v-4 q6 0 23 -2l36 -4q18 -2 36 -5t24 -6q100 -16 186 -77.5t153.5 -146.5t116 -183t74.5 -186q4 -10 12.5 -38t12.5 -34q4 -10 10 -11l12 -2q6 -1 11.5 -6.5t5.5 -19.5q0 -29 -22.5 -38t-45.5 -9q-16 0 -28.5 8t-22.5 23l-8 16l-9 16l-56 151q-26 67 -57.5 124t-75.5 110.5 t-112 112.5q-61 53 -128.5 70.5t-147.5 17.5h-72q-39 0 -71 -8v-17v-14l21 -214q11 -110 34 -214q16 -68 40.5 -139.5t24.5 -142.5q0 -43 -43 -44q-12 0 -26.5 9.5t-25.5 23t-16 30t-1 28.5z" />
<glyph unicode="L" horiz-adv-x="1114" d="M20 240v20l48 467l88 381v8q35 123 59 236q20 90 20 189q0 25 -2 50q6 18 21.5 28.5t34.5 10.5q41 0 52 -29.5t11 -64.5q0 -115 -24 -209l-54 -197q-35 -111 -63.5 -226.5t-46.5 -231.5q0 -4 -1 -16.5t-3 -27t-3 -27.5t-1 -15q-2 -12 -3 -27.5t-1 -34.5q0 -37 -13 -57 q-2 -10 -5 -38t-5 -57l-4 -58q-2 -28 -2 -38v-53q0 -25 -1 -56.5t4 -59t21.5 -47t51.5 -19.5q72 0 140.5 19.5t139.5 19.5h412q23 -10 44 -11t37.5 -5.5t27 -17.5t10.5 -46q0 -25 -11.5 -36t-44.5 -17q-2 0 -13 2t-17 6q-49 16 -108.5 23.5t-113.5 7.5q-76 0 -159.5 -5.5 t-157.5 -19.5l-36 -5q-22 -3 -42 -7l-35 -7l-14 -3l-16 -9q-2 0 -15.5 -1t-19.5 -1q-16 0 -46 1t-46 10q-35 16 -53.5 55t-27.5 84t-11.5 89t-2.5 73z" />
<glyph unicode="M" horiz-adv-x="1110" d="M90 172q0 156 13.5 310.5t13.5 312.5v120l-14.5 -5t-12.5 -3h-6q-20 0 -42 11.5t-22 33.5q0 31 13 66l26 73q14 38 26.5 76.5t12.5 77.5t-13 72t-13 69q0 43 11 67t58 24q23 0 39.5 -14.5t28.5 -34t22.5 -42t22.5 -36.5v-101l7 -8q7 -8 19 -19l22 -22q11 -10 17 -16 q35 -33 82.5 -58.5t94.5 -25.5q37 0 70.5 24.5t63 59.5t54.5 72.5t41 66.5l15 31l24 46l23 45l16 30q12 23 21.5 37t37.5 14q31 0 46.5 -11.5t24.5 -28t14 -38t11 -41.5v-170q0 -66 1 -137q0 -7 1 -13q0 -65 -10 -131v-57q0 -39 -2 -84t-2 -86v-57v-74q0 -45 2 -90t2 -80 v-39q0 -10 2 -38.5t4 -61.5t5.5 -63.5t5.5 -45.5q4 -41 24.5 -91t20.5 -91q0 -31 -10.5 -48.5t-51.5 -17.5q-27 0 -46 15.5t-32 34.5q-10 14 -13 25t-3 22v24q0 12 -2 29q-14 135 -23.5 267t-9.5 272q0 123 4 241.5t4 241.5v145l-55 -88q-29 -47 -63.5 -87t-79.5 -66.5 t-103 -26.5q-37 0 -89 11.5t-83 31.5q-29 16 -51 35.5t-51 32.5q-13 -120 -13 -239q0 -17 1 -34v-54q0 -108 -6 -218q-4 -86 -10.5 -171t-6.5 -175v-62l17 -35v-139q0 -20 -16.5 -26.5t-31.5 -6.5q-43 0 -64.5 28t-28.5 66q-6 33 -6 68q0 15 0.5 42.5t0.5 35.5z" />
<glyph unicode="N" horiz-adv-x="1280" d="M1042 18q-135 129 -249.5 280t-212.5 310l-9 8l-401 617h-8q-10 -102 -10 -197q0 -24 1 -48q2 -71 1 -147v-104q0 -10 -2 -57t-3.5 -101.5t-3.5 -101.5t-2 -57v-17v-10q0 -2 5.5 -9t5.5 -9t-5.5 -12.5t-5.5 -12.5v-55v-84q0 -23 2 -43.5t9 -40.5q4 -25 21.5 -47.5 t17.5 -48.5q0 -25 -19.5 -45.5t-46.5 -20.5q-25 0 -41 13.5t-33 31.5q-6 20 -11 50l-10 63q-5 33 -8.5 62.5t-3.5 52.5q-1 54 -1 107q0 134 8 266q10 185 10 374v221q-8 55 -13.5 112.5t-5.5 113.5q0 6 1 19t1 15l27 25l11 1q11 1 18 1q10 0 29.5 -5t40 -12.5t39 -17.5 t26.5 -18q4 -10 15 -35l25 -52l25 -53l17 -32q53 -106 123 -205q0 -10 8 -10q6 -14 25 -46l38 -67l39 -67q18 -32 29 -44l43 -62l77 -108l77 -107q35 -50 43 -65q2 -4 12 -21t12 -22q4 -4 16.5 -21t16.5 -22l39 -43l49 -53l42 -46q17 -19 17 -21l25 -17v25q0 39 -8 79 t-17.5 78.5t-14.5 78.5q-2 18 -2 37q0 22 3 44q-18 174 -30.5 338t-12.5 332v86q-2 6 1 17.5t7 17.5l5 1q5 1 10 1q27 0 41 -28t10 -52l41 -387q-2 -31 5 -59.5t3 -59.5l100 -625q4 -35 18.5 -64.5t14.5 -64.5q0 -33 -14.5 -54t-48.5 -21q-12 0 -28.5 7t-30 17t-24 24.5 t-10.5 28.5z" />
<glyph unicode="O" horiz-adv-x="1243" d="M20 461v-2q18 -117 49 -205t86.5 -146.5t143.5 -88t221 -29.5q119 0 232.5 41t201.5 116.5t141.5 179t53.5 230.5q0 76 -26.5 168t-72.5 186.5t-109.5 183.5t-137.5 157.5t-155 110.5t-163 42q-90 0 -147 -48t-105 -120q-66 -98 -106.5 -187t-64 -180.5t-33 -190.5 t-9.5 -218zM154 514q0 129 20.5 250t77.5 237q23 12 27 23.5t6 24t11 23.5t44 24q4 2 13 8l16 10q31 82 86 150h4q29 0 48 -18.5t48 -18.5q20 0 38.5 12t18.5 35q27 0 63 -27.5t70.5 -64.5t65.5 -76t47 -62q74 -111 121 -226.5t47 -244.5q0 -100 -44 -187t-117.5 -150.5 t-167 -100.5t-191.5 -37q-106 0 -175 30t-108 84t-54 131t-15 171z" />
<glyph unicode="P" horiz-adv-x="1114" d="M20 520q0 14 10.5 26.5t21.5 22t21.5 16.5t10.5 11l-4 381v24v39q0 20 -1 44t-1 44q0 23 -1 39.5t-1 24.5q0 4 -4 27.5t-4 27.5q0 18 6 27.5t15 14.5t20.5 9.5t21.5 12.5q20 14 37.5 29.5t35 27.5t38 20.5t49.5 8.5h14q14 0 32.5 1t37.5 1h31h22q16 0 34.5 -1t35.5 -1h22 q47 -14 91 -21.5t91 -25.5q55 -23 108.5 -61t96.5 -87t70 -107.5t27 -119.5q0 -92 -36 -165t-91 -142q-66 -84 -139.5 -134.5t-155.5 -78t-174.5 -36.5t-194.5 -9q0 -12 -1 -33t-1 -45q0 -23 3 -43.5t13 -32.5q2 -4 15.5 -9t15.5 -7q20 -14 38.5 -74t31 -131.5t19.5 -139 t7 -100.5q0 -16 -11 -34.5t-32 -18.5q-49 0 -83.5 57.5t-58.5 134t-36 152.5l-18 115q0 6 -3 28.5t-8.5 49t-8.5 50t-3 29.5q-2 16 0 40t-8 40q-6 10 -16 18l-22 15q-11 8 -18.5 19.5t-7.5 29.5zM203 516l8 -6q2 -2 27 -2h34q86 0 176.5 22.5t171 66.5t143 109.5t91.5 151.5 q10 33 20.5 60.5t10.5 62.5q0 84 -44 142.5t-109.5 94t-142.5 52t-145 16.5q-51 0 -94 -3t-74.5 -19.5t-51 -49t-21.5 -94.5v-168q0 -12 -3 -36.5t-5 -26.5l-9 -6l9 -9v-245q10 -25 10 -58v-30q0 -15 -2 -25z" />
<glyph unicode="Q" horiz-adv-x="1243" d="M850 35h-4q-35 -18 -61.5 -35.5t-54.5 -32t-58.5 -24t-71.5 -9.5q-59 0 -111.5 23t-101.5 55q-92 59 -161.5 142.5t-114.5 179.5t-68 199.5t-23 205.5q0 158 45.5 293t165.5 252l45 45q27 27 58 50.5t63.5 42t63.5 22.5q49 8 93 13t93 5q106 0 184 -40t133.5 -105.5 t90.5 -149.5t54 -174t26.5 -178t7.5 -160q0 -80 -9.5 -144.5t-31 -123.5t-57 -117.5t-89.5 -124.5v-8v-10q0 -4 4.5 -12.5t6.5 -10.5q6 -10 21 -33l35 -54l40 -60l37 -55l45 -71q14 -22 14 -54q0 -20 -18.5 -24.5t-38.5 -4.5q-10 0 -30.5 21.5t-46.5 53.5l-53 68l-52 69 q-25 32 -43.5 53.5t-26.5 21.5zM158 688q0 -72 14 -149.5t45 -150.5t78 -138.5t113 -112.5q29 -25 70.5 -55.5t84.5 -30.5q23 0 58.5 10.5t69.5 26.5t58.5 39t24.5 45v14l-15 29l-24 43l-22 43q-10 20 -13 31q-14 31 -32.5 63.5t-34 66.5t-26.5 69.5t-11 70.5q0 37 45 37 q43 0 67.5 -19.5t39 -49t22.5 -63.5t21 -63q16 -45 38 -88l45 -84q18 12 28.5 29.5t19 36t18.5 35t27 26.5q23 74 34 149t11 148q0 86 -7.5 183.5t-36 188.5t-85 165t-156.5 110h-10h-8q-4 -23 -12.5 -46t-23 -43.5t-35 -33t-48.5 -12.5q-29 0 -47.5 21.5t-40.5 21.5l-4 -2 q-2 0 -8.5 -6t-8.5 -10q-74 -86 -127 -175t-94 -190q-4 -8 -11 -32l-15 -52l-13 -48q-6 -22 -8 -21h-6q-12 0 -22.5 8t-16.5 16l-10 -8v-43z" />
<glyph unicode="R" horiz-adv-x="1490" d="M920 199l-287 137h-4q0 -10 -3 -44t-3 -59v-24q6 -43 19 -79t13 -77q0 -20 -19.5 -34.5t-35.5 -14.5q-39 0 -66.5 22.5t-27.5 61.5q0 6 -2 37t-3 65.5t-3 65.5t-2 37q-1 13 -1 27q0 22 2 47q1 8 0 16q0 31 -10 55q-6 25 -17 42l-20 33q-9 15 -16.5 33.5t-7.5 47.5 q0 6 1 22.5t1 20.5q14 18 36.5 29.5t22.5 35.5q0 109 -7 228t-19 223q-4 47 -22.5 86t-18.5 84v27q0 16 8 26q4 0 18.5 1t18.5 1q20 0 45 -3t37 -23q31 -55 35 -127t6 -133q0 -18 3 -68l6 -103l6 -104q3 -49 3 -67h8q4 0 26 13t49 33l56 40l48 34q43 33 89 78t85 97.5 t63.5 109.5t24.5 119q0 37 -25.5 60.5t-62.5 37.5t-76 21l-64 10q-16 2 -46 5l-59 6q-30 3 -53.5 5t-27.5 2h-143q-66 0 -132.5 -1t-132.5 -9q-6 0 -23 -3t-36.5 -6t-37 -5t-21.5 -2h-9q-33 0 -59.5 24.5t-26.5 57.5q0 27 27 45q16 2 59.5 6t92.5 8t92 7t61 5h90 q51 0 127 -1t159 -8t165 -23.5t146.5 -49t105.5 -85t41 -130.5q0 -41 -8.5 -81t-28.5 -78l-7 -11l-17 -24q-9 -14 -19 -28l-16 -21q-10 -12 -34 -43l-49 -61l-46 -52q-20 -23 -23 -18q-59 -66 -125 -110l-139 -95q-16 -12 -31.5 -19.5t-28.5 -23.5q0 -4 -1 -18.5t-1 -20.5 q0 -45 23.5 -71.5t64.5 -45.5l424 -197q41 -20 88.5 -63t86 -95t64.5 -108.5t26 -105.5q0 -23 -8.5 -43.5t-39.5 -20.5q-12 0 -26.5 3t-20.5 16q-4 2 -6 19.5t-2 21.5q-23 59 -59.5 114.5t-84.5 100.5t-104.5 78t-117.5 49z" />
<glyph unicode="S" horiz-adv-x="1110" d="M20 80v20q0 14 9 25l51 32l79 49l92 58l92 60l79 50q35 22 51 34q119 80 229.5 176t188.5 213q0 4 1 10t1 8q0 41 -64.5 59.5t-161 29.5t-208 22.5t-207.5 38t-160.5 76t-64.5 135.5q0 29 1 46t19 42q16 25 51 48t77 43.5t82 36t67 23.5q8 2 44 13l78 26l80 27 q37 12 45 16q2 0 9.5 4t9.5 4q10 2 26 6l33 9l30 7q13 3 17 3q4 1 9 0q11 0 24 -3q18 -5 34.5 -16.5t28 -24.5t11.5 -28q0 -29 -9.5 -42t-35.5 -27h-20q-55 0 -114 -10q-71 -11 -140.5 -33.5t-134 -54t-116.5 -68.5q-6 -4 -22 -17.5l-21 -17.5q-8 -4 -18 -13l-10 -10 q-3 -7 -3 -13q0 -22 35 -39q44 -22 103 -35t114.5 -20t69.5 -9q8 0 37 -4.5t62.5 -8.5t62.5 -8t35 -4h8q10 -4 36 -11l53 -15q28 -7 53.5 -15t35.5 -10q27 -10 57.5 -25.5t55 -36t41 -46t16.5 -58.5q0 -37 -13 -67.5t-34.5 -57.5t-46.5 -51l-49 -49q-98 -98 -203.5 -181.5 t-224.5 -158.5l-109 -75l-110 -75q-23 -14 -31 -18t-16 -33l-86 -41h-7q-35 0 -59.5 23.5t-24.5 56.5z" />
<glyph unicode="T" horiz-adv-x="964" d="M506 8q0 -35 25.5 -71.5t66.5 -36.5q51 0 51 51q0 25 -6 49.5t-10 48.5q-12 147 -22.5 291.5t-24.5 292.5v22l-64 539q-16 68 -27.5 148.5t-11.5 150.5v2q41 16 95.5 25.5t112 12.5t112.5 3h100q23 0 39 -2t39 -2q20 0 37.5 12t31 31.5t20.5 42t7 45.5q0 16 -6 17 q-2 0 -3 1q-5 0 -13 -3q-10 -3 -23.5 -8t-27.5 -1q-47 -5 -97 -5h-16q-57 1 -117 1q-57 0 -114.5 -3t-112.5 -15h-8l-207 -27q-18 4 -45 1t-56.5 -9t-57.5 -15l-48 -14q-2 0 -15.5 -1t-28.5 -5t-28.5 -10t-15.5 -19q-10 -6 -16.5 -3t-11.5 7t-7 6.5t-2 -6.5q0 -20 -1 -46 v-12q0 -18 2 -35q3 -22 11 -35t29 -7l63 17q8 4 25.5 7t37 7t38 7t26.5 7q23 10 49.5 -1t49.5 -11q12 0 19 -10t12.5 -23.5t7.5 -27t4 -19.5q2 -14 8 -40.5t13 -54.5l12.5 -51.5t5.5 -29.5q2 -6 4 -21.5t5 -34t5 -33.5t2 -22l86 -995q2 -2 2 -8v-12q0 -16 -5 -30t-5 -30z " />
<glyph unicode="U" horiz-adv-x="1081" d="M20 555q0 -98 19.5 -205.5t69 -198t135.5 -148.5t221 -58q72 0 147.5 21.5t144 59t122 91t79.5 119.5q27 70 31 138t4 140q0 37 -11 124t-32.5 195.5t-54.5 225.5t-77 214t-98 159.5t-120 62.5q-20 0 -31.5 -12.5t-16.5 -29.5t-6 -35.5t-1 -31.5q0 -16 10 -24t23.5 -11 t29 -1t27.5 4q16 -10 26.5 -27.5t20.5 -30.5q100 -174 141 -366.5t41 -384.5q0 -63 -5 -124t-24.5 -115t-57.5 -99t-103 -80q-59 -31 -107.5 -44t-113.5 -13q-68 0 -121 25.5t-90 68.5t-58.5 96t-25.5 109q0 12 3 33.5t-11 33.5q0 6 -2.5 24.5t-3.5 38t-3 38t-2 24.5v4v4 q10 129 25.5 256t38.5 252l25 132q13 67 14 132q0 39 -23.5 72t-75.5 33q-25 0 -39 -14.5t-22 -36t-11 -48t-3 -49.5q0 -37 -2 -47v-8q0 -10 10 -14q0 -10 1 -40t1 -40q0 -74 -9.5 -148.5l-19.5 -148.5l-19.5 -147.5t-9.5 -149.5z" />
<glyph unicode="V" horiz-adv-x="1013" d="M20 1171q0 27 10.5 49.5t45.5 22.5q18 0 40.5 -6t40 -19.5t24.5 -33t-3 -43.5q4 -8 13.5 -29.5t18.5 -46.5t18.5 -46.5t13.5 -29.5l60 -149l58 -152q2 -4 5.5 -15t3.5 -16q6 -20 23 -70l38 -108l39 -107q18 -50 27 -71q6 -16 17 -43t22 -43l8 14q2 4 8 37t13 76l15 87 l11 71q2 27 8 92t12 140t12.5 141.5t8.5 93.5q-2 2 -2 14q0 14 2 16q2 16 6 54.5t9 77.5l9 75q4 35 7 47l13 84q7 45 19.5 91.5t30.5 89.5t47 75q27 -2 41 -23.5t14 -43.5v-13q0 -4 -3 -15t-8 -24.5t-8 -24.5t-3 -13q-27 -121 -42 -236t-26.5 -228.5t-18.5 -229t-18 -234.5 q-4 -55 -14 -110.5t-21.5 -111t-19.5 -110.5t-8 -111q0 -18 4 -28t4 -27q0 -33 -22.5 -45t-51.5 -12q-4 0 -18 1t-18 1q-27 18 -35 47t-21 55q-98 223 -177 447.5t-171 447.5q-6 14 -25 47l-36 69l-34 66q-16 29 -16 39z" />
<glyph unicode="W" horiz-adv-x="1320" d="M20 1425q0 10 5.5 30t19.5 20h64q6 0 11 -6.5t9 -14.5t10 -16t17 -11v-22v-25q0 -4 -1 -19t-3 -31.5t-3.5 -32t-1.5 -19.5q0 -104 2.5 -215t9.5 -222.5t21.5 -220t38.5 -206.5q10 -12 7 -22.5t1 -24.5q16 -98 48 -173t79 -151q29 43 43.5 102.5t20.5 124t7 127t1 109.5 v37q0 23 -1 44t-1 38v18q-2 55 -16.5 106.5t-14.5 104.5v27q14 25 43 24h4q2 -2 8.5 -4t8.5 -4q10 -6 28.5 -18.5t18.5 -14.5l39 -213q-4 -25 8 -48t8 -48l103 -340q4 -12 15 -38.5t23.5 -52.5t25.5 -46.5t19 -20.5q16 0 41 40t50.5 102.5t50 137.5t44 143.5t31 121.5 t9.5 74l49 293q-4 14 0 28.5t6 26.5l11 74l14 93l11 83q5 37 5 43v18q0 20 -3 43t-3 33h-2l-72 -70q0 -2 -6 -2h-10q-18 0 -32.5 10.5t-14.5 30.5t15 49t38.5 55.5t49.5 47t48 22.5l9 -3q9 -3 14 -5q45 -18 59 -51t14 -74v-53q0 -14 -1 -38.5t-1 -29.5l-55 -387 q-16 -49 -24.5 -99t-13.5 -101l-10 -104q-5 -52 -15 -101q-4 -18 -18.5 -68.5t-36 -115t-48 -135t-56.5 -130t-59.5 -97.5t-58.5 -38q-55 0 -96 55.5t-69.5 122t-47 122t-29.5 55.5h-4q-8 -47 -14 -95.5t-17.5 -95.5t-31 -91t-49.5 -81h-35q-53 0 -83 35t-56 76 q-47 76 -77 161.5t-48.5 177t-29.5 183.5t-19 182q-14 129 -17.5 253t-13.5 253q0 6 -3 30.5t-6 52.5l-5.5 53.5t-2.5 31.5v20z" />
<glyph unicode="X" horiz-adv-x="1386" d="M963 -80q-6 8 -7.5 14.5t-1.5 14.5q0 20 14.5 23t35.5 3q-4 49 -34 88t-55 80q-23 35 -39 72t-40 70l-107 150l-106 151q-2 4 -8.5 9t-8.5 7h-4h-4q-41 -31 -73 -75l-60 -83l-28 -36l-34 -44l-28 -37q-12 -15 -15 -18q-4 -6 -14 -23l-22 -39l-24 -42l-17 -31 q-12 -23 -19.5 -43t-16.5 -37.5t-24.5 -28t-44.5 -10.5q-33 0 -53 33q-17 27 -17 52q0 19 17 34q16 14 22 25q35 55 65 111.5t71 109.5q10 14 49 57l81 91l74 89q33 41 33 52v4q-16 41 -50 82t-54 69q-78 111 -147.5 230.5t-145.5 236.5q-12 16 -29.5 32.5t-34 34t-28 37 t-11.5 42.5q0 14 25 21t31 7q4 0 19.5 -4t19.5 -4h8q31 -23 62.5 -68t61.5 -97l56 -103q27 -51 49 -88q18 -31 56 -87l75 -114q39 -57 71 -99t40 -42q2 0 3 1l1 1q27 18 47.5 44.5t38.5 56.5l37 57q18 28 45 47l118 169q58 87 87 187q6 4 20.5 10t18.5 6q12 0 29.5 -4 t32.5 -13t25.5 -22.5t8.5 -31.5q0 -2 -6 -14.5t-10 -16.5l-22 -35l-33 -53l-34 -53q-16 -25 -22 -33q-23 -16 -39 -49t-33 -56q-4 -6 -23 -30l-41 -53l-40 -52l-22.5 -31t-20.5 -26l-35 -44l-32.5 -44.5t-14.5 -26.5q0 -25 19.5 -41t27.5 -39l254 -364q12 -29 35.5 -51.5 t27.5 -51.5l103 -182v-55q0 -14 -23.5 -19.5t-34.5 -5.5q-35 0 -64 11.5t-60 27.5z" />
<glyph unicode="Y" horiz-adv-x="993" d="M662 14q0 33 3 71t7 76l8 73q4 36 6 65l15.5 305.5t7.5 304.5h-7q-53 -57 -113.5 -104t-139.5 -47q-115 0 -196 61.5t-132 153.5t-76 200.5t-25 204.5v23q0 12 3 43l4 64q2 34 5 64t5 42q-10 27 7 34t40 7h22q27 0 46.5 -19.5t19.5 -48.5q0 -55 -16.5 -112.5 t-16.5 -116.5q0 -55 16.5 -139t50.5 -162t87 -133.5t127 -55.5q59 0 112.5 44t94.5 106.5t66.5 130.5t31.5 117q0 6 1 21.5t3 33.5t3 35.5t1 27.5q0 18 -1 41t2 42.5t14.5 31.5t37.5 12q82 0 82 -73q0 -98 -12 -196.5t-18 -197.5q-10 -156 -11.5 -310t-5.5 -308 q-4 -78 -10 -157t-6 -156v-52q0 -2 4 -11t4 -11q-2 -18 -6 -37.5t-12.5 -36t-22.5 -27t-39 -10.5q-41 0 -56 25.5t-15 60.5z" />
<glyph unicode="Z" horiz-adv-x="1531" d="M20 4q0 31 26 81t67 110.5t90 124t98 120.5l90 103q41 45 66 67l53 52l82 76l81 76q38 36 54 50q66 43 122 101.5t116 111.5l27 26l47 42l47 42q22 19 28 25q29 27 50 56l46 63q8 16 9 37q0 8 -11.5 13t-29 8.5t-38 4.5t-36.5 1h-31h-45q-4 0 -21.5 -2t-37 -4.5t-39 -5.5 t-29.5 -5q-4 0 -16.5 -2t-26.5 -5t-27.5 -5t-17.5 -2q-16 -2 -34.5 0t-37.5 2q-18 0 -34.5 -3t-28.5 -15q-74 8 -142.5 17t-142.5 30q-23 8 -32 27.5t-9 41.5q0 29 7.5 39t41.5 10q41 0 73 -15t71 -23q2 0 19.5 -2.5t43 -4.5t39.5 -2h8q98 0 190.5 19.5t190.5 19.5h21 q18 0 37.5 -1t39 -3t29.5 -4q14 0 49 -6t71 -18.5t65.5 -30t35.5 -39.5q4 -11 4 -21q0 -16 -11 -28q-17 -18 -31 -39q-29 -35 -50.5 -72t-54.5 -69q-59 -66 -124 -119l-130 -113l-55 -55q-16 -16 -37 -30.5t-41 -33.5q-197 -178 -374 -366.5t-308 -417.5l-2 -4q0 -2 1 -3 l1 -1q0 -2 3 -5l3 -3h45q70 0 137 15q48 11 97 11l39 -2l430 55l15 6q15 5 36 11l41 12l33 10q27 10 51 25.5t51 15.5q39 0 73 -18.5t40 -61.5q2 -18 -30 -34.5t-81 -30.5t-109.5 -26.5t-115.5 -20.5l-99 -15l-57 -8q-154 -18 -301 -33l-301 -28q-23 4 -49.5 8t-49 13.5 t-38 26.5t-15.5 50z" />
<glyph unicode="[" horiz-adv-x="712" d="M162 272v4q0 2 2 12.5t5 22.5l6 24q3 11 3 17l-2 4q0 4 -3 28t-3 28q-2 20 -1 45.5t1 52.5q0 53 -16 92l-9 16q4 47 -2 90.5t-6 90.5q0 43 4 85t4 85q0 39 -4 92t-11 109.5t-17.5 108.5t-22.5 91q-6 14 -17 27l-22 23q-10 11 -18 23.5t-8 31.5q0 20 1 29t17 24 q2 2 26.5 6t62.5 11l81 14.5t80 12.5t62.5 9t27.5 4q10 0 26.5 -5t32 -12t26.5 -17.5t11 -20.5q0 -51 -41 -66q-8 0 -29 -1l-45 -2l-46 -2q-22 -1 -29 -1q-12 -2 -42 -8t-46 -16l-8 -9q0 -2 3 -11t5 -13l4 -6q4 -6 4 -9q0 -12 8 -43.5t8 -44.5q2 0 7.5 -38.5t10.5 -88 t9 -94.5t4 -55q4 -80 4 -166q0 -84 3 -169t13.5 -169t34.5 -162h25q59 0 114.5 20.5t114.5 20.5q10 0 25.5 -3t21.5 -13q0 -4 1 -18.5t1 -18.5q0 -27 -8 -42t-21.5 -25.5t-30.5 -18.5t-36 -20q-53 4 -111.5 -4.5t-111.5 -26.5q-10 -4 -29.5 -14.5t-32.5 -10.5 q-12 0 -24 11.5t-22.5 25.5t-17.5 29.5t-7 23.5z" />
<glyph unicode="\" horiz-adv-x="1105" d="M23 1526q-2 23 10 47t37 24q35 0 53 -8t28.5 -23.5t17.5 -38t19 -48.5l9 -17l13 -27q7 -15 15 -29.5t13 -21.5q10 -20 14 -23t8 -26l82 -128l84 -126q47 -66 104.5 -125t110.5 -120q66 -74 123 -154t123 -154q12 -12 31.5 -29.5t38 -38t30.5 -42t10 -41.5 q-2 -18 -15 -30.5t-30.5 -20t-37 -10.5t-31.5 -3q-10 0 -28.5 7.5t-23.5 17.5q-2 2 -1 11t1 11q-23 61 -61.5 112.5t-81.5 102.5q-35 41 -63.5 82t-63.5 84l-183 216q-91 105 -165 229q-4 8 -22 39l-37 67l-38 68q-17 31 -22 39l-17 23q-11 15 -22.5 34t-20.5 37.5t-11 32.5 z" />
<glyph unicode="]" horiz-adv-x="778" d="M33 338q0 23 14 38t33 25q6 0 20.5 -1t30.5 -1t30.5 1t20.5 1q4 0 13.5 3.5t11.5 3.5q53 14 107.5 23t105.5 26q27 6 34 43t7 71v41v27q0 4 -1 21.5t-3 37t-3 37t-1 21.5v6v2q0 2 4 5l4 3v33q0 14 1 70.5t3 122t3 123t1 71.5q0 6 -1 26.5t-3 45t-3 45t-1 26.5 q-2 33 -11.5 61.5t-13.5 63.5q-4 2 -12 5t-10 3h-8q-23 0 -46.5 -4t-46.5 -4q-37 0 -81 1t-83.5 11.5t-67.5 35t-32 71.5q10 6 16 14l10 17q5 8 13 13t25 5q41 0 84 -16.5t98 -16.5q49 0 98 4.5t99 4.5q33 0 49 -24t39 -40v-63l-9 -9q6 -33 11.5 -86t5.5 -79v-713 q12 -18 17 -59.5t5 -77.5v-41q0 -16 -3 -27.5t-13 -32.5q-20 -6 -55 -22q-66 4 -134.5 -5.5t-134.5 -27.5q-37 -10 -65.5 -24.5t-69.5 -14.5t-71.5 14.5t-30.5 65.5z" />
<glyph unicode="^" horiz-adv-x="1222" d="M526 1616h-4q-10 0 -39.5 -40t-69.5 -100l-85 -130l-85 -131q-40 -60 -72 -100t-44 -40q-35 0 -64.5 27.5t-29.5 66.5q0 8 9 20.5t21 25.5l25 26l18 19q2 2 9.5 11t14.5 20.5t14.5 20.5t9.5 11q2 0 4 3t4 5l110 166q23 16 43.5 48t36.5 54l18 25l22 33l21 30q9 13 11 15 q12 20 20.5 40.5t19.5 36t26.5 26t44.5 10.5q25 0 40 -11.5t24 -30t14 -39t8 -38.5l79 -144q12 -6 32 -40.5t41 -77.5l41 -84q19 -41 30 -60q33 -59 79 -113.5l87 -107.5q45 -25 71.5 -47.5t22.5 -79.5q-4 -35 -25.5 -45t-50.5 -10q-25 0 -44 15.5t-35.5 38t-31 47 t-26.5 42.5q-49 59 -93 123t-81 129q-6 10 -27 48l-45 83l-45 83q-20 38 -27 48q-2 4 -9 15l-14 21l-14 22q-8 10 -10 14z" />
<glyph unicode="_" horiz-adv-x="1490" d="M-39 109q0 -43 47 -66t109.5 -33t127 -11t99.5 -1h152q4 0 15 -3t15 -5h-8q18 12 50 17t67 5q39 0 71.5 -1t55.5 1q16 0 77.5 3t132 7.5t131 7.5t77.5 3q4 0 29.5 1t37.5 1q8 0 34 -1t32 -1q29 -10 68.5 -16.5t68.5 -6.5q41 0 61.5 15.5t20.5 56.5q0 35 -33 49t-78 19.5 t-89 4.5t-68 1h-17q-86 0 -164.5 -10.5t-160.5 -12.5q-16 0 -55.5 -1t-86.5 -1q-43 0 -82 1t-53 1q-78 -18 -160 -17t-159 1q-57 0 -116.5 3t-117.5 13q-27 4 -50.5 17.5t-55.5 13.5h-2l-12 -11q-9 -9 -11 -14v-30z" />
<glyph unicode="`" horiz-adv-x="458" d="M219 1442l-141 141q-8 18 -18.5 28.5t-18.5 20.5t-13 23.5t-5 36.5q0 27 24.5 35t44.5 8q31 0 52.5 -20.5t27.5 -51.5l150 -150q12 -12 15 -23t3 -28q0 -27 -17.5 -47t-48.5 -20q-16 0 -33.5 15.5t-21.5 31.5z" />
<glyph unicode="a" d="M567 242q-16 -37 -37.5 -79t-50 -78t-65.5 -59.5t-82 -23.5q-76 0 -134.5 35t-97.5 90t-59.5 122.5t-20.5 135.5q0 76 24 153.5t69 140t110.5 101.5t149.5 39q74 0 126 -39t52 -116q0 -14 -1 -39t-6 -48.5t-16.5 -41t-31.5 -17.5q-16 0 -28.5 6t-12.5 25q0 27 5 52.5 t5 51.5q0 33 -15.5 60.5t-50.5 27.5q-72 0 -123 -34.5t-85.5 -89t-51 -119t-16.5 -125.5v-68l28 -71q15 -38 36.5 -69.5t52 -53t73.5 -21.5q39 0 77 46t70 106.5t53.5 121t29.5 91.5q6 18 9 49t11 60.5t24.5 51t47.5 21.5q33 0 42 -27.5t9 -54.5q0 -59 -8 -118.5t-8 -121.5 q0 -88 6 -181t41 -175q4 -10 16 -34.5t17 -28.5q8 -12 23 -23l31 -20q15 -10 27.5 -22.5t12.5 -27.5q0 -25 -28 -34t-44 -9q-33 0 -61.5 27t-52 63.5t-39 75.5t-21.5 64q-6 23 -11 54l-10 67q-5 35 -7.5 68.5t-2.5 62.5z" />
<glyph unicode="b" horiz-adv-x="927" d="M20 86v16q0 16 5.5 33t21.5 17q29 0 38 -13.5t12 -30t4 -32t14 -19.5q2 2 2 13v14q0 45 -7 82l-18 88v37q0 27 -1 56.5t-1 55.5v37q0 217 9.5 426t9.5 426q0 51 -4.5 99.5t-4.5 97.5q0 23 16.5 37t39.5 14t45 -14.5t26 -42.5q0 -4 -3 -23.5t-5 -23.5q0 -18 -1 -64.5 t-3 -98.5t-3 -98.5t-1 -64.5v-51q0 -35 1 -75t1 -77v-49q20 0 37.5 11.5t40.5 11.5q45 0 84 -23.5t72.5 -57.5t61.5 -72l50 -69q2 -2 8 -12t8 -12l9 -8l69 -100q39 -54 73 -112.5t57.5 -120t23.5 -120.5q0 -80 -42 -130t-105.5 -78.5t-138.5 -39t-140 -10.5q-41 0 -101.5 4 t-119 20.5t-99.5 51.5t-41 94zM209 432v-22q0 -14 1 -28.5t1 -27.5v-12q0 -4 2 -21.5t5 -38t6 -38t3 -21.5q0 -10 2 -44t7.5 -70.5l10.5 -68.5t11 -38q6 -2 41 -2h43q45 0 107.5 5t119 24.5t95 56.5t38.5 98q0 39 -13 80t-33.5 79t-44.5 75l-44 67q-10 12 -36 46l-55 73 l-55 73q-26 34 -36 46q-16 12 -36.5 30.5t-43.5 18.5q-16 0 -25.5 -5t-21.5 -22q-39 -72 -44 -153.5t-5 -159.5z" />
<glyph unicode="c" d="M20 311q0 -84 20.5 -154.5t62.5 -121.5t106.5 -81t152.5 -30q14 0 56.5 7.5t96.5 20.5t113.5 31.5t108.5 40t82 45t33 48.5q0 16 -7 28.5t-24 12.5h-8l-127 -39q0 2 -3 7t-5 7q0 2 -4 2h-2q-2 0 -2 -2q-4 -27 -42 -45t-86 -30.5t-95.5 -18.5t-69.5 -6q-59 0 -116.5 16.5 t-90.5 69.5l-4 16q0 10 -10 15q-23 45 -24 77.5t-1 79.5q0 63 8 129t26.5 129.5t49.5 120.5t76 105q23 10 44 29.5t50 19.5q2 0 8 -3t8 -6q-2 -4 -2 -28q0 -16 11 -27v-96q0 -14 13 -30.5t28 -16.5q16 0 37.5 2t31.5 22q0 6 2 23.5t5 38l5.5 39t2.5 26.5l1 7q1 6 1 10 q0 25 -10.5 51.5t-29 48t-43 35.5t-51.5 14q-29 0 -57.5 -3t-54.5 -13q-16 -4 -28.5 -15.5t-29.5 -11.5v-12q-213 -250 -213 -584z" />
<glyph unicode="d" horiz-adv-x="1032" d="M686 125q2 -10 9 -34.5t17 -52.5l17 -51q8 -24 12 -32q6 -16 17.5 -31.5t29.5 -15.5q29 0 43.5 18.5t14.5 44.5v15q-2 4 -12.5 22.5t-12.5 22.5q-18 45 -36.5 99t-18.5 103q0 2 16 41l37 85l38 86q17 40 20 44v19q0 12 1 27.5t1 27.5v19q0 66 -11 125l-22 124v9 q-10 41 -19.5 73.5t-19.5 63.5t-23 62l-26 69l-33 80q-20 49 -47 95t-58.5 79t-68.5 33q-35 0 -45 -28t-10 -60v-39q0 -117 12 -217.5t29 -219.5q0 -4 3 -16t5 -16h-8q-35 0 -72 9t-74 9q-78 0 -144.5 -36t-117.5 -94t-80 -130t-29 -145q0 -74 12.5 -155t44.5 -148.5 t89 -110.5t147 -43q55 0 103.5 14.5t91.5 39t83 57.5l79 67h4h4q8 0 8 -8zM123 362q0 70 20.5 135.5t60.5 115t98 79t136 29.5q59 0 95 -37t36 -96q0 -16 -5 -28.5t-12 -24t-12 -22.5t-5 -26q0 -29 10 -38t23 -12l27 -6q13 -3 19 -19l21 -73q12 -44 12 -79q0 -14 -4 -18 l-20 -21q-59 -68 -139.5 -122t-174.5 -54q-4 0 -21.5 1t-21.5 1q-43 16 -70.5 53t-44 82t-22.5 93t-6 87zM598 1171v37q0 20 8 35q39 -51 73 -135t58.5 -177t39 -182.5t14.5 -146.5q0 -43 -4.5 -81t-20.5 -79q-6 -14 -18.5 -38.5t-14.5 -24.5h-6q-2 0 -6 12t-9 31l-11 37 q-5 18 -7 30q0 6 -2 27t-5 45.5t-5 45t-4 26.5q-25 139 -52.5 268t-27.5 270z" />
<glyph unicode="e" horiz-adv-x="927" d="M20 248q0 172 78 329.5t207 268.5q31 25 66 47t78 22q86 0 149.5 -48t63.5 -142q0 -37 -39 -84t-92.5 -92t-107.5 -79t-85 -44q-41 -16 -89 -24q-26 -4 -51 -3q-21 0 -42 2q-23 -35 -28 -76.5t-5 -82.5q0 -55 20.5 -106.5t75.5 -74.5q18 -8 24.5 -7t22.5 -9h68 q80 0 154.5 19.5t148.5 52.5q35 16 70.5 36.5t74.5 20.5q18 0 36 -12t18 -33q0 -33 -53.5 -65.5t-123 -59.5t-138 -43t-97.5 -16h-84q-154 0 -237 71.5t-83 231.5zM203 532q0 -16 6 -18t20 -2q29 0 83.5 23.5t107.5 59.5t92 78t39 77q0 63 -64 63q-35 0 -84 -30.5t-94 -74.5 t-75.5 -92.5t-30.5 -83.5z" />
<glyph unicode="f" horiz-adv-x="907" d="M289 -57q9 -11 20 -12h1q11 1 22 1h30q16 12 19.5 30t3.5 38q0 51 -18.5 104.5t-43.5 106.5l-51 104q-25 51 -36 101v6v4q18 2 57 5t87 9t98 16.5t91 26t68 37t27 51.5q0 49 -52 50h-10q-4 0 -15.5 -5.5t-15.5 -5.5l-28.5 -6t-38 -9t-34.5 -8t-19 -3q-61 -12 -115 -17 q-27 -2 -55.5 -2t-59.5 2l-18 -9q-14 -7 -19 -17q-16 29 -28.5 72.5t-21.5 92t-13 95.5t-4 84q0 88 40 162.5t100 128t133 84t140 30.5q31 0 52.5 -14t40 -30.5t37 -31t45.5 -14.5q47 0 47 55q0 37 -30 65t-70 46t-80 27.5t-60 9.5q-76 0 -142.5 -26.5t-133.5 -67.5 q-6 4 -14 -7l-7 -12q-43 -41 -79 -81t-61.5 -85t-40 -97t-14.5 -118v-43q29 -178 76 -335.5t119 -317.5v-12q0 -23 -11 -34t-11 -34v-16q29 -43 52.5 -84t43.5 -90z" />
<glyph unicode="g" horiz-adv-x="911" d="M-309 -313q0 14 6 34.5t16.5 41t24.5 35t31 14.5q16 0 36.5 -13.5t20.5 -29.5t-14.5 -34t-18.5 -34v-10q0 -12 23.5 -28.5t53.5 -30t58.5 -21.5t38.5 -6q45 -14 82 -24.5t73 -17.5t72.5 -10.5t79.5 -3.5q63 0 128 11.5t117 39t86 77t34 126.5q0 16 -5 48t-14.5 64 t-20.5 58.5t-24 32.5q-23 -1 -47 -1q-48 0 -99 3q-77 4 -146.5 26.5t-123 71t-75.5 132.5q0 2 -3 20t-6 39.5t-5 41t-2 28.5q0 86 26.5 163.5t77.5 137t124 95.5t165 36q31 0 61.5 -9.5t55 -28t39 -46t14.5 -62.5q0 -29 -8.5 -43t-19.5 -29.5t-19.5 -35t-8.5 -56.5 q0 -23 3.5 -66.5t9.5 -89.5t16 -88t27 -63q8 4 15 17.5l13.5 27t9.5 23.5t5 10q59 0 59 -63q0 -18 -8 -36t-19.5 -33t-19.5 -31.5t-8 -33.5q0 -35 10 -66.5t22.5 -65t22.5 -69.5t10 -75q0 -111 -65.5 -190.5t-165.5 -118.5q-29 -10 -62.5 -14.5t-64.5 -16.5h-18 q-12 0 -26.5 -1t-27.5 -1h-18q-88 0 -158.5 19.5t-152.5 37.5l-87 19q-50 10 -96.5 29.5t-78 51.5t-31.5 85zM170 352q0 -59 23.5 -105t62.5 -77t90 -46t107 -15h41q18 0 43 10q-27 86 -43.5 151.5t-20.5 147.5q0 2 -1 29.5t-3 64.5t-3 75t-1 62v6l-8 25l-8 25h-13 q-25 0 -47 -10.5t-43 -22.5q-92 -55 -134 -134.5t-42 -185.5z" />
<glyph unicode="h" horiz-adv-x="997" d="M741 -55q2 12 8.5 18t13.5 11.5t12 12.5t5 19q0 47 -17.5 114.5t-47 141.5t-69.5 146.5t-86 131t-95 94.5t-96 36q-31 0 -60.5 -29t-34.5 -63l-71 -549q-2 -14 -19.5 -20.5t-27.5 -6.5q-29 0 -47.5 30.5t-30.5 72.5t-18.5 85t-8.5 68q-23 217 -27 419t-4 419v379 q4 35 20.5 40t39.5 5q18 0 38.5 -11.5t20.5 -38.5v-6q0 -10 -3 -31.5t-6 -46t-5 -47t-2 -30.5v-275v-274q0 -8 1 -39t3 -68t3 -71.5t1 -49.5q0 -12 3 -41.5t5 -39.5q0 -2 3 -9.5t5 -9.5q10 53 20.5 116.5t32 119t58.5 93.5t102 38q39 0 76 -15.5t69 -40t61 -56.5l57 -62 q51 -61 98 -135t84 -156t58.5 -169t21.5 -173q0 -51 -14.5 -92t-67.5 -41q-25 0 -45 25q-17 21 -17 49q-1 6 0 12z" />
<glyph unicode="i" horiz-adv-x="425" d="M68 739v27q0 16 8 25h26h31q20 0 29 -9q10 -10 16 -34.5t8 -34.5q9 -72 9 -143v-28q0 -9 -1 -19q0 -75 15 -148q16 -86 22.5 -169t16.5 -169q2 -4 5 -16.5t3 -16.5v-4q0 -25 -10 -50.5t-45 -25.5q-23 0 -35 6.5t-21 30.5q-16 55 -16 109q0 57 -6 116q-12 123 -22.5 244 t-24.5 244q0 2 -4 18.5t-4 20.5v26zM20 1120v80q0 2 18.5 8t29.5 6q6 1 10 1q36 0 58 -24q26 -28 26 -67q0 -29 -4 -64.5t-13 -64.5q-6 -8 -14 -8h-16q-25 0 -37 15.5t-21.5 37t-17 44t-19.5 36.5z" />
<glyph unicode="j" horiz-adv-x="692" d="M-573 -535q0 37 13 75t60 38q25 0 43.5 -5t18.5 -34q0 -16 -10.5 -27.5t-22.5 -21.5q0 -4 -1 -16.5t-1 -16.5q0 -47 51 -71.5t117.5 -34.5t131 -11.5t91.5 -1.5q45 0 104.5 4.5t116 19.5t100.5 48t58 88v70q0 27 -6 63.5t-2 63.5l-72 411q2 17 2 35q0 26 -4 53 q-6 44 -6 87q0 92 11 180l22 176q2 16 14 39.5t33 23.5q37 0 50 -21.5t13 -51.5q0 -31 -6 -58.5t-10 -58.5q-4 -61 -10.5 -123.5t-6.5 -126.5q0 -129 19.5 -258t46.5 -258l15 -92q7 -45 8 -92q0 -96 -40 -161t-105.5 -103.5t-147.5 -54.5q-72 -14 -146 -13h-20q-12 0 -46 2 t-72 5t-72.5 5t-47.5 4q-49 4 -100 17.5t-92 39t-66.5 65.5t-25.5 99zM250 915q0 23 13 43.5t36 20.5q55 0 74.5 -22.5t19.5 -77.5q0 -16 -4 -22.5t-20 -20.5h-4q-47 0 -64.5 14t-42.5 49q-8 8 -8 16z" />
<glyph unicode="k" horiz-adv-x="894" d="M123 104q0 16 8 33q-6 66 -9 151t-13 156q-4 20 -19 33l-30 25q-15 12 -27.5 25.5t-12.5 37.5q0 33 28 65t44 52v49q0 137 -9 280.5t-32 280.5q-4 31 -14 66t-10 67q0 57 61 58q16 0 30.5 -12.5t20.5 -28.5q10 -23 8 -59.5t0 -59.5q2 -31 7.5 -59.5t9.5 -59.5 q4 -51 7 -101t3 -102q0 -104 21 -200h4q10 0 34.5 20.5t32.5 28.5q8 6 30 20l45 31l45 31q22 14 30 20q25 16 36 27.5t40 11.5t53 -18.5t24 -46.5q0 -25 -14 -38.5t-34.5 -20.5t-43 -12t-37.5 -13q-10 -6 -28 -19l-39 -26l-38 -27q-17 -12 -22 -16q-16 -12 -35.5 -28.5 t-37 -35t-28.5 -40t-11 -42.5q0 -4 1 -14t1 -14q14 -6 22 -11.5t31 -13.5q25 -6 58.5 -16.5t37.5 -14.5q45 -16 89 -49l79 -61q-4 -4 0 -8q70 -70 121 -143l109 -159q2 -4 15 -19t15 -19q0 -2 1 -7.5t1 -9.5q0 -18 -13 -28.5t-32 -10.5q-23 0 -35 12.5t-24 26.5 q-47 53 -94 123t-102.5 131.5t-121 104.5t-147.5 43q0 -47 -1 -95v-10q0 -42 7 -84q0 -10 3 -32.5t8.5 -47t8.5 -47t3 -31.5q2 -2 5 -15t3 -15v-21q0 -20 -11.5 -38.5t-35.5 -18.5q-16 0 -30.5 11t-26 28.5t-17.5 36t-6 32.5z" />
<glyph unicode="l" horiz-adv-x="468" d="M162 -14q-35 137 -52.5 280.5t-24.5 286.5t-11 287.5t-15 285.5q0 8 -3 46t-8 82t-8 82t-3 48v17q0 2 -4 11t-4 11q0 4 3 20.5t13 20.5h27q31 0 47 -13t28 -42q-1 -39 -1 -77q0 -77 6 -153q8 -114 18 -227v-47q0 -12 2 -64.5t5 -112.5t6 -112.5t3 -64.5q2 -29 6.5 -54.5 t2.5 -54.5l53 -393q0 -6 10 -8t22.5 -6t22.5 -13.5t10 -27.5q0 -29 -28.5 -42t-51.5 -13q-29 0 -43 12t-28 35z" />
<glyph unicode="m" horiz-adv-x="1064" d="M0 422q0 -27 8 -41t17 -39q8 -33 12 -99.5t12 -134t24.5 -119.5t49.5 -57q3 -1 6 0q8 0 17 3q13 5 26.5 12.5t24 17.5t12.5 17q0 2 -5 15l-11 29l-12 28l-7 18l-7 42q-5 30 -9 63.5t-10 63.5l-7 42q-8 45 -21.5 85t-13.5 87q0 27 3.5 82t15.5 110t37.5 97t73.5 42 q33 0 59.5 -31.5t49 -81.5t39.5 -111.5t29.5 -119t19.5 -105.5t9 -71q0 -8 1 -22.5t1 -32.5t-1 -32.5t-1 -22.5q20 -43 60 -43q18 0 38.5 6t20.5 28v177q0 23 6 77t17.5 110t29 101t39.5 50l11 -8l16 -11q14 -12 29.5 -34.5t27.5 -47.5l24 -48q11 -24 19 -38v-8 q37 -111 58.5 -234.5t44.5 -234.5q10 -16 22 -16h31h29q6 16 7 22t1 21v12q-4 27 -9 69l-11 83l-9 70l-4 30l-8 18q-2 12 -9 42l-16 64l-15 63q-7 30 -9 42q0 2 -9 19l-19 37l-22 43l-18 34q-10 18 -27.5 42t-40 44.5t-47 34.5t-47.5 14q-35 0 -60.5 -23.5t-44 -57 t-31.5 -69.5t-23 -61q0 -2 -3.5 -4t-3.5 -4q-18 37 -39.5 93.5t-50 108.5t-67.5 90t-90 38q-78 0 -120 -46t-63.5 -111.5t-29 -138.5t-13.5 -126q-4 -25 -9 -29t-5 -24z" />
<glyph unicode="n" horiz-adv-x="878" d="M20 180q0 35 10.5 49.5t47.5 14.5q0 33 1 91t6 126.5t17.5 140.5t35 130.5t56 95t82.5 36.5q25 0 45.5 -10t38.5 -23l36 -23q17 -11 36 -15q119 -113 198 -248t79 -303v-60q0 -4 -3.5 -12t-5.5 -10q-10 -23 -21 -52.5t-26.5 -57t-38 -45t-55.5 -13.5q-16 4 -24.5 17.5 t-8.5 27.5q0 29 12.5 54.5t28 52t28.5 56t13 68.5q0 66 -20.5 134.5t-55 130t-83 112.5t-105.5 84q-18 10 -29.5 17.5t-29.5 7.5t-36 -23.5t-31 -55.5t-21.5 -63.5t-10.5 -48t-5 -46.5t-5 -60.5t-4 -54t-2 -29.5v-373q-8 -39 -53 -39q-35 0 -54.5 23.5t-28.5 58.5 t-11.5 71.5t-2.5 65.5z" />
<glyph unicode="o" horiz-adv-x="862" d="M10 201q0 -43 2 -84t17.5 -73t48.5 -51.5t94 -19.5q29 0 62.5 1t56.5 8q100 23 181 58.5t136.5 87.5t85 124t29.5 166q0 43 -1 86t-17 86q-18 45 -51 94t-77.5 90t-97.5 68.5t-110 27.5q-41 0 -72 -18t-54.5 -45t-40.5 -58l-32 -59l-57 -117q-29 -59 -51.5 -120.5 t-37 -125t-14.5 -126.5zM131 113v61q0 145 55.5 269t135.5 247q6 12 11 28.5t11 30t17.5 23.5t29.5 10q29 0 44.5 -8t35.5 -26q78 -66 114 -135.5t36 -168.5q0 -82 -34 -148.5t-93.5 -112.5t-139.5 -71.5t-172 -25.5q-24 0 -51 27z" />
<glyph unicode="p" horiz-adv-x="786" d="M25 383v31l34 174q10 43 60.5 57t97.5 14h53q66 0 137.5 -18t132 -57t99.5 -96.5t39 -133.5v-4q-14 -84 -56 -132t-98.5 -78.5t-124 -53.5t-133.5 -53q-23 -10 -58.5 -28.5t-51.5 -41.5v-57q0 -98 8 -196.5t22 -196.5q0 -2 2 -12.5t6 -22.5l6 -24q3 -11 3 -13 q2 -23 -20.5 -35t-41.5 -12q-10 0 -22.5 1t-18.5 7q-14 12 -18 37.5t-6 42.5q-23 227 -28 449.5t-23 451.5zM139 315v-39q0 -23 1 -49l2 -52q1 -26 4.5 -45t9.5 -26q33 4 94 28t125.5 55.5t119 65.5t72.5 58q9 11 10 23q0 5 -1 15.5t-1 17.5q0 53 -27.5 92t-70.5 64.5 t-94 37.5t-96 12q-18 0 -45 -2t-51.5 -10t-42 -25.5t-17.5 -46.5v-4q0 -2 4 -8t4 -8q0 -6 1 -18.5t3 -26.5t3 -25.5t1 -15.5t-4 -24.5t-4 -24.5v-19z" />
<glyph unicode="q" horiz-adv-x="907" d="M606 63q-51 -39 -98 -66.5t-117 -27.5q-96 0 -159.5 35t-104.5 92.5t-63.5 131t-34.5 153.5q0 2 -4.5 8t-4.5 8v6q0 86 37 162t98.5 132.5t139.5 88t162 31.5q98 0 168.5 -31.5t132.5 -103.5q10 -10 20 -22.5t10 -28.5q0 -29 -13 -70t-17 -69l-37 -251q-18 -122 -19 -251 q0 -78 11.5 -168t27.5 -168q6 -29 22.5 -55.5t16.5 -55.5q0 -18 -14 -40.5t-37 -22.5q-37 0 -51 24q-4 4 -9 28t-7 28q-23 129 -38.5 251.5t-17.5 251.5zM123 377q0 -55 15.5 -112.5t46 -103.5t77.5 -76t113 -30q86 0 136 42t77.5 105.5t39 137.5t19.5 135v10q0 10 -9 18.5 t-9 20.5q0 18 17.5 45t17.5 62q0 31 -17.5 51t-43 32.5t-55.5 17.5t-56 5q-78 0 -144.5 -28.5t-117 -77.5t-79 -114.5t-28.5 -139.5z" />
<glyph unicode="r" horiz-adv-x="890" d="M20 238q0 8 2.5 32.5t6.5 30.5q4 10 15 13t19 3h5q2 0 8 -4t8 -4h4h4q18 47 27.5 98.5t27.5 100.5q14 43 40 103.5t63 117.5t84 97t102 40q39 0 91.5 -14t99.5 -42t80.5 -65.5t33.5 -87.5q0 -16 -9 -36.5t-30 -24.5q-18 -4 -26 7t-12.5 26.5t-5.5 31t-3 21.5 q-6 14 -33.5 29.5t-61.5 28t-65.5 20.5t-45.5 10q-23 2 -45.5 -14.5t-41 -39t-33.5 -45.5l-24 -36q-61 -111 -90 -222.5t-29 -236.5q0 -59 12.5 -117.5t12.5 -117.5q0 -23 -15.5 -32t-37.5 -9q-27 0 -46.5 28.5t-27.5 51.5q-23 53 -41.5 126t-22.5 132z" />
<glyph unicode="s" horiz-adv-x="931" d="M25 49q0 18 5 27.5t33 19.5q2 0 17 -4l32 -9q17 -5 34.5 -9t23.5 -4q2 0 30.5 2t70.5 7l89 11q47 6 88 13.5t69 17.5t28 20v4q0 8 -8 9q-68 33 -149 62.5t-151.5 70.5t-117.5 97t-47 140q0 39 31.5 78t82 76t113.5 68.5t128 55t124 37t102 13.5q16 0 44 -3t54.5 -11.5 t46 -22.5t19.5 -37q0 -41 -41 -62.5t-82 -21.5q-23 0 -33 23.5t-12 34.5h-10q-51 0 -127 -26t-146.5 -63.5t-121.5 -84t-51 -89.5q0 -29 16 -53t41.5 -44.5t55.5 -36.5l54 -27l91 -38l96 -40q49 -20 95 -44t87 -52q10 -12 10 -33q0 -20 -26 -43q-143 -39 -280.5 -67.5 t-291.5 -28.5q-45 0 -80.5 10t-35.5 57z" />
<glyph unicode="t" horiz-adv-x="968" d="M70 526q-29 16 -38 38t-9 54q0 14 8 20.5t17 11.5t18.5 12.5t11.5 21.5q10 61 14 112.5t19 116.5q14 72 37 139l49 132q6 12 9 32.5t8 40t14.5 33t27.5 13.5q29 0 53.5 -13.5t24.5 -46.5q0 -23 -16.5 -45t-24.5 -47l-80 -227q-41 -115 -41 -236q0 -2 1 -3l1 -1q0 -2 6 -8 l8 -8h41q53 0 107.5 8t109.5 8q8 0 41 -3t68 -10t62.5 -19.5t23.5 -30.5q-10 -33 -39 -33q-10 0 -37 -1l-55 -2q-29 -1 -54.5 -2t-35.5 -1q-4 0 -13.5 -1t-19.5 -3.5t-19.5 -3.5t-11.5 -1h-8q-20 -4 -50 -8t-57.5 -7t-46.5 -6l-20 -3l-8 -8q0 -2 -1 -12.5t-1 -24.5v-27v-20 q0 -102 11 -171t46 -111t100.5 -60.5t174.5 -18.5q59 0 117.5 16.5t115.5 41.5q23 10 38 24.5t42 14.5q25 0 47.5 -16.5t22.5 -43.5q0 -35 -48.5 -59.5t-112 -41t-122.5 -23.5t-84 -7q-145 0 -234.5 29.5t-136.5 92t-61 162.5q-11 77 -11 180q0 29 1 60z" />
<glyph unicode="u" horiz-adv-x="716" d="M29 580q0 4 3 9t5 7q0 8 2 30.5t5 48t6 48t3 31.5v22q0 23 4 41.5t27 24.5q35 8 57.5 -14.5t22.5 -53.5t-9.5 -58.5t-15.5 -56.5q-8 -33 -8 -79v-78q0 -55 3 -125t22.5 -132.5t60.5 -105.5t117 -43q57 0 93 24.5t56.5 64.5t28.5 89.5t8 96.5q0 86 -19.5 170t-60.5 157 q-2 2 -11 15.5l-20 31.5l-23 36l-17 28q-8 14 -16.5 26.5t-8.5 28.5q0 10 10 25q2 0 10.5 1t12.5 1q33 0 59.5 -24.5t48 -59.5t36 -71t22.5 -60q31 -86 51 -153.5t20 -155.5q0 -74 -11 -141.5t-42 -119t-86 -81t-143 -29.5q-100 0 -158.5 55t-87.5 135t-38 172.5t-11 165.5 v39q0 2 -4 8.5t-4 8.5z" />
<glyph unicode="v" horiz-adv-x="753" d="M18 809v20q10 6 19.5 7.5t19.5 1.5q20 0 49 -12.5t39 -28.5q2 -4 4.5 -30t4.5 -58l4 -64q2 -31 4 -45q0 -6 2 -19.5t5 -28.5t5 -28.5t2 -19.5q2 -6 8 -34t9 -36q2 -6 11 -40t21.5 -72.5t24.5 -70.5t18 -32h4l59 137q30 70 52 142q4 8 8 32.5t15 36.5l71 230q4 12 8 29.5 t10.5 34t15.5 28.5t24 12q53 0 53 -57v-15l-72 -229q-35 -123 -80 -237.5t-78 -237.5q2 -16 0 -36.5t-9 -39t-20.5 -31t-33.5 -12.5h-8q-25 4 -50.5 41t-48 91.5t-43 119t-37 126.5t-27.5 113.5t-15 77.5q-2 12 -6.5 35t-7.5 44.5t-6 38t-3 18.5q-6 27 -15.5 48t-9.5 50z " />
<glyph unicode="w" horiz-adv-x="1026" d="M20 180v146q0 94 8.5 186t8.5 184v37q0 2 -4 8.5t-4 8.5q4 25 16 33t35 8q29 0 48 -14.5t19 -49.5q0 -43 -10 -84t-14 -84q-2 -14 -5 -42t-5 -56.5t-3 -53t-1 -30.5q-2 -2 -3 -33v-47q0 -49 1.5 -99.5t23.5 -97.5q39 18 73 74.5t64.5 118t58 109t54.5 47.5 q43 0 72.5 -19.5t58.5 -52.5q10 -10 35 -40l52 -63l52 -61l35 -41l8 -8q6 -6 14.5 -12.5t14.5 -12.5t10 -6q4 -4 16.5 -10t14.5 -6q20 4 26.5 25.5t6.5 41.5v25q0 53 -11.5 101t-21.5 100l-32 158q-15 79 -38 159q-10 35 -33.5 68.5t-23.5 68.5q0 20 5 24.5t26 4.5 q25 0 45 -23.5t36.5 -56.5t29 -66.5t18.5 -52.5q2 -6 7 -30l11 -53q6 -28 12.5 -52l8.5 -31l8 -24l55 -301v-10q0 -4 -4 -33t-14.5 -60.5t-25.5 -58.5t-36 -27h-78q-23 25 -48 43.5t-48 42.5q-45 51 -97 117t-108 113q-8 8 -24 8q-12 0 -22.5 -11.5t-17.5 -26.5t-13.5 -31.5 t-10.5 -24.5q-35 -76 -73.5 -133.5t-100.5 -110.5q-8 -8 -20 -8h-23q-33 0 -54.5 19.5t-33.5 48t-18.5 61t-8.5 59.5z" />
<glyph unicode="x" horiz-adv-x="815" d="M317 287q-18 0 -28 -21.5t-19.5 -54.5t-16.5 -71t-16.5 -70.5t-23.5 -54t-37 -21.5q-29 0 -49.5 18.5t-20.5 48.5q0 16 8.5 25.5t16.5 26.5q18 37 24.5 81t22.5 85q10 27 34 54t24 56q0 2 -1.5 4t-1.5 4q-4 2 -12 16l-17 27l-16.5 26.5t-9.5 16.5q-18 27 -45 62 t-52.5 72.5t-43 75.5t-17.5 69q0 18 14.5 28.5t33.5 10.5q25 0 54.5 -41t60.5 -95l63 -107q31 -52 59 -75q2 2 4 5.5t4 3.5l12.5 13t20.5 25.5t19.5 25.5t11.5 15q6 6 18 21l27 30l25 27q11 12 15.5 16.5t15.5 14.5l25 21l24 22q11 10 16 14q2 2 12 9l23 17q12 9 25 17 t20 13q2 2 7 4t7 4l15 5l10 3l55 -39q2 -2 2 -8v-6q0 -12 -19.5 -31.5t-46.5 -40.5l-51 -38q-25 -17 -35 -28q-55 -51 -104 -107t-86 -122v-4v-4q14 -29 35.5 -54.5t44.5 -47.5q4 -6 24 -30l45 -50l45 -49q20 -23 27 -29l111 -111q2 -4 5 -8t3 -6v-4q0 -29 -14.5 -48.5 t-49.5 -19.5q-27 0 -49 18.5t-41.5 45t-36 54.5t-30.5 46q-6 6 -30 33l-49 58l-49 59q-24 27 -30 32l-16 17h-5z" />
<glyph unicode="y" horiz-adv-x="878" d="M272 -465q-154 47 -305 60.5t-311 13.5h-35q-25 0 -52.5 -1t-51.5 -1h-35q-86 -14 -177 -17.5t-171 -29.5q-6 -2 -19 -11l-24 -16l-23 -15q-10 -7 -14 -7q-35 0 -53.5 21.5t-18.5 53.5q0 20 27.5 34.5t64.5 25t74 16.5t55 8q25 2 70 6l90 9l82 7q37 3 45 3h141h144 q43 -10 83 -10q10 0 20 1q12 1 23 0q39 0 79 -8l452 -88q2 0 18.5 -2t40 -4t35.5 -2h9q63 0 83.5 40t20.5 93v66v65q0 41 -4 82t-14 97q0 2 -4 5l-3 3h-4h-4q-47 -16 -95 -20.5t-95 -16.5q-96 4 -149.5 38t-81 89t-36 128t-12.5 155q2 10 5 35l8 59q4 33 7 66.5t7 60.5 q6 25 5 43t1 30.5t7 19.5t24 11q25 0 48 -16.5t23 -42.5q0 -41 -9 -79t-15 -77q-6 -49 -7 -83t-1 -81q0 -59 5 -104t23.5 -76t54 -46t97.5 -15q18 0 46 3t56.5 9t54 17.5t37.5 27.5q-1 31 -1 61q0 91 10 181q12 119 39 241q14 25 30 25q25 0 50.5 -22.5t21.5 -49.5 q0 -4 -6 -28.5t-10 -34.5q0 -2 -3.5 -8.5t-3.5 -8.5q-14 -53 -20 -87t-6 -79q0 -4 1 -16t1 -16q33 -10 41 -49t8 -68q0 -6 -1 -15l-1 -10q-2 -6 -8 -19l-13 -29l-11 -28q-5 -13 -7 -20v-16q0 -12 -1 -25.5t-1 -26.5v-16q0 -72 9 -144.5t9 -146.5q0 -55 -7 -98t-27.5 -72.5 t-57.5 -46t-94 -16.5h-4q-59 6 -117.5 15t-114.5 24q-10 4 -23.5 12t-23.5 4z" />
<glyph unicode="z" horiz-adv-x="1267" d="M145 104q0 -47 32 -77.5t80 -47t105.5 -22.5t110.5 -6h117q92 0 180 4t180 4h109q0 -2 6 -5t8 -3q29 0 50.5 11t21.5 40q0 45 -29 63.5t-69 18.5q-129 0 -258.5 -12.5t-258.5 -12.5h-90q-4 0 -18 2t-33.5 4.5t-38 5.5t-28.5 5q-12 2 -26.5 5t-14.5 19q0 10 6 16l18 15 l130 98q73 53 137.5 115t109.5 133.5t45 153.5q0 43 -23.5 68.5t-57.5 41t-75 20.5t-73 5q-117 0 -225.5 -18.5t-221.5 -30.5q-14 -6 -31 -23q0 -4 -1 -14t-1 -14q0 -61 58 -62q35 0 67.5 9.5t67.5 17.5q135 25 276 24h19q14 0 29.5 -1t27.5 -1h21q14 2 26.5 -4t12.5 -22 q0 -45 -32 -90t-56 -74l-95 -94q-12 -12 -59 -46l-97 -71l-93 -69q-42 -32 -44 -44q0 -2 -1 -14.5t-1 -20.5z" />
<glyph unicode="{" horiz-adv-x="612" d="M334 281q-39 18 -93.5 38.5t-103.5 49t-84 68.5t-35 100q0 27 32 67.5t73 82.5t82 79t57 59q8 8 9 7t1 8q0 16 -24.5 22t-55 15.5t-55 31t-24.5 68.5q0 29 25.5 48t57 33.5t57.5 29t26 32.5q0 2 -29 15.5t-62.5 37t-62.5 57.5t-29 77v30q0 16 8 31q12 20 56.5 56t96.5 72 t99 61.5t68 25.5q41 0 55.5 -21.5t14.5 -56.5q0 -12 -30 -32.5t-68 -44t-76.5 -45t-57.5 -37.5l-39 -39v-17q0 -4 15.5 -19.5t23.5 -19.5q18 -10 54 -14t72 -11t62.5 -21.5t26.5 -43.5q0 -33 -19.5 -58.5t-46 -47t-54 -41t-46.5 -39.5q8 -14 23 -21l30 -12q15 -6 32.5 -15 t31.5 -32q0 -2 1 -7t1 -7q0 -31 -18.5 -65t-38.5 -54l-205 -221q-8 -8 -8 -25v-6q10 -16 30.5 -32.5t44 -30t48 -22.5t43.5 -11q14 -2 36.5 -4t42 -8.5t34 -18.5t14.5 -37t-27 -50.5t-49 -25.5q-2 0 -21.5 5.5t-21.5 5.5z" />
<glyph unicode="|" horiz-adv-x="534" d="M168 901q-2 -18 -2 -57t-1 -87t-2 -102.5t-2 -102.5t-2 -87t-1 -57q-4 -49 -4 -97q0 -47 -7 -94q0 -20 -4 -51t-2 -60.5t15.5 -52t46.5 -28.5q12 -2 27.5 0t30.5 8t25.5 15t12.5 22q2 14 -4 26.5t-8 24.5q-10 41 -11.5 84t-3.5 88q2 182 7.5 357t1.5 358l2 8 q-10 135 -3 262t13 266q0 2 -1 15.5t-1 27.5v27v16l20 119q-2 23 -22.5 34t-36.5 15q-6 2 -19.5 1t-26.5 -5t-24.5 -11t-13.5 -18q0 -12 2 -33.5t12 -33.5l-16 -391q-8 -14 -4 -35t4 -37l5 -77q3 -46 5 -93t0 -92t-8 -72z" />
<glyph unicode="}" horiz-adv-x="741" d="M156 358q0 20 11 47t30 37q18 8 29.5 11.5t20.5 6.5t19 8t25 15q41 25 98 63t92 79q4 4 10.5 13t6.5 11l-9 8q-6 2 -21 9l-34 13q-18 7 -33.5 14t-21.5 12l-55 19q-33 11 -66 29.5t-55.5 43t-22.5 57.5t21.5 56.5t50.5 43l57.5 37t44.5 37.5q-29 6 -55.5 9t-52 10.5 t-48 20.5t-40.5 40v4q0 49 30 74q8 8 30 26l45 39l45 38q22 17 30 24q10 23 32.5 36t39.5 27l1 3q1 3 1 5q0 10 -8.5 11.5t-16.5 5.5q-4 0 -20.5 5t-35 10t-34.5 10.5t-21 5.5q-37 6 -81 6q-45 0 -83 8t-63.5 31.5t-25.5 76.5q0 12 13 27.5t25 15.5h9q6 0 32.5 -5t57 -10 l58.5 -10t34 -5q27 -4 84 -14.5t115.5 -30t103.5 -47t45 -64.5q0 -31 -28.5 -64.5t-66.5 -67.5t-76 -63.5t-58 -52.5q12 -4 43.5 -9t63.5 -14.5t57.5 -21.5t25.5 -31q0 -47 -30.5 -84.5t-68.5 -66.5l-69 -50q-31 -22 -31 -36q0 -8 20.5 -17.5t51.5 -20.5l68 -26 q37 -14 67.5 -33.5t51 -43t20.5 -54.5q0 -33 -16.5 -61.5t-39 -53t-48.5 -44.5l-48 -37q-12 -10 -45 -34l-70 -50l-73 -50q-35 -24 -49 -32q-10 2 -26.5 7t-32 13.5t-26.5 19.5t-11 25z" />
<glyph unicode="~" horiz-adv-x="1024" d="M125 1616h-16q-8 -8 -10.5 -21.5t0.5 -27t10.5 -24.5t19.5 -15q86 45 168 40t165 -27l167 -44q84 -23 174 -14q6 4 14 3t14 5q6 -2 11.5 0l11.5 4q4 6 12 4t13 4q6 -2 9 1t7 3q4 4 6 4t6 5q6 -2 11.5 0t9.5 4q4 4 6 4t6 4q18 4 29.5 19.5t13.5 35t-5 37.5t-26 29 q-49 -2 -87 -33t-79 -55q-4 2 -6 -2.5t-6 -6.5q-86 -16 -168 8.5t-151 71.5q2 4 -4.5 5t-4.5 8q-39 31 -78.5 29.5t-81.5 -13.5t-82 -28.5t-79 -16.5z" />
<glyph unicode="&#xaa;" d="M567 242q-16 -37 -37.5 -79t-50 -78t-65.5 -59.5t-82 -23.5q-76 0 -134.5 35t-97.5 90t-59.5 122.5t-20.5 135.5q0 76 24 153.5t69 140t110.5 101.5t149.5 39q74 0 126 -39t52 -116q0 -14 -1 -39t-6 -48.5t-16.5 -41t-31.5 -17.5q-16 0 -28.5 6t-12.5 25q0 27 5 52.5 t5 51.5q0 33 -15.5 60.5t-50.5 27.5q-72 0 -123 -34.5t-85.5 -89t-51 -119t-16.5 -125.5v-68l28 -71q15 -38 36.5 -69.5t52 -53t73.5 -21.5q39 0 77 46t70 106.5t53.5 121t29.5 91.5q6 18 9 49t11 60.5t24.5 51t47.5 21.5q33 0 42 -27.5t9 -54.5q0 -59 -8 -118.5t-8 -121.5 q0 -88 6 -181t41 -175q4 -10 16 -34.5t17 -28.5q8 -12 23 -23l31 -20q15 -10 27.5 -22.5t12.5 -27.5q0 -25 -28 -34t-44 -9q-33 0 -61.5 27t-52 63.5t-39 75.5t-21.5 64q-6 23 -11 54l-10 67q-5 35 -7.5 68.5t-2.5 62.5z" />
<glyph unicode="&#xad;" horiz-adv-x="821" d="M25 1143q0 -29 6 -51.5t35 -28.5q117 -25 234.5 -31t234.5 -16q41 -4 86 -14.5t86 -10.5q23 0 40 1t39 7q4 6 10.5 31t6.5 33q0 35 -25.5 60.5t-60.5 25.5q-23 0 -46.5 -7t-45.5 -7q-31 0 -62 2t-61 6q-14 0 -49 2t-74 5t-74 5t-49 2q-37 12 -80 22.5t-82 10.5 q-16 0 -33.5 -3t-33.5 -13q0 -4 -1 -15.5t-1 -15.5z" />
<glyph unicode="&#xb2;" horiz-adv-x="907" d="M483 412q31 0 64 -21.5t62.5 -52.5t51 -64.5t31.5 -58.5t22.5 -76t28 -103t35 -91t45.5 -39q23 0 41.5 18.5t18.5 40.5v4q-4 12 -14 45l-20 70l-22 70q-10 33 -16 45q-16 43 -43 92t-61.5 93t-76.5 79t-87 51v4q0 23 15 44.5t24 39.5q2 6 15 34l29 60l27 61q12 28 17 36 q37 86 60.5 178t41.5 184v8q0 8 4 38t8 66t8.5 65.5t4.5 37.5v103q0 33 -1 86t-13.5 104t-40 89t-83.5 38q-61 0 -124.5 -44t-123 -106.5t-109.5 -130t-83 -116.5q-18 -23 -29.5 -35t-11.5 -41q0 -14 9.5 -44t23.5 -38h27q33 0 46 10t18 26.5t9 38t19 44.5q10 18 33.5 49 t53.5 65l63 72q34 37 66 65.5t60.5 47t46.5 18.5q12 0 19.5 -29.5t10.5 -66.5t5 -72t4 -47q-2 -113 -19.5 -226.5t-43.5 -223.5q-35 -119 -85 -244t-128 -223q0 -2 -3 -4.5t-5 -4.5q-43 -8 -85 -23t-81 -40h-9l-7 -6q-7 -6 -16 -15.5l-17.5 -18.5l-14.5 -15 q-35 -41 -57.5 -87t-40 -94.5t-30.5 -98.5t-30 -99q2 -8 9.5 -22.5t16.5 -28t21.5 -22.5t24.5 -7q8 2 20.5 9t23.5 16l21 18q9 8 13 12l67 81l57 72l54 72l60 84q6 8 16 25l20 32q10 15 20.5 26.5t18.5 11.5zM297 365v-5q0 -6 -13.5 -26.5t-30.5 -43t-34.5 -42t-23.5 -25.5 v2q0 14 10 35t25.5 41.5t33 38t33.5 25.5z" />
<glyph unicode="&#xb3;" horiz-adv-x="931" d="M18 362q0 -35 22.5 -80.5t56.5 -92t73 -84t72 -56.5q35 -16 75.5 -24.5t79.5 -8.5q63 0 112.5 19.5t90.5 51.5t77 70l71 74q4 4 17 14.5t5 20.5q76 96 106.5 214t30.5 231v20q0 14 -1 30.5t-1 31.5v18q-27 125 -89 226.5t-195 166.5q-10 4 -34 10.5t-50.5 12.5t-46 11 t-19.5 9q0 10 15 19l24 12q4 4 19.5 14.5t19.5 14.5q41 31 81 66.5t71.5 76.5t51 86t19.5 94q0 33 -18.5 55.5t-48 37t-64.5 21.5t-68 7q-72 0 -139 -35l-121 -65l-32 -21l-48 -31l-47 -30q-23 -14 -30 -21q-4 0 -22.5 -12t-38.5 -28l-36 -28q-16 -13 -16 -16 q0 -27 15.5 -52.5t52.5 -25.5t53 20.5t39 41.5l78 59q47 35 101 67t110.5 54.5t103.5 22.5h33q18 -8 21 -15.5t3 -19.5q0 -49 -41 -103.5t-98 -103.5t-117.5 -88t-99.5 -57v-17q0 -49 41 -70.5t97.5 -31.5l115.5 -19.5t94 -35.5q49 -37 79 -83t45 -96.5t20.5 -103.5 t5.5 -107q0 -66 -27 -166t-79 -194t-131 -161.5t-181 -67.5q-43 0 -86 23.5t-79 59t-58.5 76.5t-22.5 76q0 14 11.5 20.5t25.5 10.5t25.5 11t11.5 24q0 16 -10.5 26.5t-34.5 10.5q-25 0 -49.5 -4.5t-45 -14.5t-34 -26.5t-13.5 -41.5z" />
<glyph unicode="&#xb9;" horiz-adv-x="272" d="M23 465q0 -6 2 -27.5t5 -47t6 -47t3 -28.5q2 -31 10 -79t22.5 -97t33 -90t42.5 -55h21q16 0 27.5 1t31.5 7q4 37 14.5 76t10.5 76q0 20 -11.5 27t-25.5 12.5t-27.5 11.5t-15.5 24l-25 142v24q0 25 -1 54.5t-1 60.5v49q0 242 12.5 482.5t22.5 482.5q0 2 1 13t3 23.5 t2 22.5v12q-2 25 -25.5 44.5t-45.5 19.5q-35 0 -62 -17v-26q0 -20 1 -33.5t7 -34.5v-20q0 -12 1 -28.5t1 -31.5v-18q0 -209 -14 -414t-18 -413q0 -6 -1 -30t-3 -49.5t-3 -49t-1 -29.5z" />
<glyph unicode="&#xba;" horiz-adv-x="862" d="M10 201q0 -43 2 -84t17.5 -73t48.5 -51.5t94 -19.5q29 0 62.5 1t56.5 8q100 23 181 58.5t136.5 87.5t85 124t29.5 166q0 43 -1 86t-17 86q-18 45 -51 94t-77.5 90t-97.5 68.5t-110 27.5q-41 0 -72 -18t-54.5 -45t-40.5 -58l-32 -59l-57 -117q-29 -59 -51.5 -120.5 t-37 -125t-14.5 -126.5zM131 113v61q0 145 55.5 269t135.5 247q6 12 11 28.5t11 30t17.5 23.5t29.5 10q29 0 44.5 -8t35.5 -26q78 -66 114 -135.5t36 -168.5q0 -82 -34 -148.5t-93.5 -112.5t-139.5 -71.5t-172 -25.5q-24 0 -51 27z" />
<glyph unicode="&#xc0;" horiz-adv-x="980" d="M397 1718l-141 141q-8 18 -18.5 28.5t-18.5 20.5t-13 23.5t-5 36.5q0 27 24.5 35t44.5 8q31 0 52.5 -20.5t27.5 -51.5l150 -150q12 -12 15 -23t3 -28q0 -27 -17.5 -47t-48.5 -20q-16 0 -33.5 15.5t-21.5 31.5zM-61 -127v21q0 18 2 20q4 41 20 63.5t25 53.5l84 350l4 33 q2 16 -4.5 26.5t-13.5 20.5t-14 22.5t-7 32.5q2 12 12 18.5t23.5 13.5t26 18.5t18.5 35.5l149 580q16 37 34.5 100.5t43.5 124.5t57 104q29 38 69 38q6 0 11 -1q43 -4 72 -34.5t47 -74.5t30.5 -93.5t24.5 -88.5q-4 -10 -3 -28.5t5 -36.5t9.5 -35.5t9.5 -26.5l26 -360v-2 q2 0 4.5 1t4.5 1q55 12 102 33l100 45q2 6 25 12q4 12 25 14q29 -4 50 12.5t50 16.5q10 16 25.5 18.5t23.5 22.5q4 4 4 -8q-4 4 -4 -2t-2 -8l70 -99q-4 -10 -13 -10q-6 0 -14 -4q-10 4 -15.5 -4t-15.5 -4q2 -4 -1 -3t-5 3q-25 -16 -55.5 -29.5t-62.5 -23.5l-58 -19 q-27 -8 -41 -14q-18 -8 -48 -23l-58 -27l-51 -23q-22 -9 -23 -9l-10 -10l-5 -49q-12 -101 -11 -202v-43q3 -122 7 -247q0 -2 1 -12.5t1 -12.5q2 -2 2 -14l-2 -14q-4 -25 -14 -40.5t-33 -12.5q-14 2 -25.5 17t-19.5 36.5t-13 45t-5 40.5q6 117 15 231q4 45 4 90q0 70 -9 142 q-2 2 -6 2h-6q-18 2 -47 -8.5t-60 -25.5l-60 -30q-30 -14 -52 -20q-12 -4 -40 -12.5t-60 -16.5l-59 -15l-40 -10q-4 -2 -11 -28.5t-15.5 -66.5t-16.5 -85l-15 -84l-13 -66q-5 -28 -5 -32l-13 -39l-19 -54l-17 -53l-12 -38q-6 -25 -19 -44q-11 -18 -32 -18h-5l-4 2 q-4 2 -17 10.5t-17 22.5zM193 586q0 -4 3 -6t5 -5h4h6q13 0 35 7q27 8 55 19l55 23q27 11 43 15q6 2 29 11l48 19l49 18q24 9 30 11q8 6 25.5 13.5t17.5 9.5t2 10t2 12q1 13 1 26q0 36 -8 78q-5 27 -5 51q0 27 6 50q0 12 -2 40t-5 58.5t-7 57t-7 37.5q-2 18 -7 55t-14 79 t-21.5 81t-28.5 60q-14 18 -29 18h-6q-18 -4 -41 -48q-23 -41 -46.5 -107.5t-47 -144t-45.5 -161.5l-42 -160l-34 -136q-14 -60 -20 -91zM1108 930l61 -92q12 14 13 30q0 29 -21 48q-16 15 -38 15q-7 0 -15 -1z" />
<glyph unicode="&#xc2;" horiz-adv-x="980" d="M393 2400h-4q-10 0 -39.5 -40t-69.5 -100l-85 -130l-85 -131q-40 -60 -72 -100t-44 -40q-35 0 -64.5 27.5t-29.5 66.5q0 8 9 20.5t21 25.5l25 26l18 19q2 2 9.5 11t14.5 20.5t14.5 20.5t9.5 11q2 0 4 3t4 5l110 166q23 16 43.5 48t36.5 54l18 25l22 33l21 30q9 13 11 15 q12 20 20.5 40.5t19.5 36t26.5 26t44.5 10.5q25 0 40 -11.5t24 -30t14 -39t8 -38.5l79 -144q12 -6 32 -40.5t41 -77.5l41 -84q19 -41 30 -60q33 -59 79 -113.5l87 -107.5q45 -25 71.5 -47.5t22.5 -79.5q-4 -35 -25.5 -45t-50.5 -10q-25 0 -44 15.5t-35.5 38t-31 47 t-26.5 42.5q-49 59 -93 123t-81 129q-6 10 -27 48l-45 83l-45 83q-20 38 -27 48q-2 4 -9 15l-14 21l-14 22q-8 10 -10 14zM-61 -127v21q0 18 2 20q4 41 20 63.5t25 53.5l84 350l4 33q2 16 -4.5 26.5t-13.5 20.5t-14 22.5t-7 32.5q2 12 12 18.5t23.5 13.5t26 18.5t18.5 35.5 l149 580q16 37 34.5 100.5t43.5 124.5t57 104q29 38 69 38q6 0 11 -1q43 -4 72 -34.5t47 -74.5t30.5 -93.5t24.5 -88.5q-4 -10 -3 -28.5t5 -36.5t9.5 -35.5t9.5 -26.5l26 -360v-2q2 0 4.5 1t4.5 1q55 12 102 33l100 45q2 6 25 12q4 12 25 14q29 -4 50 12.5t50 16.5 q10 16 25.5 18.5t23.5 22.5q4 4 4 -8q-4 4 -4 -2t-2 -8l70 -99q-4 -10 -13 -10q-6 0 -14 -4q-10 4 -15.5 -4t-15.5 -4q2 -4 -1 -3t-5 3q-25 -16 -55.5 -29.5t-62.5 -23.5l-58 -19q-27 -8 -41 -14q-18 -8 -48 -23l-58 -27l-51 -23q-22 -9 -23 -9l-10 -10l-5 -49 q-12 -101 -11 -202v-43q3 -122 7 -247q0 -2 1 -12.5t1 -12.5q2 -2 2 -14l-2 -14q-4 -25 -14 -40.5t-33 -12.5q-14 2 -25.5 17t-19.5 36.5t-13 45t-5 40.5q6 117 15 231q4 45 4 90q0 70 -9 142q-2 2 -6 2h-6q-18 2 -47 -8.5t-60 -25.5l-60 -30q-30 -14 -52 -20 q-12 -4 -40 -12.5t-60 -16.5l-59 -15l-40 -10q-4 -2 -11 -28.5t-15.5 -66.5t-16.5 -85l-15 -84l-13 -66q-5 -28 -5 -32l-13 -39l-19 -54l-17 -53l-12 -38q-6 -25 -19 -44q-11 -18 -32 -18h-5l-4 2q-4 2 -17 10.5t-17 22.5zM193 586q0 -4 3 -6t5 -5h4h6q13 0 35 7q27 8 55 19 l55 23q27 11 43 15q6 2 29 11l48 19l49 18q24 9 30 11q8 6 25.5 13.5t17.5 9.5t2 10t2 12q1 13 1 26q0 36 -8 78q-5 27 -5 51q0 27 6 50q0 12 -2 40t-5 58.5t-7 57t-7 37.5q-2 18 -7 55t-14 79t-21.5 81t-28.5 60q-14 18 -29 18h-6q-18 -4 -41 -48q-23 -41 -46.5 -107.5 t-47 -144t-45.5 -161.5l-42 -160l-34 -136q-14 -60 -20 -91zM1108 930l61 -92q12 14 13 30q0 29 -21 48q-16 15 -38 15q-7 0 -15 -1z" />
<glyph unicode="&#xc3;" horiz-adv-x="980" d="M27 1806h-16q-8 -8 -10.5 -21.5t0.5 -27t10.5 -24.5t19.5 -15q86 45 168 40t165 -27l167 -44q84 -23 174 -14q6 4 14 3t14 5q6 -2 11.5 0l11.5 4q4 6 12 4t13 4q6 -2 9 1t7 3q4 4 6 4t6 5q6 -2 11.5 0t9.5 4q4 4 6 4t6 4q18 4 29.5 19.5t13.5 35t-5 37.5t-26 29 q-49 -2 -87 -33t-79 -55q-4 2 -6 -2.5t-6 -6.5q-86 -16 -168 8.5t-151 71.5q2 4 -4.5 5t-4.5 8q-39 31 -78.5 29.5t-81.5 -13.5t-82 -28.5t-79 -16.5zM-61 -127v21q0 18 2 20q4 41 20 63.5t25 53.5l84 350l4 33q2 16 -4.5 26.5t-13.5 20.5t-14 22.5t-7 32.5q2 12 12 18.5 t23.5 13.5t26 18.5t18.5 35.5l149 580q16 37 34.5 100.5t43.5 124.5t57 104q29 38 69 38q6 0 11 -1q43 -4 72 -34.5t47 -74.5t30.5 -93.5t24.5 -88.5q-4 -10 -3 -28.5t5 -36.5t9.5 -35.5t9.5 -26.5l26 -360v-2q2 0 4.5 1t4.5 1q55 12 102 33l100 45q2 6 25 12q4 12 25 14 q29 -4 50 12.5t50 16.5q10 16 25.5 18.5t23.5 22.5q4 4 4 -8q-4 4 -4 -2t-2 -8l70 -99q-4 -10 -13 -10q-6 0 -14 -4q-10 4 -15.5 -4t-15.5 -4q2 -4 -1 -3t-5 3q-25 -16 -55.5 -29.5t-62.5 -23.5l-58 -19q-27 -8 -41 -14q-18 -8 -48 -23l-58 -27l-51 -23q-22 -9 -23 -9 l-10 -10l-5 -49q-12 -101 -11 -202v-43q3 -122 7 -247q0 -2 1 -12.5t1 -12.5q2 -2 2 -14l-2 -14q-4 -25 -14 -40.5t-33 -12.5q-14 2 -25.5 17t-19.5 36.5t-13 45t-5 40.5q6 117 15 231q4 45 4 90q0 70 -9 142q-2 2 -6 2h-6q-18 2 -47 -8.5t-60 -25.5l-60 -30 q-30 -14 -52 -20q-12 -4 -40 -12.5t-60 -16.5l-59 -15l-40 -10q-4 -2 -11 -28.5t-15.5 -66.5t-16.5 -85l-15 -84l-13 -66q-5 -28 -5 -32l-13 -39l-19 -54l-17 -53l-12 -38q-6 -25 -19 -44q-11 -18 -32 -18h-5l-4 2q-4 2 -17 10.5t-17 22.5zM193 586q0 -4 3 -6t5 -5h4h6 q13 0 35 7q27 8 55 19l55 23q27 11 43 15q6 2 29 11l48 19l49 18q24 9 30 11q8 6 25.5 13.5t17.5 9.5t2 10t2 12q1 13 1 26q0 36 -8 78q-5 27 -5 51q0 27 6 50q0 12 -2 40t-5 58.5t-7 57t-7 37.5q-2 18 -7 55t-14 79t-21.5 81t-28.5 60q-14 18 -29 18h-6q-18 -4 -41 -48 q-23 -41 -46.5 -107.5t-47 -144t-45.5 -161.5l-42 -160l-34 -136q-14 -60 -20 -91zM1108 930l61 -92q12 14 13 30q0 29 -21 48q-16 15 -38 15q-7 0 -15 -1z" />
<glyph unicode="&#xc8;" horiz-adv-x="1150" d="M727 1696l-141 141q-8 18 -18.5 28.5t-18.5 20.5t-13 23.5t-5 36.5q0 27 24.5 35t44.5 8q31 0 52.5 -20.5t27.5 -51.5l150 -150q12 -12 15 -23t3 -28q0 -27 -17.5 -47t-48.5 -20q-16 0 -33.5 15.5t-21.5 31.5zM18 457q0 178 18.5 350t31.5 350v55q0 6 1 18.5t3 27t3 26.5 t1 16q-2 2 -4 8.5t-4 8.5v4q0 6 3 30.5t9 51.5t16 45t27 10l63 -31q2 16 11.5 34t29.5 22q129 23 262.5 32t268.5 9q12 0 29 1h9q13 0 25 -2q16 -3 28.5 -12.5t12.5 -27.5q0 -31 -24.5 -45.5t-58.5 -19.5t-66.5 -7t-48.5 -8q-10 0 -33 1t-47 1q-25 0 -48.5 -1t-31.5 -1 q-4 0 -23.5 -3t-23.5 -5l-4 1q-4 1 -4 -1q-4 0 -9.5 -3t-7.5 -3v-5q0 -14 5 -26t5 -27q-31 0 -57.5 20.5t-58.5 20.5q-16 0 -33 -4t-35 -4q-23 0 -40 8t-23 31q-2 -12 -3.5 -25.5t-1.5 -27.5v-56q0 -27 -3 -51t-15 -45q-12 -104 -18.5 -209.5t-22.5 -210.5l4 -2q2 0 3 1 l20.5 4t19.5 3q2 0 3 1l1 1q2 0 3 -1l1 -1q2 0 8.5 -3t8.5 -3q6 -4 17 -6t16 -2q18 0 60 10.5t85 22.5l77 22q34 10 38 9l40 13l59 20l60 22q29 10 39 14q4 2 16.5 9.5t16.5 7.5l10 1q10 1 15 1q29 0 53 -12.5t24 -43.5q0 -12 -21.5 -28.5t-55 -33t-72.5 -31.5t-75 -27.5 t-61.5 -19.5t-31.5 -5q-10 -2 -33 -9l-47 -15l-47 -14q-23 -7 -31 -9l-48 -12q-15 -4 -40 -5q-78 0 -135 50l-8 -9q2 -25 2 -50q0 -38 -4 -76q-6 -62 -6 -126q0 -68 3 -148.5t24.5 -149t69.5 -115.5t138 -47q82 0 156 28l149 58h9q8 4 34.5 19t34.5 20q12 6 38 21l54 33 q29 17 53.5 29.5t36.5 12.5q35 0 58.5 -14.5t23.5 -51.5q0 -25 -13 -42t-33.5 -28.5t-45 -14.5t-45.5 -1l-118 -58q-60 -30 -122.5 -53.5t-128 -39t-131.5 -15.5q-6 0 -30.5 1t-32.5 1q-35 14 -68.5 19.5t-64.5 28.5q-53 37 -83 101t-43 139t-16.5 149t-3.5 129z" />
<glyph unicode="&#xca;" horiz-adv-x="1150" d="M721 2378h-4q-10 0 -39.5 -40t-69.5 -100l-85 -130l-85 -131q-40 -60 -72 -100t-44 -40q-35 0 -64.5 27.5t-29.5 66.5q0 8 9 20.5t21 25.5l25 26l18 19q2 2 9.5 11t14.5 20.5t14.5 20.5t9.5 11q2 0 4 3t4 5l110 166q23 16 43.5 48t36.5 54l18 25l22 33l21 30q9 13 11 15 q12 20 20.5 40.5t19.5 36t26.5 26t44.5 10.5q25 0 40 -11.5t24 -30t14 -39t8 -38.5l79 -144q12 -6 32 -40.5t41 -77.5l41 -84q19 -41 30 -60q33 -59 79 -113.5l87 -107.5q45 -25 71.5 -47.5t22.5 -79.5q-4 -35 -25.5 -45t-50.5 -10q-25 0 -44 15.5t-35.5 38t-31 47 t-26.5 42.5q-49 59 -93 123t-81 129q-6 10 -27 48l-45 83l-45 83q-20 38 -27 48q-2 4 -9 15l-14 21l-14 22q-8 10 -10 14zM18 457q0 178 18.5 350t31.5 350v55q0 6 1 18.5t3 27t3 26.5t1 16q-2 2 -4 8.5t-4 8.5v4q0 6 3 30.5t9 51.5t16 45t27 10l63 -31q2 16 11.5 34 t29.5 22q129 23 262.5 32t268.5 9q12 0 29 1h9q13 0 25 -2q16 -3 28.5 -12.5t12.5 -27.5q0 -31 -24.5 -45.5t-58.5 -19.5t-66.5 -7t-48.5 -8q-10 0 -33 1t-47 1q-25 0 -48.5 -1t-31.5 -1q-4 0 -23.5 -3t-23.5 -5l-4 1q-4 1 -4 -1q-4 0 -9.5 -3t-7.5 -3v-5q0 -14 5 -26t5 -27 q-31 0 -57.5 20.5t-58.5 20.5q-16 0 -33 -4t-35 -4q-23 0 -40 8t-23 31q-2 -12 -3.5 -25.5t-1.5 -27.5v-56q0 -27 -3 -51t-15 -45q-12 -104 -18.5 -209.5t-22.5 -210.5l4 -2q2 0 3 1l20.5 4t19.5 3q2 0 3 1l1 1q2 0 3 -1l1 -1q2 0 8.5 -3t8.5 -3q6 -4 17 -6t16 -2 q18 0 60 10.5t85 22.5l77 22q34 10 38 9l40 13l59 20l60 22q29 10 39 14q4 2 16.5 9.5t16.5 7.5l10 1q10 1 15 1q29 0 53 -12.5t24 -43.5q0 -12 -21.5 -28.5t-55 -33t-72.5 -31.5t-75 -27.5t-61.5 -19.5t-31.5 -5q-10 -2 -33 -9l-47 -15l-47 -14q-23 -7 -31 -9l-48 -12 q-15 -4 -40 -5q-78 0 -135 50l-8 -9q2 -25 2 -50q0 -38 -4 -76q-6 -62 -6 -126q0 -68 3 -148.5t24.5 -149t69.5 -115.5t138 -47q82 0 156 28l149 58h9q8 4 34.5 19t34.5 20q12 6 38 21l54 33q29 17 53.5 29.5t36.5 12.5q35 0 58.5 -14.5t23.5 -51.5q0 -25 -13 -42 t-33.5 -28.5t-45 -14.5t-45.5 -1l-118 -58q-60 -30 -122.5 -53.5t-128 -39t-131.5 -15.5q-6 0 -30.5 1t-32.5 1q-35 14 -68.5 19.5t-64.5 28.5q-53 37 -83 101t-43 139t-16.5 149t-3.5 129z" />
<glyph unicode="&#xcc;" horiz-adv-x="579" d="M-31 1702l-141 141q-8 18 -18.5 28.5t-18.5 20.5t-13 23.5t-5 36.5q0 27 24.5 35t44.5 8q31 0 52.5 -20.5t27.5 -51.5l150 -150q12 -12 15 -23t3 -28q0 -27 -17.5 -47t-48.5 -20q-16 0 -33.5 15.5t-21.5 31.5zM186 102l-71 631v17l-86 702q-8 8 -9 14v17v30q0 18 19 19 q23 0 58.5 -8t49.5 -33q0 -12 2.5 -42l5.5 -63.5t5 -64.5t2 -43q4 -49 17 -102q9 -36 9 -71q0 -16 -2 -32l72 -711q12 -74 19.5 -150.5t27.5 -148.5q6 -20 11 -34l11 -29q5 -14 7 -29.5t2 -36.5q0 -10 -19.5 -30.5t-31.5 -20.5q-37 0 -55.5 25.5t-25.5 61.5t-9.5 72.5 t-8.5 59.5z" />
<glyph unicode="&#xce;" horiz-adv-x="579" d="M-37 2384h-4q-10 0 -39.5 -40t-69.5 -100l-85 -130l-85 -131q-40 -60 -72 -100t-44 -40q-35 0 -64.5 27.5t-29.5 66.5q0 8 9 20.5t21 25.5l25 26l18 19q2 2 9.5 11t14.5 20.5t14.5 20.5t9.5 11q2 0 4 3t4 5l110 166q23 16 43.5 48t36.5 54l18 25l22 33l21 30q9 13 11 15 q12 20 20.5 40.5t19.5 36t26.5 26t44.5 10.5q25 0 40 -11.5t24 -30t14 -39t8 -38.5l79 -144q12 -6 32 -40.5t41 -77.5l41 -84q19 -41 30 -60q33 -59 79 -113.5l87 -107.5q45 -25 71.5 -47.5t22.5 -79.5q-4 -35 -25.5 -45t-50.5 -10q-25 0 -44 15.5t-35.5 38t-31 47 t-26.5 42.5q-49 59 -93 123t-81 129q-6 10 -27 48l-45 83l-45 83q-20 38 -27 48q-2 4 -9 15l-14 21l-14 22q-8 10 -10 14zM186 102l-71 631v17l-86 702q-8 8 -9 14v17v30q0 18 19 19q23 0 58.5 -8t49.5 -33q0 -12 2.5 -42l5.5 -63.5t5 -64.5t2 -43q4 -49 17 -102 q9 -36 9 -71q0 -16 -2 -32l72 -711q12 -74 19.5 -150.5t27.5 -148.5q6 -20 11 -34l11 -29q5 -14 7 -29.5t2 -36.5q0 -10 -19.5 -30.5t-31.5 -20.5q-37 0 -55.5 25.5t-25.5 61.5t-9.5 72.5t-8.5 59.5z" />
<glyph unicode="&#xd1;" horiz-adv-x="1280" d="M-367 1751h-16q-8 -8 -10.5 -21.5t0.5 -27t10.5 -24.5t19.5 -15q86 45 168 40t165 -27l167 -44q84 -23 174 -14q6 4 14 3t14 5q6 -2 11.5 0l11.5 4q4 6 12 4t13 4q6 -2 9 1t7 3q4 4 6 4t6 5q6 -2 11.5 0t9.5 4q4 4 6 4t6 4q18 4 29.5 19.5t13.5 35t-5 37.5t-26 29 q-49 -2 -87 -33t-79 -55q-4 2 -6 -2.5t-6 -6.5q-86 -16 -168 8.5t-151 71.5q2 4 -4.5 5t-4.5 8q-39 31 -78.5 29.5t-81.5 -13.5t-82 -28.5t-79 -16.5zM1042 18q-135 129 -249.5 280t-212.5 310l-9 8l-401 617h-8q-10 -102 -10 -197q0 -24 1 -48q2 -71 1 -147v-104 q0 -10 -2 -57t-3.5 -101.5t-3.5 -101.5t-2 -57v-17v-10q0 -2 5.5 -9t5.5 -9t-5.5 -12.5t-5.5 -12.5v-55v-84q0 -23 2 -43.5t9 -40.5q4 -25 21.5 -47.5t17.5 -48.5q0 -25 -19.5 -45.5t-46.5 -20.5q-25 0 -41 13.5t-33 31.5q-6 20 -11 50l-10 63q-5 33 -8.5 62.5t-3.5 52.5 q-1 54 -1 107q0 134 8 266q10 185 10 374v221q-8 55 -13.5 112.5t-5.5 113.5q0 6 1 19t1 15l27 25l11 1q11 1 18 1q10 0 29.5 -5t40 -12.5t39 -17.5t26.5 -18q4 -10 15 -35l25 -52l25 -53l17 -32q53 -106 123 -205q0 -10 8 -10q6 -14 25 -46l38 -67l39 -67q18 -32 29 -44 l43 -62l77 -108l77 -107q35 -50 43 -65q2 -4 12 -21t12 -22q4 -4 16.5 -21t16.5 -22l39 -43l49 -53l42 -46q17 -19 17 -21l25 -17v25q0 39 -8 79t-17.5 78.5t-14.5 78.5q-2 18 -2 37q0 22 3 44q-18 174 -30.5 338t-12.5 332v86q-2 6 1 17.5t7 17.5l5 1q5 1 10 1q27 0 41 -28 t10 -52l41 -387q-2 -31 5 -59.5t3 -59.5l100 -625q4 -35 18.5 -64.5t14.5 -64.5q0 -33 -14.5 -54t-48.5 -21q-12 0 -28.5 7t-30 17t-24 24.5t-10.5 28.5z" />
<glyph unicode="&#xd2;" horiz-adv-x="1243" d="M416 1575l-141 141q-8 18 -18.5 28.5t-18.5 20.5t-13 23.5t-5 36.5q0 27 24.5 35t44.5 8q31 0 52.5 -20.5t27.5 -51.5l150 -150q12 -12 15 -23t3 -28q0 -27 -17.5 -47t-48.5 -20q-16 0 -33.5 15.5t-21.5 31.5zM20 461v-2q18 -117 49 -205t86.5 -146.5t143.5 -88 t221 -29.5q119 0 232.5 41t201.5 116.5t141.5 179t53.5 230.5q0 76 -26.5 168t-72.5 186.5t-109.5 183.5t-137.5 157.5t-155 110.5t-163 42q-90 0 -147 -48t-105 -120q-66 -98 -106.5 -187t-64 -180.5t-33 -190.5t-9.5 -218zM154 514q0 129 20.5 250t77.5 237q23 12 27 23.5 t6 24t11 23.5t44 24q4 2 13 8l16 10q31 82 86 150h4q29 0 48 -18.5t48 -18.5q20 0 38.5 12t18.5 35q27 0 63 -27.5t70.5 -64.5t65.5 -76t47 -62q74 -111 121 -226.5t47 -244.5q0 -100 -44 -187t-117.5 -150.5t-167 -100.5t-191.5 -37q-106 0 -175 30t-108 84t-54 131 t-15 171z" />
<glyph unicode="&#xd4;" horiz-adv-x="1243" d="M409 2257h-4q-10 0 -39.5 -40t-69.5 -100l-85 -130l-85 -131q-40 -60 -72 -100t-44 -40q-35 0 -64.5 27.5t-29.5 66.5q0 8 9 20.5t21 25.5l25 26l18 19q2 2 9.5 11t14.5 20.5t14.5 20.5t9.5 11q2 0 4 3t4 5l110 166q23 16 43.5 48t36.5 54l18 25l22 33l21 30q9 13 11 15 q12 20 20.5 40.5t19.5 36t26.5 26t44.5 10.5q25 0 40 -11.5t24 -30t14 -39t8 -38.5l79 -144q12 -6 32 -40.5t41 -77.5l41 -84q19 -41 30 -60q33 -59 79 -113.5l87 -107.5q45 -25 71.5 -47.5t22.5 -79.5q-4 -35 -25.5 -45t-50.5 -10q-25 0 -44 15.5t-35.5 38t-31 47 t-26.5 42.5q-49 59 -93 123t-81 129q-6 10 -27 48l-45 83l-45 83q-20 38 -27 48q-2 4 -9 15l-14 21l-14 22q-8 10 -10 14zM20 461v-2q18 -117 49 -205t86.5 -146.5t143.5 -88t221 -29.5q119 0 232.5 41t201.5 116.5t141.5 179t53.5 230.5q0 76 -26.5 168t-72.5 186.5 t-109.5 183.5t-137.5 157.5t-155 110.5t-163 42q-90 0 -147 -48t-105 -120q-66 -98 -106.5 -187t-64 -180.5t-33 -190.5t-9.5 -218zM154 514q0 129 20.5 250t77.5 237q23 12 27 23.5t6 24t11 23.5t44 24q4 2 13 8l16 10q31 82 86 150h4q29 0 48 -18.5t48 -18.5q20 0 38.5 12 t18.5 35q27 0 63 -27.5t70.5 -64.5t65.5 -76t47 -62q74 -111 121 -226.5t47 -244.5q0 -100 -44 -187t-117.5 -150.5t-167 -100.5t-191.5 -37q-106 0 -175 30t-108 84t-54 131t-15 171z" />
<glyph unicode="&#xd5;" horiz-adv-x="1243" d="M43 1663h-16q-8 -8 -10.5 -21.5t0.5 -27t10.5 -24.5t19.5 -15q86 45 168 40t165 -27l167 -44q84 -23 174 -14q6 4 14 3t14 5q6 -2 11.5 0l11.5 4q4 6 12 4t13 4q6 -2 9 1t7 3q4 4 6 4t6 5q6 -2 11.5 0t9.5 4q4 4 6 4t6 4q18 4 29.5 19.5t13.5 35t-5 37.5t-26 29 q-49 -2 -87 -33t-79 -55q-4 2 -6 -2.5t-6 -6.5q-86 -16 -168 8.5t-151 71.5q2 4 -4.5 5t-4.5 8q-39 31 -78.5 29.5t-81.5 -13.5t-82 -28.5t-79 -16.5zM20 461v-2q18 -117 49 -205t86.5 -146.5t143.5 -88t221 -29.5q119 0 232.5 41t201.5 116.5t141.5 179t53.5 230.5 q0 76 -26.5 168t-72.5 186.5t-109.5 183.5t-137.5 157.5t-155 110.5t-163 42q-90 0 -147 -48t-105 -120q-66 -98 -106.5 -187t-64 -180.5t-33 -190.5t-9.5 -218zM154 514q0 129 20.5 250t77.5 237q23 12 27 23.5t6 24t11 23.5t44 24q4 2 13 8l16 10q31 82 86 150h4 q29 0 48 -18.5t48 -18.5q20 0 38.5 12t18.5 35q27 0 63 -27.5t70.5 -64.5t65.5 -76t47 -62q74 -111 121 -226.5t47 -244.5q0 -100 -44 -187t-117.5 -150.5t-167 -100.5t-191.5 -37q-106 0 -175 30t-108 84t-54 131t-15 171z" />
<glyph unicode="&#xd9;" horiz-adv-x="1081" d="M530 1665l-141 141q-8 18 -18.5 28.5t-18.5 20.5t-13 23.5t-5 36.5q0 27 24.5 35t44.5 8q31 0 52.5 -20.5t27.5 -51.5l150 -150q12 -12 15 -23t3 -28q0 -27 -17.5 -47t-48.5 -20q-16 0 -33.5 15.5t-21.5 31.5zM20 555q0 -98 19.5 -205.5t69 -198t135.5 -148.5t221 -58 q72 0 147.5 21.5t144 59t122 91t79.5 119.5q27 70 31 138t4 140q0 37 -11 124t-32.5 195.5t-54.5 225.5t-77 214t-98 159.5t-120 62.5q-20 0 -31.5 -12.5t-16.5 -29.5t-6 -35.5t-1 -31.5q0 -16 10 -24t23.5 -11t29 -1t27.5 4q16 -10 26.5 -27.5t20.5 -30.5 q100 -174 141 -366.5t41 -384.5q0 -63 -5 -124t-24.5 -115t-57.5 -99t-103 -80q-59 -31 -107.5 -44t-113.5 -13q-68 0 -121 25.5t-90 68.5t-58.5 96t-25.5 109q0 12 3 33.5t-11 33.5q0 6 -2.5 24.5t-3.5 38t-3 38t-2 24.5v4v4q10 129 25.5 256t38.5 252l25 132q13 67 14 132 q0 39 -23.5 72t-75.5 33q-25 0 -39 -14.5t-22 -36t-11 -48t-3 -49.5q0 -37 -2 -47v-8q0 -10 10 -14q0 -10 1 -40t1 -40q0 -74 -9.5 -148.5l-19.5 -148.5l-19.5 -147.5t-9.5 -149.5z" />
<glyph unicode="&#xdb;" horiz-adv-x="1081" d="M524 2347h-4q-10 0 -39.5 -40t-69.5 -100l-85 -130l-85 -131q-40 -60 -72 -100t-44 -40q-35 0 -64.5 27.5t-29.5 66.5q0 8 9 20.5t21 25.5l25 26l18 19q2 2 9.5 11t14.5 20.5t14.5 20.5t9.5 11q2 0 4 3t4 5l110 166q23 16 43.5 48t36.5 54l18 25l22 33l21 30q9 13 11 15 q12 20 20.5 40.5t19.5 36t26.5 26t44.5 10.5q25 0 40 -11.5t24 -30t14 -39t8 -38.5l79 -144q12 -6 32 -40.5t41 -77.5l41 -84q19 -41 30 -60q33 -59 79 -113.5l87 -107.5q45 -25 71.5 -47.5t22.5 -79.5q-4 -35 -25.5 -45t-50.5 -10q-25 0 -44 15.5t-35.5 38t-31 47 t-26.5 42.5q-49 59 -93 123t-81 129q-6 10 -27 48l-45 83l-45 83q-20 38 -27 48q-2 4 -9 15l-14 21l-14 22q-8 10 -10 14zM20 555q0 -98 19.5 -205.5t69 -198t135.5 -148.5t221 -58q72 0 147.5 21.5t144 59t122 91t79.5 119.5q27 70 31 138t4 140q0 37 -11 124t-32.5 195.5 t-54.5 225.5t-77 214t-98 159.5t-120 62.5q-20 0 -31.5 -12.5t-16.5 -29.5t-6 -35.5t-1 -31.5q0 -16 10 -24t23.5 -11t29 -1t27.5 4q16 -10 26.5 -27.5t20.5 -30.5q100 -174 141 -366.5t41 -384.5q0 -63 -5 -124t-24.5 -115t-57.5 -99t-103 -80q-59 -31 -107.5 -44 t-113.5 -13q-68 0 -121 25.5t-90 68.5t-58.5 96t-25.5 109q0 12 3 33.5t-11 33.5q0 6 -2.5 24.5t-3.5 38t-3 38t-2 24.5v4v4q10 129 25.5 256t38.5 252l25 132q13 67 14 132q0 39 -23.5 72t-75.5 33q-25 0 -39 -14.5t-22 -36t-11 -48t-3 -49.5q0 -37 -2 -47v-8q0 -10 10 -14 q0 -10 1 -40t1 -40q0 -74 -9.5 -148.5l-19.5 -148.5l-19.5 -147.5t-9.5 -149.5z" />
<glyph unicode="&#xe0;" d="M297 1041l-141 141q-8 18 -18.5 28.5t-18.5 20.5t-13 23.5t-5 36.5q0 27 24.5 35t44.5 8q31 0 52.5 -20.5t27.5 -51.5l150 -150q12 -12 15 -23t3 -28q0 -27 -17.5 -47t-48.5 -20q-16 0 -33.5 15.5t-21.5 31.5zM567 242q-16 -37 -37.5 -79t-50 -78t-65.5 -59.5t-82 -23.5 q-76 0 -134.5 35t-97.5 90t-59.5 122.5t-20.5 135.5q0 76 24 153.5t69 140t110.5 101.5t149.5 39q74 0 126 -39t52 -116q0 -14 -1 -39t-6 -48.5t-16.5 -41t-31.5 -17.5q-16 0 -28.5 6t-12.5 25q0 27 5 52.5t5 51.5q0 33 -15.5 60.5t-50.5 27.5q-72 0 -123 -34.5t-85.5 -89 t-51 -119t-16.5 -125.5v-68l28 -71q15 -38 36.5 -69.5t52 -53t73.5 -21.5q39 0 77 46t70 106.5t53.5 121t29.5 91.5q6 18 9 49t11 60.5t24.5 51t47.5 21.5q33 0 42 -27.5t9 -54.5q0 -59 -8 -118.5t-8 -121.5q0 -88 6 -181t41 -175q4 -10 16 -34.5t17 -28.5q8 -12 23 -23 l31 -20q15 -10 27.5 -22.5t12.5 -27.5q0 -25 -28 -34t-44 -9q-33 0 -61.5 27t-52 63.5t-39 75.5t-21.5 64q-6 23 -11 54l-10 67q-5 35 -7.5 68.5t-2.5 62.5z" />
<glyph unicode="&#xe2;" d="M290 1722h-4q-10 0 -39.5 -40t-69.5 -100l-85 -130l-85 -131q-40 -60 -72 -100t-44 -40q-35 0 -64.5 27.5t-29.5 66.5q0 8 9 20.5t21 25.5l25 26l18 19q2 2 9.5 11t14.5 20.5t14.5 20.5t9.5 11q2 0 4 3t4 5l110 166q23 16 43.5 48t36.5 54l18 25l22 33l21 30q9 13 11 15 q12 20 20.5 40.5t19.5 36t26.5 26t44.5 10.5q25 0 40 -11.5t24 -30t14 -39t8 -38.5l79 -144q12 -6 32 -40.5t41 -77.5l41 -84q19 -41 30 -60q33 -59 79 -113.5l87 -107.5q45 -25 71.5 -47.5t22.5 -79.5q-4 -35 -25.5 -45t-50.5 -10q-25 0 -44 15.5t-35.5 38t-31 47 t-26.5 42.5q-49 59 -93 123t-81 129q-6 10 -27 48l-45 83l-45 83q-20 38 -27 48q-2 4 -9 15l-14 21l-14 22q-8 10 -10 14zM567 242q-16 -37 -37.5 -79t-50 -78t-65.5 -59.5t-82 -23.5q-76 0 -134.5 35t-97.5 90t-59.5 122.5t-20.5 135.5q0 76 24 153.5t69 140t110.5 101.5 t149.5 39q74 0 126 -39t52 -116q0 -14 -1 -39t-6 -48.5t-16.5 -41t-31.5 -17.5q-16 0 -28.5 6t-12.5 25q0 27 5 52.5t5 51.5q0 33 -15.5 60.5t-50.5 27.5q-72 0 -123 -34.5t-85.5 -89t-51 -119t-16.5 -125.5v-68l28 -71q15 -38 36.5 -69.5t52 -53t73.5 -21.5q39 0 77 46 t70 106.5t53.5 121t29.5 91.5q6 18 9 49t11 60.5t24.5 51t47.5 21.5q33 0 42 -27.5t9 -54.5q0 -59 -8 -118.5t-8 -121.5q0 -88 6 -181t41 -175q4 -10 16 -34.5t17 -28.5q8 -12 23 -23l31 -20q15 -10 27.5 -22.5t12.5 -27.5q0 -25 -28 -34t-44 -9q-33 0 -61.5 27t-52 63.5 t-39 75.5t-21.5 64q-6 23 -11 54l-10 67q-5 35 -7.5 68.5t-2.5 62.5z" />
<glyph unicode="&#xe3;" d="M-74 1129h-16q-8 -8 -10.5 -21.5t0.5 -27t10.5 -24.5t19.5 -15q86 45 168 40t165 -27l167 -44q84 -23 174 -14q6 4 14 3t14 5q6 -2 11.5 0l11.5 4q4 6 12 4t13 4q6 -2 9 1t7 3q4 4 6 4t6 5q6 -2 11.5 0t9.5 4q4 4 6 4t6 4q18 4 29.5 19.5t13.5 35t-5 37.5t-26 29 q-49 -2 -87 -33t-79 -55q-4 2 -6 -2.5t-6 -6.5q-86 -16 -168 8.5t-151 71.5q2 4 -4.5 5t-4.5 8q-39 31 -78.5 29.5t-81.5 -13.5t-82 -28.5t-79 -16.5zM567 242q-16 -37 -37.5 -79t-50 -78t-65.5 -59.5t-82 -23.5q-76 0 -134.5 35t-97.5 90t-59.5 122.5t-20.5 135.5 q0 76 24 153.5t69 140t110.5 101.5t149.5 39q74 0 126 -39t52 -116q0 -14 -1 -39t-6 -48.5t-16.5 -41t-31.5 -17.5q-16 0 -28.5 6t-12.5 25q0 27 5 52.5t5 51.5q0 33 -15.5 60.5t-50.5 27.5q-72 0 -123 -34.5t-85.5 -89t-51 -119t-16.5 -125.5v-68l28 -71q15 -38 36.5 -69.5 t52 -53t73.5 -21.5q39 0 77 46t70 106.5t53.5 121t29.5 91.5q6 18 9 49t11 60.5t24.5 51t47.5 21.5q33 0 42 -27.5t9 -54.5q0 -59 -8 -118.5t-8 -121.5q0 -88 6 -181t41 -175q4 -10 16 -34.5t17 -28.5q8 -12 23 -23l31 -20q15 -10 27.5 -22.5t12.5 -27.5q0 -25 -28 -34 t-44 -9q-33 0 -61.5 27t-52 63.5t-39 75.5t-21.5 64q-6 23 -11 54l-10 67q-5 35 -7.5 68.5t-2.5 62.5z" />
<glyph unicode="&#xe8;" horiz-adv-x="927" d="M379 1086l-141 141q-8 18 -18.5 28.5t-18.5 20.5t-13 23.5t-5 36.5q0 27 24.5 35t44.5 8q31 0 52.5 -20.5t27.5 -51.5l150 -150q12 -12 15 -23t3 -28q0 -27 -17.5 -47t-48.5 -20q-16 0 -33.5 15.5t-21.5 31.5zM20 248q0 172 78 329.5t207 268.5q31 25 66 47t78 22 q86 0 149.5 -48t63.5 -142q0 -37 -39 -84t-92.5 -92t-107.5 -79t-85 -44q-41 -16 -89 -24q-26 -4 -51 -3q-21 0 -42 2q-23 -35 -28 -76.5t-5 -82.5q0 -55 20.5 -106.5t75.5 -74.5q18 -8 24.5 -7t22.5 -9h68q80 0 154.5 19.5t148.5 52.5q35 16 70.5 36.5t74.5 20.5 q18 0 36 -12t18 -33q0 -33 -53.5 -65.5t-123 -59.5t-138 -43t-97.5 -16h-84q-154 0 -237 71.5t-83 231.5zM203 532q0 -16 6 -18t20 -2q29 0 83.5 23.5t107.5 59.5t92 78t39 77q0 63 -64 63q-35 0 -84 -30.5t-94 -74.5t-75.5 -92.5t-30.5 -83.5z" />
<glyph unicode="&#xea;" horiz-adv-x="927" d="M372 1768h-4q-10 0 -39.5 -40t-69.5 -100l-85 -130l-85 -131q-40 -60 -72 -100t-44 -40q-35 0 -64.5 27.5t-29.5 66.5q0 8 9 20.5t21 25.5l25 26l18 19q2 2 9.5 11t14.5 20.5t14.5 20.5t9.5 11q2 0 4 3t4 5l110 166q23 16 43.5 48t36.5 54l18 25l22 33l21 30q9 13 11 15 q12 20 20.5 40.5t19.5 36t26.5 26t44.5 10.5q25 0 40 -11.5t24 -30t14 -39t8 -38.5l79 -144q12 -6 32 -40.5t41 -77.5l41 -84q19 -41 30 -60q33 -59 79 -113.5l87 -107.5q45 -25 71.5 -47.5t22.5 -79.5q-4 -35 -25.5 -45t-50.5 -10q-25 0 -44 15.5t-35.5 38t-31 47 t-26.5 42.5q-49 59 -93 123t-81 129q-6 10 -27 48l-45 83l-45 83q-20 38 -27 48q-2 4 -9 15l-14 21l-14 22q-8 10 -10 14zM20 248q0 172 78 329.5t207 268.5q31 25 66 47t78 22q86 0 149.5 -48t63.5 -142q0 -37 -39 -84t-92.5 -92t-107.5 -79t-85 -44q-41 -16 -89 -24 q-26 -4 -51 -3q-21 0 -42 2q-23 -35 -28 -76.5t-5 -82.5q0 -55 20.5 -106.5t75.5 -74.5q18 -8 24.5 -7t22.5 -9h68q80 0 154.5 19.5t148.5 52.5q35 16 70.5 36.5t74.5 20.5q18 0 36 -12t18 -33q0 -33 -53.5 -65.5t-123 -59.5t-138 -43t-97.5 -16h-84q-154 0 -237 71.5 t-83 231.5zM203 532q0 -16 6 -18t20 -2q29 0 83.5 23.5t107.5 59.5t92 78t39 77q0 63 -64 63q-35 0 -84 -30.5t-94 -74.5t-75.5 -92.5t-30.5 -83.5z" />
<glyph unicode="&#xec;" horiz-adv-x="425" d="M8 1385l-141 141q-8 18 -18.5 28.5t-18.5 20.5t-13 23.5t-5 36.5q0 27 24.5 35t44.5 8q31 0 52.5 -20.5t27.5 -51.5l150 -150q12 -12 15 -23t3 -28q0 -27 -17.5 -47t-48.5 -20q-16 0 -33.5 15.5t-21.5 31.5zM68 739v27q0 16 8 25h26h31q20 0 29 -9q10 -10 16 -34.5 t8 -34.5q9 -72 9 -143v-28q0 -9 -1 -19q0 -75 15 -148q16 -86 22.5 -169t16.5 -169q2 -4 5 -16.5t3 -16.5v-4q0 -25 -10 -50.5t-45 -25.5q-23 0 -35 6.5t-21 30.5q-16 55 -16 109q0 57 -6 116q-12 123 -22.5 244t-24.5 244q0 2 -4 18.5t-4 20.5v26zM20 1120v80q0 2 18.5 8 t29.5 6q6 1 10 1q36 0 58 -24q26 -28 26 -67q0 -29 -4 -64.5t-13 -64.5q-6 -8 -14 -8h-16q-25 0 -37 15.5t-21.5 37t-17 44t-19.5 36.5z" />
<glyph unicode="&#xee;" horiz-adv-x="425" d="M2 2067h-4q-10 0 -39.5 -40t-69.5 -100l-85 -130l-85 -131q-40 -60 -72 -100t-44 -40q-35 0 -64.5 27.5t-29.5 66.5q0 8 9 20.5t21 25.5l25 26l18 19q2 2 9.5 11t14.5 20.5t14.5 20.5t9.5 11q2 0 4 3t4 5l110 166q23 16 43.5 48t36.5 54l18 25l22 33l21 30q9 13 11 15 q12 20 20.5 40.5t19.5 36t26.5 26t44.5 10.5q25 0 40 -11.5t24 -30t14 -39t8 -38.5l79 -144q12 -6 32 -40.5t41 -77.5l41 -84q19 -41 30 -60q33 -59 79 -113.5l87 -107.5q45 -25 71.5 -47.5t22.5 -79.5q-4 -35 -25.5 -45t-50.5 -10q-25 0 -44 15.5t-35.5 38t-31 47 t-26.5 42.5q-49 59 -93 123t-81 129q-6 10 -27 48l-45 83l-45 83q-20 38 -27 48q-2 4 -9 15l-14 21l-14 22q-8 10 -10 14zM68 739v27q0 16 8 25h26h31q20 0 29 -9q10 -10 16 -34.5t8 -34.5q9 -72 9 -143v-28q0 -9 -1 -19q0 -75 15 -148q16 -86 22.5 -169t16.5 -169 q2 -4 5 -16.5t3 -16.5v-4q0 -25 -10 -50.5t-45 -25.5q-23 0 -35 6.5t-21 30.5q-16 55 -16 109q0 57 -6 116q-12 123 -22.5 244t-24.5 244q0 2 -4 18.5t-4 20.5v26zM20 1120v80q0 2 18.5 8t29.5 6q6 1 10 1q36 0 58 -24q26 -28 26 -67q0 -29 -4 -64.5t-13 -64.5q-6 -8 -14 -8 h-16q-25 0 -37 15.5t-21.5 37t-17 44t-19.5 36.5z" />
<glyph unicode="&#xf1;" horiz-adv-x="878" d="M-154 1129h-16q-8 -8 -10.5 -21.5t0.5 -27t10.5 -24.5t19.5 -15q86 45 168 40t165 -27l167 -44q84 -23 174 -14q6 4 14 3t14 5q6 -2 11.5 0l11.5 4q4 6 12 4t13 4q6 -2 9 1t7 3q4 4 6 4t6 5q6 -2 11.5 0t9.5 4q4 4 6 4t6 4q18 4 29.5 19.5t13.5 35t-5 37.5t-26 29 q-49 -2 -87 -33t-79 -55q-4 2 -6 -2.5t-6 -6.5q-86 -16 -168 8.5t-151 71.5q2 4 -4.5 5t-4.5 8q-39 31 -78.5 29.5t-81.5 -13.5t-82 -28.5t-79 -16.5zM20 180q0 35 10.5 49.5t47.5 14.5q0 33 1 91t6 126.5t17.5 140.5t35 130.5t56 95t82.5 36.5q25 0 45.5 -10t38.5 -23 l36 -23q17 -11 36 -15q119 -113 198 -248t79 -303v-60q0 -4 -3.5 -12t-5.5 -10q-10 -23 -21 -52.5t-26.5 -57t-38 -45t-55.5 -13.5q-16 4 -24.5 17.5t-8.5 27.5q0 29 12.5 54.5t28 52t28.5 56t13 68.5q0 66 -20.5 134.5t-55 130t-83 112.5t-105.5 84q-18 10 -29.5 17.5 t-29.5 7.5t-36 -23.5t-31 -55.5t-21.5 -63.5t-10.5 -48t-5 -46.5t-5 -60.5t-4 -54t-2 -29.5v-373q-8 -39 -53 -39q-35 0 -54.5 23.5t-28.5 58.5t-11.5 71.5t-2.5 65.5z" />
<glyph unicode="&#xf2;" horiz-adv-x="862" d="M299 1041l-141 141q-8 18 -18.5 28.5t-18.5 20.5t-13 23.5t-5 36.5q0 27 24.5 35t44.5 8q31 0 52.5 -20.5t27.5 -51.5l150 -150q12 -12 15 -23t3 -28q0 -27 -17.5 -47t-48.5 -20q-16 0 -33.5 15.5t-21.5 31.5zM10 201q0 -43 2 -84t17.5 -73t48.5 -51.5t94 -19.5 q29 0 62.5 1t56.5 8q100 23 181 58.5t136.5 87.5t85 124t29.5 166q0 43 -1 86t-17 86q-18 45 -51 94t-77.5 90t-97.5 68.5t-110 27.5q-41 0 -72 -18t-54.5 -45t-40.5 -58l-32 -59l-57 -117q-29 -59 -51.5 -120.5t-37 -125t-14.5 -126.5zM131 113v61q0 145 55.5 269 t135.5 247q6 12 11 28.5t11 30t17.5 23.5t29.5 10q29 0 44.5 -8t35.5 -26q78 -66 114 -135.5t36 -168.5q0 -82 -34 -148.5t-93.5 -112.5t-139.5 -71.5t-172 -25.5q-24 0 -51 27z" />
<glyph unicode="&#xf4;" horiz-adv-x="862" d="M293 1722h-4q-10 0 -39.5 -40t-69.5 -100l-85 -130l-85 -131q-40 -60 -72 -100t-44 -40q-35 0 -64.5 27.5t-29.5 66.5q0 8 9 20.5t21 25.5l25 26l18 19q2 2 9.5 11t14.5 20.5t14.5 20.5t9.5 11q2 0 4 3t4 5l110 166q23 16 43.5 48t36.5 54l18 25l22 33l21 30q9 13 11 15 q12 20 20.5 40.5t19.5 36t26.5 26t44.5 10.5q25 0 40 -11.5t24 -30t14 -39t8 -38.5l79 -144q12 -6 32 -40.5t41 -77.5l41 -84q19 -41 30 -60q33 -59 79 -113.5l87 -107.5q45 -25 71.5 -47.5t22.5 -79.5q-4 -35 -25.5 -45t-50.5 -10q-25 0 -44 15.5t-35.5 38t-31 47 t-26.5 42.5q-49 59 -93 123t-81 129q-6 10 -27 48l-45 83l-45 83q-20 38 -27 48q-2 4 -9 15l-14 21l-14 22q-8 10 -10 14zM10 201q0 -43 2 -84t17.5 -73t48.5 -51.5t94 -19.5q29 0 62.5 1t56.5 8q100 23 181 58.5t136.5 87.5t85 124t29.5 166q0 43 -1 86t-17 86 q-18 45 -51 94t-77.5 90t-97.5 68.5t-110 27.5q-41 0 -72 -18t-54.5 -45t-40.5 -58l-32 -59l-57 -117q-29 -59 -51.5 -120.5t-37 -125t-14.5 -126.5zM131 113v61q0 145 55.5 269t135.5 247q6 12 11 28.5t11 30t17.5 23.5t29.5 10q29 0 44.5 -8t35.5 -26q78 -66 114 -135.5 t36 -168.5q0 -82 -34 -148.5t-93.5 -112.5t-139.5 -71.5t-172 -25.5q-24 0 -51 27z" />
<glyph unicode="&#xf5;" horiz-adv-x="862" d="M-74 1129h-16q-8 -8 -10.5 -21.5t0.5 -27t10.5 -24.5t19.5 -15q86 45 168 40t165 -27l167 -44q84 -23 174 -14q6 4 14 3t14 5q6 -2 11.5 0l11.5 4q4 6 12 4t13 4q6 -2 9 1t7 3q4 4 6 4t6 5q6 -2 11.5 0t9.5 4q4 4 6 4t6 4q18 4 29.5 19.5t13.5 35t-5 37.5t-26 29 q-49 -2 -87 -33t-79 -55q-4 2 -6 -2.5t-6 -6.5q-86 -16 -168 8.5t-151 71.5q2 4 -4.5 5t-4.5 8q-39 31 -78.5 29.5t-81.5 -13.5t-82 -28.5t-79 -16.5zM10 201q0 -43 2 -84t17.5 -73t48.5 -51.5t94 -19.5q29 0 62.5 1t56.5 8q100 23 181 58.5t136.5 87.5t85 124t29.5 166 q0 43 -1 86t-17 86q-18 45 -51 94t-77.5 90t-97.5 68.5t-110 27.5q-41 0 -72 -18t-54.5 -45t-40.5 -58l-32 -59l-57 -117q-29 -59 -51.5 -120.5t-37 -125t-14.5 -126.5zM131 113v61q0 145 55.5 269t135.5 247q6 12 11 28.5t11 30t17.5 23.5t29.5 10q29 0 44.5 -8t35.5 -26 q78 -66 114 -135.5t36 -168.5q0 -82 -34 -148.5t-93.5 -112.5t-139.5 -71.5t-172 -25.5q-24 0 -51 27z" />
<glyph unicode="&#xf9;" horiz-adv-x="716" d="M307 1061l-141 141q-8 18 -18.5 28.5t-18.5 20.5t-13 23.5t-5 36.5q0 27 24.5 35t44.5 8q31 0 52.5 -20.5t27.5 -51.5l150 -150q12 -12 15 -23t3 -28q0 -27 -17.5 -47t-48.5 -20q-16 0 -33.5 15.5t-21.5 31.5zM29 580q0 4 3 9t5 7q0 8 2 30.5t5 48t6 48t3 31.5v22 q0 23 4 41.5t27 24.5q35 8 57.5 -14.5t22.5 -53.5t-9.5 -58.5t-15.5 -56.5q-8 -33 -8 -79v-78q0 -55 3 -125t22.5 -132.5t60.5 -105.5t117 -43q57 0 93 24.5t56.5 64.5t28.5 89.5t8 96.5q0 86 -19.5 170t-60.5 157q-2 2 -11 15.5l-20 31.5l-23 36l-17 28q-8 14 -16.5 26.5 t-8.5 28.5q0 10 10 25q2 0 10.5 1t12.5 1q33 0 59.5 -24.5t48 -59.5t36 -71t22.5 -60q31 -86 51 -153.5t20 -155.5q0 -74 -11 -141.5t-42 -119t-86 -81t-143 -29.5q-100 0 -158.5 55t-87.5 135t-38 172.5t-11 165.5v39q0 2 -4 8.5t-4 8.5z" />
<glyph unicode="&#xfb;" horiz-adv-x="716" d="M301 1743h-4q-10 0 -39.5 -40t-69.5 -100l-85 -130l-85 -131q-40 -60 -72 -100t-44 -40q-35 0 -64.5 27.5t-29.5 66.5q0 8 9 20.5t21 25.5l25 26l18 19q2 2 9.5 11t14.5 20.5t14.5 20.5t9.5 11q2 0 4 3t4 5l110 166q23 16 43.5 48t36.5 54l18 25l22 33l21 30q9 13 11 15 q12 20 20.5 40.5t19.5 36t26.5 26t44.5 10.5q25 0 40 -11.5t24 -30t14 -39t8 -38.5l79 -144q12 -6 32 -40.5t41 -77.5l41 -84q19 -41 30 -60q33 -59 79 -113.5l87 -107.5q45 -25 71.5 -47.5t22.5 -79.5q-4 -35 -25.5 -45t-50.5 -10q-25 0 -44 15.5t-35.5 38t-31 47 t-26.5 42.5q-49 59 -93 123t-81 129q-6 10 -27 48l-45 83l-45 83q-20 38 -27 48q-2 4 -9 15l-14 21l-14 22q-8 10 -10 14zM29 580q0 4 3 9t5 7q0 8 2 30.5t5 48t6 48t3 31.5v22q0 23 4 41.5t27 24.5q35 8 57.5 -14.5t22.5 -53.5t-9.5 -58.5t-15.5 -56.5q-8 -33 -8 -79v-78 q0 -55 3 -125t22.5 -132.5t60.5 -105.5t117 -43q57 0 93 24.5t56.5 64.5t28.5 89.5t8 96.5q0 86 -19.5 170t-60.5 157q-2 2 -11 15.5l-20 31.5l-23 36l-17 28q-8 14 -16.5 26.5t-8.5 28.5q0 10 10 25q2 0 10.5 1t12.5 1q33 0 59.5 -24.5t48 -59.5t36 -71t22.5 -60 q31 -86 51 -153.5t20 -155.5q0 -74 -11 -141.5t-42 -119t-86 -81t-143 -29.5q-100 0 -158.5 55t-87.5 135t-38 172.5t-11 165.5v39q0 2 -4 8.5t-4 8.5z" />
<glyph unicode="&#x152;" horiz-adv-x="2394" d="M1261 457q0 178 18.5 350t31.5 350v55q0 6 1 18.5t3 27t3 26.5t1 16q-2 2 -4 8.5t-4 8.5v4q0 6 3 30.5t9 51.5t16 45t27 10l63 -31q2 16 11.5 34t29.5 22q129 23 262.5 32t268.5 9q12 0 29 1h9q13 0 25 -2q16 -3 28.5 -12.5t12.5 -27.5q0 -31 -24.5 -45.5t-58.5 -19.5 t-66.5 -7t-48.5 -8q-10 0 -33 1t-47 1q-25 0 -48.5 -1t-31.5 -1q-4 0 -23.5 -3t-23.5 -5l-4 1q-4 1 -4 -1q-4 0 -9.5 -3t-7.5 -3v-5q0 -14 5 -26t5 -27q-31 0 -57.5 20.5t-58.5 20.5q-16 0 -33 -4t-35 -4q-23 0 -40 8t-23 31q-2 -12 -3.5 -25.5t-1.5 -27.5v-56q0 -27 -3 -51 t-15 -45q-12 -104 -18.5 -209.5t-22.5 -210.5l4 -2q2 0 3 1l20.5 4t19.5 3q2 0 3 1l1 1q2 0 3 -1l1 -1q2 0 8.5 -3t8.5 -3q6 -4 17 -6t16 -2q18 0 60 10.5t85 22.5l77 22q34 10 38 9l40 13l59 20l60 22q29 10 39 14q4 2 16.5 9.5t16.5 7.5l10 1q10 1 15 1q29 0 53 -12.5 t24 -43.5q0 -12 -21.5 -28.5t-55 -33t-72.5 -31.5t-75 -27.5t-61.5 -19.5t-31.5 -5q-10 -2 -33 -9l-47 -15l-47 -14q-23 -7 -31 -9l-48 -12q-15 -4 -40 -5q-78 0 -135 50l-8 -9q2 -25 2 -50q0 -38 -4 -76q-6 -62 -6 -126q0 -68 3 -148.5t24.5 -149t69.5 -115.5t138 -47 q82 0 156 28l149 58h9q8 4 34.5 19t34.5 20q12 6 38 21l54 33q29 17 53.5 29.5t36.5 12.5q35 0 58.5 -14.5t23.5 -51.5q0 -25 -13 -42t-33.5 -28.5t-45 -14.5t-45.5 -1l-118 -58q-60 -30 -122.5 -53.5t-128 -39t-131.5 -15.5q-6 0 -30.5 1t-32.5 1q-35 14 -68.5 19.5 t-64.5 28.5q-53 37 -83 101t-43 139t-16.5 149t-3.5 129zM20 461v-2q18 -117 49 -205t86.5 -146.5t143.5 -88t221 -29.5q119 0 232.5 41t201.5 116.5t141.5 179t53.5 230.5q0 76 -26.5 168t-72.5 186.5t-109.5 183.5t-137.5 157.5t-155 110.5t-163 42q-90 0 -147 -48 t-105 -120q-66 -98 -106.5 -187t-64 -180.5t-33 -190.5t-9.5 -218zM154 514q0 129 20.5 250t77.5 237q23 12 27 23.5t6 24t11 23.5t44 24q4 2 13 8l16 10q31 82 86 150h4q29 0 48 -18.5t48 -18.5q20 0 38.5 12t18.5 35q27 0 63 -27.5t70.5 -64.5t65.5 -76t47 -62 q74 -111 121 -226.5t47 -244.5q0 -100 -44 -187t-117.5 -150.5t-167 -100.5t-191.5 -37q-106 0 -175 30t-108 84t-54 131t-15 171z" />
<glyph unicode="&#x153;" horiz-adv-x="1789" d="M882 248q0 172 78 329.5t207 268.5q31 25 66 47t78 22q86 0 149.5 -48t63.5 -142q0 -37 -39 -84t-92.5 -92t-107.5 -79t-85 -44q-41 -16 -89 -24q-26 -4 -51 -3q-21 0 -42 2q-23 -35 -28 -76.5t-5 -82.5q0 -55 20.5 -106.5t75.5 -74.5q18 -8 24.5 -7t22.5 -9h68 q80 0 154.5 19.5t148.5 52.5q35 16 70.5 36.5t74.5 20.5q18 0 36 -12t18 -33q0 -33 -53.5 -65.5t-123 -59.5t-138 -43t-97.5 -16h-84q-154 0 -237 71.5t-83 231.5zM1065 532q0 -16 6 -18t20 -2q29 0 83.5 23.5t107.5 59.5t92 78t39 77q0 63 -64 63q-35 0 -84 -30.5 t-94 -74.5t-75.5 -92.5t-30.5 -83.5zM10 201q0 -43 2 -84t17.5 -73t48.5 -51.5t94 -19.5q29 0 62.5 1t56.5 8q100 23 181 58.5t136.5 87.5t85 124t29.5 166q0 43 -1 86t-17 86q-18 45 -51 94t-77.5 90t-97.5 68.5t-110 27.5q-41 0 -72 -18t-54.5 -45t-40.5 -58l-32 -59 l-57 -117q-29 -59 -51.5 -120.5t-37 -125t-14.5 -126.5zM131 113v61q0 145 55.5 269t135.5 247q6 12 11 28.5t11 30t17.5 23.5t29.5 10q29 0 44.5 -8t35.5 -26q78 -66 114 -135.5t36 -168.5q0 -82 -34 -148.5t-93.5 -112.5t-139.5 -71.5t-172 -25.5q-24 0 -51 27z" />
<glyph unicode="&#x2c6;" horiz-adv-x="1222" d="M526 1616h-4q-10 0 -39.5 -40t-69.5 -100l-85 -130l-85 -131q-40 -60 -72 -100t-44 -40q-35 0 -64.5 27.5t-29.5 66.5q0 8 9 20.5t21 25.5l25 26l18 19q2 2 9.5 11t14.5 20.5t14.5 20.5t9.5 11q2 0 4 3t4 5l110 166q23 16 43.5 48t36.5 54l18 25l22 33l21 30q9 13 11 15 q12 20 20.5 40.5t19.5 36t26.5 26t44.5 10.5q25 0 40 -11.5t24 -30t14 -39t8 -38.5l79 -144q12 -6 32 -40.5t41 -77.5l41 -84q19 -41 30 -60q33 -59 79 -113.5l87 -107.5q45 -25 71.5 -47.5t22.5 -79.5q-4 -35 -25.5 -45t-50.5 -10q-25 0 -44 15.5t-35.5 38t-31 47 t-26.5 42.5q-49 59 -93 123t-81 129q-6 10 -27 48l-45 83l-45 83q-20 38 -27 48q-2 4 -9 15l-14 21l-14 22q-8 10 -10 14z" />
<glyph unicode="&#x2dc;" horiz-adv-x="815" d="M-442 258h-16q-8 -8 -10.5 -21.5t0.5 -27t10.5 -24.5t19.5 -15q86 45 168 40t165 -27l167 -44q84 -23 174 -14q6 4 14 3t14 5q6 -2 11.5 0l11.5 4q4 6 12 4t13 4q6 -2 9 1t7 3q4 4 6 4t6 5q6 -2 11.5 0t9.5 4q4 4 6 4t6 4q18 4 29.5 19.5t13.5 35t-5 37.5t-26 29 q-49 -2 -87 -33t-79 -55q-4 2 -6 -2.5t-6 -6.5q-86 -16 -168 8.5t-151 71.5q2 4 -4.5 5t-4.5 8q-39 31 -78.5 29.5t-81.5 -13.5t-82 -28.5t-79 -16.5z" />
<glyph unicode="&#x2000;" horiz-adv-x="1298" />
<glyph unicode="&#x2001;" horiz-adv-x="2598" />
<glyph unicode="&#x2002;" horiz-adv-x="1298" />
<glyph unicode="&#x2003;" horiz-adv-x="2598" />
<glyph unicode="&#x2004;" horiz-adv-x="866" />
<glyph unicode="&#x2005;" horiz-adv-x="649" />
<glyph unicode="&#x2006;" horiz-adv-x="432" />
<glyph unicode="&#x2007;" horiz-adv-x="432" />
<glyph unicode="&#x2008;" horiz-adv-x="323" />
<glyph unicode="&#x2009;" horiz-adv-x="518" />
<glyph unicode="&#x200a;" horiz-adv-x="143" />
<glyph unicode="&#x2010;" horiz-adv-x="821" d="M25 1143q0 -29 6 -51.5t35 -28.5q117 -25 234.5 -31t234.5 -16q41 -4 86 -14.5t86 -10.5q23 0 40 1t39 7q4 6 10.5 31t6.5 33q0 35 -25.5 60.5t-60.5 25.5q-23 0 -46.5 -7t-45.5 -7q-31 0 -62 2t-61 6q-14 0 -49 2t-74 5t-74 5t-49 2q-37 12 -80 22.5t-82 10.5 q-16 0 -33.5 -3t-33.5 -13q0 -4 -1 -15.5t-1 -15.5z" />
<glyph unicode="&#x2011;" horiz-adv-x="821" d="M25 1143q0 -29 6 -51.5t35 -28.5q117 -25 234.5 -31t234.5 -16q41 -4 86 -14.5t86 -10.5q23 0 40 1t39 7q4 6 10.5 31t6.5 33q0 35 -25.5 60.5t-60.5 25.5q-23 0 -46.5 -7t-45.5 -7q-31 0 -62 2t-61 6q-14 0 -49 2t-74 5t-74 5t-49 2q-37 12 -80 22.5t-82 10.5 q-16 0 -33.5 -3t-33.5 -13q0 -4 -1 -15.5t-1 -15.5z" />
<glyph unicode="&#x2012;" horiz-adv-x="821" d="M25 1143q0 -29 6 -51.5t35 -28.5q117 -25 234.5 -31t234.5 -16q41 -4 86 -14.5t86 -10.5q23 0 40 1t39 7q4 6 10.5 31t6.5 33q0 35 -25.5 60.5t-60.5 25.5q-23 0 -46.5 -7t-45.5 -7q-31 0 -62 2t-61 6q-14 0 -49 2t-74 5t-74 5t-49 2q-37 12 -80 22.5t-82 10.5 q-16 0 -33.5 -3t-33.5 -13q0 -4 -1 -15.5t-1 -15.5z" />
<glyph unicode="&#x2013;" horiz-adv-x="1024" d="M25 991v199h981v-199h-981z" />
<glyph unicode="&#x2014;" horiz-adv-x="2048" d="M25 991v199h2005v-199h-2005z" />
<glyph unicode="&#x2018;" horiz-adv-x="458" d="M219 1442l-141 141q-8 18 -18.5 28.5t-18.5 20.5t-13 23.5t-5 36.5q0 27 24.5 35t44.5 8q31 0 52.5 -20.5t27.5 -51.5l150 -150q12 -12 15 -23t3 -28q0 -27 -17.5 -47t-48.5 -20q-16 0 -33.5 15.5t-21.5 31.5z" />
<glyph unicode="&#x2019;" horiz-adv-x="241" d="M20 1485q0 -25 4.5 -82t12.5 -120.5t20.5 -120t26.5 -77.5q23 -31 63 -30q25 0 47.5 19.5t22.5 47.5v4q-10 14 -26.5 34t-20.5 36q-10 37 -15 93.5t-8 96.5q-2 23 -1 56t-5 62.5t-23.5 50t-54.5 20.5q-16 0 -27 -12.5t-16 -26.5v-51z" />
<glyph unicode="&#x201c;" horiz-adv-x="368" d="M51 1149q0 -23 21.5 -42.5t44.5 -19.5q35 0 48 23t13 57q0 4 1 12.5t-9 10.5q-2 31 -6 56.5t-9 51t-11.5 52t-12.5 61.5q-6 41 -16.5 64.5t-59.5 23.5h-18q-6 -10 -11.5 -25.5t-5.5 -23.5q4 -59 22.5 -115.5t18.5 -120.5q0 -20 -5 -33.5t-5 -31.5zM225 1219 q0 -29 20.5 -56.5t51.5 -27.5q20 0 33.5 16t13.5 35q0 49 -10 115.5t-21 109.5q2 6 5.5 24.5t3.5 22.5q0 29 -27 52.5t-53 27.5q-23 4 -32 -16.5t-9 -36.5q0 -61 16 -123t16 -121v-4q0 -2 -3 -8t-5 -6v-4z" />
<glyph unicode="&#x201d;" horiz-adv-x="368" d="M51 1149q0 -23 21.5 -42.5t44.5 -19.5q35 0 48 23t13 57q0 4 1 12.5t-9 10.5q-2 31 -6 56.5t-9 51t-11.5 52t-12.5 61.5q-6 41 -16.5 64.5t-59.5 23.5h-18q-6 -10 -11.5 -25.5t-5.5 -23.5q4 -59 22.5 -115.5t18.5 -120.5q0 -20 -5 -33.5t-5 -31.5zM225 1219 q0 -29 20.5 -56.5t51.5 -27.5q20 0 33.5 16t13.5 35q0 49 -10 115.5t-21 109.5q2 6 5.5 24.5t3.5 22.5q0 29 -27 52.5t-53 27.5q-23 4 -32 -16.5t-9 -36.5q0 -61 16 -123t16 -121v-4q0 -2 -3 -8t-5 -6v-4z" />
<glyph unicode="&#x2026;" horiz-adv-x="940" d="M647 16q14 -10 23 -23l15 -26q7 -12 19.5 -21t37.5 -9t56.5 10t59 29.5t44 45t14.5 56.5q-2 23 -10.5 49.5t-23.5 49t-35.5 37.5t-47.5 15h-16q-4 -2 -24.5 -15t-25.5 -17q-23 -14 -23.5 -32t-14.5 -38l-10 -9l-15 -16l-15 -15q-7 -7 -8 -9l-1 -12q-1 -12 -1 -19 q0 -4 1 -15.5t1 -15.5zM333 16q14 -10 23 -23l15 -26q7 -12 19.5 -21t37.5 -9t56.5 10t59 29.5t44 45t14.5 56.5q-2 23 -10.5 49.5t-23.5 49t-35.5 37.5t-47.5 15h-16q-4 -2 -24.5 -15t-25.5 -17q-23 -14 -23.5 -32t-14.5 -38l-10 -9l-15 -16l-15 -15q-7 -7 -8 -9l-1 -12 q-1 -12 -1 -19q0 -4 1 -15.5t1 -15.5zM20 16q14 -10 23 -23l15 -26q7 -12 19.5 -21t37.5 -9t56.5 10t59 29.5t44 45t14.5 56.5q-2 23 -10.5 49.5t-23.5 49t-35.5 37.5t-47.5 15h-16q-4 -2 -24.5 -15t-25.5 -17q-23 -14 -23.5 -32t-14.5 -38l-10 -9l-15 -16l-15 -15 q-7 -7 -8 -9l-1 -12q-1 -12 -1 -19q0 -4 1 -15.5t1 -15.5z" />
<glyph unicode="&#x202f;" horiz-adv-x="518" />
<glyph unicode="&#x2039;" horiz-adv-x="780" d="M20 879q16 -25 51 -39.5t60 -32.5q49 -37 101.5 -72t102.5 -73.5t95 -81.5t80 -97q14 -23 32.5 -62.5t41 -78.5t51.5 -65.5t65 -22.5q39 4 47.5 16.5t8.5 46.5q0 23 -7.5 37.5t-18.5 24.5l-23 21q-12 11 -23 28q-66 102 -133.5 184t-165.5 156l-51 34l-66 44 q-33 23 -57.5 44t-24.5 36q0 14 9 24q2 4 11 13.5t19.5 18.5t19.5 18l13 14q16 14 44 27l55 28q28 14 53.5 29.5t38.5 34.5q8 4 27 16l43 27l43 26q19 12 28 17q12 6 36 23l48 37q25 19 42 39.5t17 35.5q0 80 -84 80q-16 0 -27.5 -9.5t-22.5 -22.5t-20.5 -26.5t-19.5 -21.5 l-166 -111q-33 -23 -95 -59.5t-123.5 -81.5t-108 -94.5t-46.5 -94.5v-34z" />
<glyph unicode="&#x203a;" horiz-adv-x="741" d="M20 360q0 -18 10.5 -34.5t25 -28.5t31.5 -20.5t32 -8.5q33 0 49 18.5t23.5 43t12.5 51.5t15 45q27 47 69 86t90 70.5t99 60.5l98 53q18 10 39 17.5t40.5 15.5t36 20.5t26.5 32.5v4q0 18 -10.5 35t-25.5 31t-31.5 26.5t-27 22.5t-31 27.5t-24.5 19.5l-25 18q-19 13 -43 27 l-43 27q-19 12 -24 16q-53 37 -90 73l-84 85q-8 8 -27.5 29.5t-39 46t-34 48t-10.5 36.5q-18 23 -39.5 39t-52.5 16q-14 0 -22 -9t-11.5 -21.5t-3.5 -26.5v-21q0 -35 42 -92t98.5 -115.5t112 -107.5t81.5 -68q2 -2 11.5 -7t20.5 -12t20.5 -12.5t11.5 -7.5l23 -15l35 -24 l31.5 -23t14.5 -16q0 -4 -23.5 -22t-60.5 -44l-81 -55l-83 -58l-69 -50q-31 -23 -39 -33q-27 -29 -38 -59.5t-34 -58.5q-10 -12 -22.5 -20.5t-22.5 -16.5t-18.5 -21t-8.5 -33z" />
<glyph unicode="&#x205f;" horiz-adv-x="649" />
<glyph unicode="&#x2122;" horiz-adv-x="2074" d="M1055 172q0 156 13.5 310.5t13.5 312.5v120l-14.5 -5t-12.5 -3h-6q-20 0 -42 11.5t-22 33.5q0 31 13 66l26 73q14 38 26.5 76.5t12.5 77.5t-13 72t-13 69q0 43 11 67t58 24q23 0 39.5 -14.5t28.5 -34t22.5 -42t22.5 -36.5v-101l7 -8q7 -8 19 -19l22 -22q11 -10 17 -16 q35 -33 82.5 -58.5t94.5 -25.5q37 0 70.5 24.5t63 59.5t54.5 72.5t41 66.5l15 31l24 46l23 45l16 30q12 23 21.5 37t37.5 14q31 0 46.5 -11.5t24.5 -28t14 -38t11 -41.5v-170q0 -66 1 -137q0 -7 1 -13q0 -65 -10 -131v-57q0 -39 -2 -84t-2 -86v-57v-74q0 -45 2 -90t2 -80 v-39q0 -10 2 -38.5t4 -61.5t5.5 -63.5t5.5 -45.5q4 -41 24.5 -91t20.5 -91q0 -31 -10.5 -48.5t-51.5 -17.5q-27 0 -46 15.5t-32 34.5q-10 14 -13 25t-3 22v24q0 12 -2 29q-14 135 -23.5 267t-9.5 272q0 123 4 241.5t4 241.5v145l-55 -88q-29 -47 -63.5 -87t-79.5 -66.5 t-103 -26.5q-37 0 -89 11.5t-83 31.5q-29 16 -51 35.5t-51 32.5q-13 -120 -13 -239q0 -17 1 -34v-54q0 -108 -6 -218q-4 -86 -10.5 -171t-6.5 -175v-62l17 -35v-139q0 -20 -16.5 -26.5t-31.5 -6.5q-43 0 -64.5 28t-28.5 66q-6 33 -6 68q0 15 0.5 42.5t0.5 35.5zM506 8 q0 -35 25.5 -71.5t66.5 -36.5q51 0 51 51q0 25 -6 49.5t-10 48.5q-12 147 -22.5 291.5t-24.5 292.5v22l-64 539q-16 68 -27.5 148.5t-11.5 150.5v2q41 16 95.5 25.5t112 12.5t112.5 3h100q23 0 39 -2t39 -2q20 0 37.5 12t31 31.5t20.5 42t7 45.5q0 16 -6 17q-2 0 -3 1 q-5 0 -13 -3q-10 -3 -23.5 -8t-27.5 -1q-47 -5 -97 -5h-16q-57 1 -117 1q-57 0 -114.5 -3t-112.5 -15h-8l-207 -27q-18 4 -45 1t-56.5 -9t-57.5 -15l-48 -14q-2 0 -15.5 -1t-28.5 -5t-28.5 -10t-15.5 -19q-10 -6 -16.5 -3t-11.5 7t-7 6.5t-2 -6.5q0 -20 -1 -46v-12 q0 -18 2 -35q3 -22 11 -35t29 -7l63 17q8 4 25.5 7t37 7t38 7t26.5 7q23 10 49.5 -1t49.5 -11q12 0 19 -10t12.5 -23.5t7.5 -27t4 -19.5q2 -14 8 -40.5t13 -54.5l12.5 -51.5t5.5 -29.5q2 -6 4 -21.5t5 -34t5 -33.5t2 -22l86 -995q2 -2 2 -8v-12q0 -16 -5 -30t-5 -30z" />
<glyph unicode="&#xe000;" horiz-adv-x="810" d="M0 810h810v-810h-810v810z" />
<glyph unicode="&#xfb01;" horiz-adv-x="1333" d="M975 739v27q0 16 8 25h26h31q20 0 29 -9q10 -10 16 -34.5t8 -34.5q9 -72 9 -143v-28q0 -9 -1 -19q0 -75 15 -148q16 -86 22.5 -169t16.5 -169q2 -4 5 -16.5t3 -16.5v-4q0 -25 -10 -50.5t-45 -25.5q-23 0 -35 6.5t-21 30.5q-16 55 -16 109q0 57 -6 116q-12 123 -22.5 244 t-24.5 244q0 2 -4 18.5t-4 20.5v26zM927 1120v80q0 2 18.5 8t29.5 6q6 1 10 1q36 0 58 -24q26 -28 26 -67q0 -29 -4 -64.5t-13 -64.5q-6 -8 -14 -8h-16q-25 0 -37 15.5t-21.5 37t-17 44t-19.5 36.5zM289 -57q9 -11 20 -12h1q11 1 22 1h30q16 12 19.5 30t3.5 38 q0 51 -18.5 104.5t-43.5 106.5l-51 104q-25 51 -36 101v6v4q18 2 57 5t87 9t98 16.5t91 26t68 37t27 51.5q0 49 -52 50h-10q-4 0 -15.5 -5.5t-15.5 -5.5l-28.5 -6t-38 -9t-34.5 -8t-19 -3q-61 -12 -115 -17q-27 -2 -55.5 -2t-59.5 2l-18 -9q-14 -7 -19 -17 q-16 29 -28.5 72.5t-21.5 92t-13 95.5t-4 84q0 88 40 162.5t100 128t133 84t140 30.5q31 0 52.5 -14t40 -30.5t37 -31t45.5 -14.5q47 0 47 55q0 37 -30 65t-70 46t-80 27.5t-60 9.5q-76 0 -142.5 -26.5t-133.5 -67.5q-6 4 -14 -7l-7 -12q-43 -41 -79 -81t-61.5 -85t-40 -97 t-14.5 -118v-43q29 -178 76 -335.5t119 -317.5v-12q0 -23 -11 -34t-11 -34v-16q29 -43 52.5 -84t43.5 -90z" />
<glyph unicode="&#xfb02;" horiz-adv-x="1376" d="M1069 -14q-35 137 -52.5 280.5t-24.5 286.5t-11 287.5t-15 285.5q0 8 -3 46t-8 82t-8 82t-3 48v17q0 2 -4 11t-4 11q0 4 3 20.5t13 20.5h27q31 0 47 -13t28 -42q-1 -39 -1 -77q0 -77 6 -153q8 -114 18 -227v-47q0 -12 2 -64.5t5 -112.5t6 -112.5t3 -64.5q2 -29 6.5 -54.5 t2.5 -54.5l53 -393q0 -6 10 -8t22.5 -6t22.5 -13.5t10 -27.5q0 -29 -28.5 -42t-51.5 -13q-29 0 -43 12t-28 35zM289 -57q9 -11 20 -12h1q11 1 22 1h30q16 12 19.5 30t3.5 38q0 51 -18.5 104.5t-43.5 106.5l-51 104q-25 51 -36 101v6v4q18 2 57 5t87 9t98 16.5t91 26t68 37 t27 51.5q0 49 -52 50h-10q-4 0 -15.5 -5.5t-15.5 -5.5l-28.5 -6t-38 -9t-34.5 -8t-19 -3q-61 -12 -115 -17q-27 -2 -55.5 -2t-59.5 2l-18 -9q-14 -7 -19 -17q-16 29 -28.5 72.5t-21.5 92t-13 95.5t-4 84q0 88 40 162.5t100 128t133 84t140 30.5q31 0 52.5 -14t40 -30.5 t37 -31t45.5 -14.5q47 0 47 55q0 37 -30 65t-70 46t-80 27.5t-60 9.5q-76 0 -142.5 -26.5t-133.5 -67.5q-6 4 -14 -7l-7 -12q-43 -41 -79 -81t-61.5 -85t-40 -97t-14.5 -118v-43q29 -178 76 -335.5t119 -317.5v-12q0 -23 -11 -34t-11 -34v-16q29 -43 52.5 -84t43.5 -90z" />
<glyph unicode="&#xfb03;" horiz-adv-x="2240" d="M1883 739v27q0 16 8 25h26h31q20 0 29 -9q10 -10 16 -34.5t8 -34.5q9 -72 9 -143v-28q0 -9 -1 -19q0 -75 15 -148q16 -86 22.5 -169t16.5 -169q2 -4 5 -16.5t3 -16.5v-4q0 -25 -10 -50.5t-45 -25.5q-23 0 -35 6.5t-21 30.5q-16 55 -16 109q0 57 -6 116q-12 123 -22.5 244 t-24.5 244q0 2 -4 18.5t-4 20.5v26zM1835 1120v80q0 2 18.5 8t29.5 6q6 1 10 1q36 0 58 -24q26 -28 26 -67q0 -29 -4 -64.5t-13 -64.5q-6 -8 -14 -8h-16q-25 0 -37 15.5t-21.5 37t-17 44t-19.5 36.5zM1196 -57q9 -11 20 -12h1q11 1 22 1h30q16 12 19.5 30t3.5 38 q0 51 -18.5 104.5t-43.5 106.5l-51 104q-25 51 -36 101v6v4q18 2 57 5t87 9t98 16.5t91 26t68 37t27 51.5q0 49 -52 50h-10q-4 0 -15.5 -5.5t-15.5 -5.5l-28.5 -6t-38 -9t-34.5 -8t-19 -3q-61 -12 -115 -17q-27 -2 -55.5 -2t-59.5 2l-18 -9q-14 -7 -19 -17 q-16 29 -28.5 72.5t-21.5 92t-13 95.5t-4 84q0 88 40 162.5t100 128t133 84t140 30.5q31 0 52.5 -14t40 -30.5t37 -31t45.5 -14.5q47 0 47 55q0 37 -30 65t-70 46t-80 27.5t-60 9.5q-76 0 -142.5 -26.5t-133.5 -67.5q-6 4 -14 -7l-7 -12q-43 -41 -79 -81t-61.5 -85t-40 -97 t-14.5 -118v-43q29 -178 76 -335.5t119 -317.5v-12q0 -23 -11 -34t-11 -34v-16q29 -43 52.5 -84t43.5 -90zM289 -57q9 -11 20 -12h1q11 1 22 1h30q16 12 19.5 30t3.5 38q0 51 -18.5 104.5t-43.5 106.5l-51 104q-25 51 -36 101v6v4q18 2 57 5t87 9t98 16.5t91 26t68 37 t27 51.5q0 49 -52 50h-10q-4 0 -15.5 -5.5t-15.5 -5.5l-28.5 -6t-38 -9t-34.5 -8t-19 -3q-61 -12 -115 -17q-27 -2 -55.5 -2t-59.5 2l-18 -9q-14 -7 -19 -17q-16 29 -28.5 72.5t-21.5 92t-13 95.5t-4 84q0 88 40 162.5t100 128t133 84t140 30.5q31 0 52.5 -14t40 -30.5 t37 -31t45.5 -14.5q47 0 47 55q0 37 -30 65t-70 46t-80 27.5t-60 9.5q-76 0 -142.5 -26.5t-133.5 -67.5q-6 4 -14 -7l-7 -12q-43 -41 -79 -81t-61.5 -85t-40 -97t-14.5 -118v-43q29 -178 76 -335.5t119 -317.5v-12q0 -23 -11 -34t-11 -34v-16q29 -43 52.5 -84t43.5 -90z" />
<glyph unicode="&#xfb04;" horiz-adv-x="2283" d="M1977 -14q-35 137 -52.5 280.5t-24.5 286.5t-11 287.5t-15 285.5q0 8 -3 46t-8 82t-8 82t-3 48v17q0 2 -4 11t-4 11q0 4 3 20.5t13 20.5h27q31 0 47 -13t28 -42q-1 -39 -1 -77q0 -77 6 -153q8 -114 18 -227v-47q0 -12 2 -64.5t5 -112.5t6 -112.5t3 -64.5q2 -29 6.5 -54.5 t2.5 -54.5l53 -393q0 -6 10 -8t22.5 -6t22.5 -13.5t10 -27.5q0 -29 -28.5 -42t-51.5 -13q-29 0 -43 12t-28 35zM1196 -57q9 -11 20 -12h1q11 1 22 1h30q16 12 19.5 30t3.5 38q0 51 -18.5 104.5t-43.5 106.5l-51 104q-25 51 -36 101v6v4q18 2 57 5t87 9t98 16.5t91 26t68 37 t27 51.5q0 49 -52 50h-10q-4 0 -15.5 -5.5t-15.5 -5.5l-28.5 -6t-38 -9t-34.5 -8t-19 -3q-61 -12 -115 -17q-27 -2 -55.5 -2t-59.5 2l-18 -9q-14 -7 -19 -17q-16 29 -28.5 72.5t-21.5 92t-13 95.5t-4 84q0 88 40 162.5t100 128t133 84t140 30.5q31 0 52.5 -14t40 -30.5 t37 -31t45.5 -14.5q47 0 47 55q0 37 -30 65t-70 46t-80 27.5t-60 9.5q-76 0 -142.5 -26.5t-133.5 -67.5q-6 4 -14 -7l-7 -12q-43 -41 -79 -81t-61.5 -85t-40 -97t-14.5 -118v-43q29 -178 76 -335.5t119 -317.5v-12q0 -23 -11 -34t-11 -34v-16q29 -43 52.5 -84t43.5 -90z M289 -57q9 -11 20 -12h1q11 1 22 1h30q16 12 19.5 30t3.5 38q0 51 -18.5 104.5t-43.5 106.5l-51 104q-25 51 -36 101v6v4q18 2 57 5t87 9t98 16.5t91 26t68 37t27 51.5q0 49 -52 50h-10q-4 0 -15.5 -5.5t-15.5 -5.5l-28.5 -6t-38 -9t-34.5 -8t-19 -3q-61 -12 -115 -17 q-27 -2 -55.5 -2t-59.5 2l-18 -9q-14 -7 -19 -17q-16 29 -28.5 72.5t-21.5 92t-13 95.5t-4 84q0 88 40 162.5t100 128t133 84t140 30.5q31 0 52.5 -14t40 -30.5t37 -31t45.5 -14.5q47 0 47 55q0 37 -30 65t-70 46t-80 27.5t-60 9.5q-76 0 -142.5 -26.5t-133.5 -67.5 q-6 4 -14 -7l-7 -12q-43 -41 -79 -81t-61.5 -85t-40 -97t-14.5 -118v-43q29 -178 76 -335.5t119 -317.5v-12q0 -23 -11 -34t-11 -34v-16q29 -43 52.5 -84t43.5 -90z" />
</font>
</defs>
</svg>
